<?xml version="1.0" encoding="UTF-8"?>
<svg version="1.1" xmlns="http://www.w3.org/2000/svg" width="1024" height="1024">
<path d="M0 0 C337.92 0 675.84 0 1024 0 C1024 337.92 1024 675.84 1024 1024 C686.08 1024 348.16 1024 0 1024 C0 686.08 0 348.16 0 0 Z " fill="#9BE1E9" transform="translate(0,0)"/>
<path d="M0 0 C1.40958984 0.36351562 1.40958984 0.36351562 2.84765625 0.734375 C14.16854547 3.51074825 25.57176443 5.1186216 37.12915039 6.51660156 C48.20813383 7.85707316 48.20813383 7.85707316 53.59570312 8.72924805 C66.62469735 10.83558811 79.57340548 11.98159807 92.75 12.6875 C94.45419098 12.78230652 94.45419098 12.78230652 96.19281006 12.87902832 C121.49069655 14.23757619 146.7970098 14.26880514 172.125 14.25 C173.61521919 14.24949961 173.61521919 14.24949961 175.13554382 14.24898911 C180.90480924 14.24640962 186.67397193 14.23587684 192.44319534 14.21339226 C194.21996238 14.20660968 195.99673483 14.20110885 197.77350998 14.19696236 C200.2255285 14.1901361 202.6774178 14.1766931 205.12939453 14.16113281 C205.84282894 14.16002345 206.55626335 14.15891409 207.29131699 14.15777111 C211.29803106 14.12345203 215.0647057 13.73572322 219 13 C221.04875677 12.84950251 223.10009055 12.73178735 225.15234375 12.640625 C242.26130844 11.7899464 259.27402711 10.40186568 276.3125 8.625 C277.29330536 8.5259436 278.27411072 8.42688721 279.28463745 8.3248291 C291.39507758 7.09352097 303.22709407 5.34736733 315.12963867 2.78271484 C319 2 319 2 322 2 C321.44490749 11.0781325 320.59521713 20.05944471 319.44060516 29.08172226 C319.16882469 31.20599907 318.90180911 33.33083377 318.63580322 35.45584106 C318.25137156 38.5239207 317.8652106 41.5917747 317.4776001 44.65945435 C316.44717889 52.82097329 315.43180708 60.98436005 314.421875 69.1484375 C314.26804289 70.39175056 314.26804289 70.39175056 314.11110306 71.66018105 C311.66305582 91.48443587 309.45121684 111.33317961 307.29638672 131.19116211 C307.03372346 133.60793134 306.77087029 136.02467993 306.5078125 138.44140625 C306.38252167 139.59335983 306.25723083 140.74531342 306.12814331 141.93217468 C305.17824362 150.58012482 304.11525144 159.2108538 303.01626587 167.84095764 C302.03994397 175.55043395 301.22392671 183.26238154 300.5 191 C299.33602674 203.02075384 297.95045446 214.99745847 296.39038086 226.97265625 C295.83895512 231.24887836 295.30714674 235.52751446 294.7741394 239.80606079 C294.20163079 244.39767572 293.62077265 248.98815861 293.03515625 253.578125 C291.29712787 267.25350132 289.64710982 280.9275325 288.21508789 294.63891602 C286.38995808 311.99402077 284.31558124 329.32175818 282.27600098 346.65270996 C282.02673538 348.77262507 281.77827575 350.89263211 281.53027344 353.01269531 C280.30628416 363.46145483 279.03062805 373.89513161 277.5625 384.3125 C275.83980939 396.5554562 274.53324634 408.84522405 273.20518494 421.13592529 C272.96695142 423.31664448 272.72033135 425.49630526 272.47314453 427.67602539 C272.14170969 430.61799992 271.8580821 433.56015847 271.60107422 436.50952148 C271.45958844 437.95038545 271.31783465 439.39122313 271.17578125 440.83203125 C271.06274658 442.10796143 270.94971191 443.3838916 270.83325195 444.69848633 C269.83266608 448.66301102 268.50860626 449.93231751 265.25 452.3125 C262.703125 453.73828125 262.703125 453.73828125 260 455 C257.99858344 455.99716185 255.99841199 456.99683027 254 458 C254.53876564 447.84640929 255.37752866 437.77543484 256.55946159 427.67704391 C257.01666994 423.76149854 257.45794696 419.84415937 257.89892578 415.92675781 C257.99073466 415.11192869 258.08254354 414.29709957 258.17713451 413.45757866 C259.18300369 404.46630944 260.08043112 395.46484003 260.96484375 386.4609375 C261.08516936 385.23877596 261.08516936 385.23877596 261.2079258 383.99192429 C261.61793064 379.82660392 262.02674099 375.66116752 262.43490601 371.4956665 C267.07463572 324.1806316 267.07463572 324.1806316 269.6875 303.125 C272.42021542 281.10276143 274.56012959 259.02656563 276.71289062 236.94116211 C278.64807614 217.11702958 280.59454334 197.29476614 282.8125 177.5 C282.92913498 176.45866913 282.92913498 176.45866913 283.04812622 175.39630127 C283.38874143 172.35752912 283.72987087 169.31881488 284.07118225 166.28012085 C289.58391161 117.61484034 289.58391161 117.61484034 294.375 68.875 C294.49403687 67.55133423 294.49403687 67.55133423 294.61547852 66.20092773 C294.97176324 62.21152113 295.31730424 58.22178718 295.63964844 54.22949219 C295.8660706 51.44689555 296.14225124 48.67669279 296.46191406 45.90332031 C296.59049805 44.65905273 296.71908203 43.41478516 296.8515625 42.1328125 C296.97611816 41.0617627 297.10067383 39.99071289 297.22900391 38.88720703 C296.9317393 35.13939128 295.59253351 33.64710067 293 31 C290.64729407 29.82364703 289.179248 29.86640641 286.5625 29.875 C285.78003906 29.87242187 284.99757813 29.86984375 284.19140625 29.8671875 C281.82104653 29.91617452 281.82104653 29.91617452 279 31 C276.96090493 34.06704284 276.58553856 37.01805846 276.19384766 40.63427734 C276.06661819 41.77401505 275.93938873 42.91375275 275.80830383 44.08802795 C275.61315437 45.94324318 275.61315437 45.94324318 275.4140625 47.8359375 C275.27232101 49.12604233 275.13057953 50.41614716 274.98454285 51.74534607 C274.60165555 55.23233583 274.22828653 58.7202845 273.8567543 62.20849991 C273.46956978 65.82800247 273.07345897 69.44652829 272.6784668 73.06518555 C270.85589048 89.79968048 269.08045964 106.53938528 267.3503418 123.28369141 C266.23948873 133.99097499 264.97534751 144.67596006 263.68179321 155.36248779 C262.33114131 166.58015314 261.26676794 177.80535935 260.32147217 189.06375122 C259.41675744 199.79581035 258.3184743 210.49096596 257.0625 221.1875 C255.61128904 233.55366258 254.25593343 245.9249067 253 258.3125 C252.83562967 259.9296893 252.67124167 261.5468768 252.50683594 263.1640625 C252.25889571 265.60465625 252.0110899 268.04526342 251.76358032 270.48590088 C250.87880602 279.20726301 249.98459146 287.92761825 249.07641602 296.64657593 C248.90181093 298.32763447 248.72829121 300.00880614 248.5559082 301.69009399 C248.31730978 304.01634097 248.07511494 306.3421868 247.83203125 308.66796875 C247.72759453 309.69795486 247.72759453 309.69795486 247.62104797 310.74874878 C247.36241872 313.19500936 247.10443975 315.58654448 246.50119019 317.97468567 C245.65491189 321.39450435 245.4438 324.90592569 245.11328125 328.40625 C244.98654778 329.70955261 244.98654778 329.70955261 244.85725403 331.03918457 C244.56797511 334.02579485 244.28364513 337.01284959 244 340 C243.7856806 342.24609719 243.57132371 344.49219081 243.35693359 346.73828125 C243.00777543 350.4012715 242.65887987 354.0642864 242.31039429 357.7273407 C239.72829363 384.85382031 236.99359945 411.95023962 233.80549622 439.01351929 C232.79243278 447.66738147 231.89328329 456.33308322 231 465 C184.72928385 475.70642212 132.22536434 476.02258956 86 465 C84.11209888 463.11209888 84.46360899 459.87933557 84.203125 457.34765625 C84.1294722 456.64269516 84.0558194 455.93773407 83.97993469 455.21141052 C83.73228089 452.82886771 83.49115938 450.44570831 83.25 448.0625 C83.07445391 446.3606444 82.89858349 444.65882223 82.72241211 442.95703125 C81.72622304 433.29521155 80.76140068 423.63025502 79.80078125 413.96484375 C79.69975098 412.94833237 79.5987207 411.93182098 79.49462891 410.88450623 C78.65590173 402.44286488 78.65590173 402.44286488 78.2477417 398.32260132 C76.61505122 381.85609787 74.8681211 365.40464986 73.05300903 348.95733643 C71.76482355 337.2706925 70.55425197 325.58513213 69.5 313.875 C68.38022242 301.68177661 67.18724354 289.49633238 65.88134766 277.32159424 C65.67040145 275.33080965 65.46539094 273.3393863 65.26660156 271.34735107 C64.98702922 268.55898173 64.68563155 265.77377703 64.37890625 262.98828125 C64.29971451 262.15332626 64.22052277 261.31837128 64.13893127 260.45811462 C63.56787965 255.53131666 62.67541262 252.60675445 59 249 C55.76584084 247.38292042 52.49624735 247.43177624 49 248 C45.8133497 249.7698823 45.8133497 249.7698823 44 253 C43.60278194 260.60229881 44.46799913 268.12099575 45.20703125 275.68359375 C45.33375733 277.01296764 45.46007562 278.34238046 45.58601379 279.67182922 C45.85252389 282.47745594 46.12151713 285.28282792 46.39263916 288.0880127 C47.02718862 294.65349242 47.65049128 301.22004428 48.2747345 307.78651047 C48.47971119 309.94125514 48.68521385 312.09594922 48.89074707 314.25064087 C49.85852953 324.41265182 50.76367102 334.57850492 51.625 344.75 C52.61169082 356.24799778 53.81926097 367.70860958 55.12200928 379.17388916 C56.63768221 392.52543079 58.05338462 405.88599334 59.40777588 419.25488281 C59.6339279 421.4819579 59.86188202 423.7088508 60.09173584 425.93554688 C60.41517737 429.07372874 60.73190327 432.21252059 61.046875 435.3515625 C61.14354462 436.27933502 61.24021423 437.20710754 61.33981323 438.16299438 C61.92822238 444.12802352 62.11074971 450.00731085 62 456 C60.43372332 455.2579194 58.87214641 454.50591622 57.3125 453.75 C56.44238281 453.33234375 55.57226562 452.9146875 54.67578125 452.484375 C51.70672861 450.8373093 49.43665314 449.384799 47 447 C46.25703159 444.38888729 45.85167977 442.27047869 45.59375 439.609375 C45.50347031 438.85788681 45.41319061 438.10639862 45.32017517 437.33213806 C45.02396822 434.80679317 44.76161355 432.27914624 44.5 429.75 C44.29686457 427.94232778 44.09248589 426.1347949 43.88696289 424.32739258 C41.88813308 406.36921484 40.35963381 388.36010484 38.80249023 370.359375 C37.64157051 356.9621634 36.38066022 343.59267247 34.82836914 330.23532104 C33.63304121 319.93641134 32.54659398 309.63005914 31.5234375 299.3125 C31.4259147 298.32944508 31.4259147 298.32944508 31.32642174 297.32653046 C30.60883616 290.08844537 29.89839947 282.8496939 29.19360352 275.61035156 C27.98891551 263.32265468 26.67144465 251.06758865 25.08956909 238.82266235 C23.77867825 228.53919938 22.81512241 218.22831113 21.86514282 207.90625 C20.11017304 188.87888774 18.13918265 169.89723631 15.83203125 150.9296875 C15.05974996 144.57944065 14.39081908 138.22572994 13.78393555 131.85791016 C13.2813949 126.65482155 12.7222529 121.45954066 12.1328125 116.265625 C12.05261871 115.55821671 11.97242493 114.85080841 11.88980103 114.1219635 C11.76621719 113.03207375 11.76621719 113.03207375 11.64013672 111.92016602 C9.69573495 94.77182232 7.96086911 77.6125195 6.39501953 60.42529297 C5.59817919 51.75331197 4.68032387 43.1310464 3.48193359 34.50415039 C2.6979832 28.80402878 2.03628993 23.09043435 1.375 17.375 C1.2409375 16.24449219 1.106875 15.11398437 0.96875 13.94921875 C0.84242188 12.85996094 0.71609375 11.77070313 0.5859375 10.6484375 C0.41650635 9.19703369 0.41650635 9.19703369 0.24365234 7.71630859 C0.01133686 5.12638663 -0.04432365 2.59854775 0 0 Z " fill="#9CE0E9" transform="translate(341,254)"/>
<path d="M0 0 C0.94043781 -0.00144516 1.88087563 -0.00289032 2.84981155 -0.00437927 C51.09495269 -0.06409979 100.850771 0.20009753 148.1550293 10.62329102 C150.62421322 11.16226157 153.08854123 11.66717646 155.57421875 12.12109375 C178.25539291 16.2849125 178.25539291 16.2849125 184.74609375 25.3046875 C194.54315509 40.45821581 188.56661696 63.74530682 186.5625 80.6875 C186.28536484 83.10066995 186.00892195 85.51391949 185.7331543 87.92724609 C184.17690559 101.44421123 182.5126341 114.94232955 180.64160156 128.41943359 C179.38236261 137.52845665 178.3942063 146.65275126 177.45410156 155.79956055 C176.58245534 164.14037359 175.51959761 172.44259628 174.375 180.75 C172.88788307 191.61073714 171.59128077 202.47474967 170.4375 213.375 C170.35831329 214.12293823 170.27912659 214.87087646 170.19754028 215.64147949 C170.07667557 216.78332703 170.07667557 216.78332703 169.95336914 217.94824219 C166.92582309 246.53143217 163.64335805 275.08914447 160.30908203 303.63809204 C160.07362719 305.65469864 159.83951466 307.67146182 159.60546875 309.68823242 C158.92748038 315.4469343 158.19885418 321.19116672 157.35791016 326.9284668 C156.37880496 333.74122926 155.52545611 340.5624659 154.7265625 347.3984375 C154.58482101 348.60247223 154.44307953 349.80650696 154.29704285 351.04702759 C153.84152464 354.92691555 153.38926196 358.80717301 152.9375 362.6875 C152.78036657 364.03142008 152.62317012 365.3753328 152.46591187 366.71923828 C150.44035061 384.04561671 148.55165337 401.37883299 146.89266968 418.7444458 C145.81083991 430.0166782 144.43604334 441.20302443 142.74584961 452.40332031 C141.35268897 461.70396392 140.29998178 471.02219309 139.35131836 480.37792969 C138.24855193 491.24629637 136.86250559 502.07435178 135.45870972 512.90687561 C132.82040779 533.2928474 130.4797655 553.680348 128.56884766 574.14819336 C128.45209183 575.39486282 128.45209183 575.39486282 128.33297729 576.66671753 C128.18940052 578.20757634 128.04758543 579.74860088 127.9079895 581.28982544 C127.5043498 585.65447721 126.94527725 589.97582892 126.3125 594.3125 C126.91087771 594.30973462 127.50925543 594.30696924 128.1257658 594.30412006 C142.68986049 594.23784881 157.25394627 594.18821387 171.81815624 594.15706348 C178.86132919 594.14159873 185.90440145 594.1205168 192.94750977 594.08618164 C199.74262256 594.05307126 206.53763061 594.03565377 213.33281898 594.02786827 C215.927205 594.02231891 218.5215852 594.0114826 221.11592674 593.99530983 C224.745624 593.97357969 228.37488699 593.9705313 232.00463867 593.97192383 C233.61872871 593.95574509 233.61872871 593.95574509 235.26542664 593.9392395 C240.95874532 593.96292407 245.07185078 594.07185078 249.3125 598.3125 C249.89833361 602.31693229 250.51356081 606.62113272 248.078125 610.05078125 C245.6412306 612.09560106 243.32227837 613.30924054 240.3125 614.3125 C240.993125 614.993125 241.67375 615.67375 242.375 616.375 C244.3125 619.3125 244.3125 619.3125 244.375 622.75 C243.14249045 626.88253201 241.92060427 629.88191096 238.3125 632.3125 C233.99500242 633.22303283 229.72441183 633.10395828 225.32637024 633.04748535 C223.97623729 633.05153466 222.6261101 633.05821413 221.27600163 633.0672965 C217.56652567 633.08460095 213.85805052 633.06445651 210.14866173 633.03821182 C206.1478181 633.01642537 202.14706741 633.0292404 198.14619446 633.03778076 C190.30737061 633.04905444 182.46893768 633.02840335 174.63018046 632.99720484 C165.4993969 632.96213505 156.3686893 632.95928643 147.2378489 632.95797366 C130.94111496 632.95459625 114.64455899 632.92295547 98.34790039 632.875 C82.54157027 632.82852123 66.73535298 632.80015595 50.92895508 632.79296875 C49.95618818 632.79252322 48.98342128 632.79207768 47.98117659 632.79161865 C46.02145768 632.79073343 44.06173877 632.78984938 42.10201986 632.78896651 C41.13525238 632.78852737 40.16848491 632.78808824 39.17242146 632.7876358 C38.20806597 632.78720383 37.24371048 632.78677186 36.2501321 632.7863268 C21.18129318 632.77891619 6.11247242 632.75619389 -8.95634651 632.73137501 C-14.41380369 632.72251642 -19.87125917 632.71563486 -25.32872071 632.71013075 C-33.9904315 632.70124843 -42.65207521 632.68564305 -51.31374373 632.65658194 C-55.2703748 632.64340718 -59.22694718 632.63324251 -63.18360138 632.63166046 C-66.81020208 632.63007792 -70.43665454 632.61918106 -74.06320903 632.60102147 C-75.98719745 632.59368596 -77.91121521 632.59595429 -79.83521575 632.5986352 C-93.04108939 632.51113042 -104.31565979 630.35286301 -114.4375 621.25 C-124.11207852 610.75949317 -126.76087318 598.31168749 -127.6328125 584.6171875 C-128.30086311 575.12658445 -129.09389494 565.66085638 -130.0546875 556.1953125 C-130.17549683 555.00375549 -130.29630615 553.81219849 -130.42077637 552.58453369 C-130.67106484 550.12925863 -130.92229675 547.67407958 -131.17443848 545.21899414 C-131.84541285 538.68063491 -132.50540827 532.14117288 -133.1640625 525.6015625 C-133.29510376 524.30071716 -133.42614502 522.99987183 -133.56115723 521.65960693 C-134.92991336 508.00404195 -136.18218477 494.33873217 -137.39404297 480.66845703 C-138.25498458 470.96606739 -139.17532113 461.27206216 -140.15625 451.58105469 C-140.62669027 446.9325003 -141.08502956 442.28282344 -141.54051208 437.63278198 C-143.58265296 416.78735555 -145.64327591 395.95250838 -148.18034363 375.16075134 C-149.32031736 365.74183802 -150.31047141 356.31462253 -151.22802734 346.87167549 C-152.82461528 330.48709045 -154.54968501 314.11795751 -156.34375 297.75390625 C-156.51666219 296.17538376 -156.51666219 296.17538376 -156.69306755 294.56497192 C-157.64109372 285.91494867 -158.59320187 277.26537586 -159.54681396 268.6159668 C-160.37774873 261.07891793 -161.20647069 253.54163136 -162.03125 246.00390625 C-162.20308304 244.4337592 -162.20308304 244.4337592 -162.37838745 242.83189201 C-164.15757438 226.53718218 -165.8212634 210.23356645 -167.36950684 193.91529846 C-168.37758712 183.30685203 -169.49270153 172.71403186 -170.6875 162.125 C-170.81825172 160.96504202 -170.81825172 160.96504202 -170.9516449 159.78165054 C-171.19674851 157.60831942 -171.44208782 155.43501505 -171.6875 153.26171875 C-173.17736755 140.04868224 -174.54453471 126.82257394 -175.92390442 113.59764099 C-176.53805295 107.71777971 -177.16388399 101.8392174 -177.79296875 95.9609375 C-178.06586148 93.40185508 -178.33852327 90.84274817 -178.61108398 88.28363037 C-178.78375219 86.66688251 -178.95722257 85.05022007 -179.1315918 83.43365479 C-180.07567622 74.67683252 -180.91397793 65.94444034 -181.43481445 57.15039062 C-181.64974465 54.73652719 -182.05845557 52.63961894 -182.6875 50.3125 C-183.48635127 41.25124422 -183.22564286 33.78315641 -177.6875 26.3125 C-163.913187 10.41269181 -137.44126087 9.98819349 -118 7.2421875 C-114.12247433 6.69258709 -110.2900765 6.05519054 -106.44921875 5.29296875 C-99.61540166 4.02081411 -92.71589475 3.48932471 -85.79516602 2.93481445 C-83.54827963 2.75388764 -81.30251217 2.56220894 -79.05664062 2.36914062 C-52.74250872 0.16310875 -26.38840463 0.03188227 0 0 Z M-157.6875 56.3125 C-157.07871715 65.63067693 -156.26799485 74.90547517 -155.25 84.1875 C-155.06727539 85.89486328 -155.06727539 85.89486328 -154.88085938 87.63671875 C-154.22933796 93.65232061 -153.51961389 99.65562384 -152.7421875 105.65625 C-151.18814352 117.79482677 -150.10780982 129.98896853 -148.94018555 142.16943359 C-147.78055792 154.23065922 -146.47766935 166.23563941 -144.76591492 178.23150635 C-143.74522292 185.5260232 -143.0402292 192.82555722 -142.41157532 200.1630249 C-141.88233404 206.30136423 -141.25775817 212.4200356 -140.5390625 218.5390625 C-140.39109726 219.79950882 -140.39109726 219.79950882 -140.24014282 221.0854187 C-140.03670426 222.811093 -139.83276915 224.53670883 -139.62835693 226.26226807 C-137.69531277 242.63468524 -136.00822352 259.01503148 -134.5625 275.4375 C-133.48767567 287.63126456 -132.37118255 299.8023916 -130.8996582 311.95605469 C-129.42369554 324.24498441 -128.18998143 336.55945172 -126.92214966 348.87121582 C-125.34998689 364.16505201 -125.34998689 364.16505201 -123.65234375 379.4453125 C-123.57166656 380.14491592 -123.49098938 380.84451935 -123.40786743 381.56532288 C-123.32805634 382.25702072 -123.24824524 382.94871857 -123.16601562 383.66137695 C-121.37294861 399.20243348 -119.9166014 414.75715938 -118.5687561 430.34329224 C-117.83802704 438.7260733 -117.07295979 447.10576191 -116.30664062 455.48535156 C-115.90375792 459.89509439 -115.51464329 464.30565839 -115.13867188 468.71777344 C-114.72308647 473.55786789 -114.26181073 478.39136998 -113.76266479 483.22354126 C-113.5897308 484.96921625 -113.43266625 486.71654792 -113.29275513 488.46517944 C-112.7570371 497.8376072 -112.7570371 497.8376072 -108.45849609 505.86669922 C-104.46391429 508.76397421 -100.27171873 510.54198997 -95.6875 512.3125 C-95.43540892 502.973405 -96.4100589 493.8122713 -97.3671875 484.5390625 C-97.54219592 482.80769189 -97.71675799 481.07627612 -97.89089966 479.34481812 C-98.34934919 474.79831313 -98.8137256 470.25243299 -99.27941895 465.70666504 C-99.74577694 461.14464218 -100.20669019 456.58207001 -100.66796875 452.01953125 C-101.27129092 446.05631945 -101.87641049 440.09329812 -102.48495674 434.13061714 C-103.40853124 425.08112125 -104.31782689 416.03026045 -105.22122192 406.97872925 C-105.73589766 401.82347641 -106.25620018 396.66879924 -106.77758789 391.51422119 C-107.28401169 386.50541227 -107.78796043 381.49635481 -108.29199219 376.48730469 C-108.55494966 373.8778576 -108.81861766 371.26848201 -109.08300781 368.65917969 C-110.42177029 355.44097643 -111.73942318 342.22181577 -112.875 328.984375 C-113.00080444 327.55523773 -113.00080444 327.55523773 -113.12915039 326.097229 C-114.43129801 310.45144071 -114.43129801 310.45144071 -111.6875 306.25 C-107.82855869 303.75776707 -105.15481998 303.38105474 -100.6875 304.3125 C-97.8125 305.6875 -97.8125 305.6875 -95.6875 308.3125 C-93.63562864 315.31333308 -93.06600103 322.78393626 -92.28515625 330.01171875 C-92.16301254 331.11116821 -92.04086884 332.21061768 -91.9150238 333.34338379 C-91.5219752 336.89508922 -91.13566489 340.44748581 -90.75 344 C-90.47798466 346.47893571 -90.20584849 348.95785815 -89.93359375 351.43676758 C-88.49545431 364.58549425 -87.10021795 377.73587772 -85.86914062 390.90576172 C-84.58132251 404.65413999 -83.15686531 418.38838606 -81.75 432.125 C-79.74258135 451.73237372 -77.78286656 471.34256667 -75.98071289 490.9699707 C-75.0727808 500.77857897 -73.97310218 510.54609744 -72.6875 520.3125 C-69.29418806 521.77444523 -66.14716085 522.71556188 -62.50390625 523.3125 C-61.50681641 523.4765332 -60.50972656 523.64056641 -59.48242188 523.80957031 C-53.88885208 524.67986894 -48.29322301 525.52389112 -42.6875 526.3125 C-41.37048096 526.4990918 -41.37048096 526.4990918 -40.02685547 526.68945312 C-14.42293654 530.11630503 12.44405307 529.36762924 38.125 527.0625 C39.37192627 526.95333252 40.61885254 526.84416504 41.90356445 526.73168945 C52.52141059 525.65700867 62.8812298 523.52167767 73.3125 521.3125 C77.69180532 482.94480421 81.74625922 444.56384726 85.38121033 406.11846924 C86.04910699 399.06082094 86.72431771 392.00400237 87.421875 384.94921875 C87.49912308 384.15816238 87.57637115 383.36710602 87.65596008 382.55207825 C88.0815072 378.28610521 88.60481816 374.0522158 89.25 369.8125 C90.67667109 360.24282931 91.5947742 350.615277 92.60514832 340.99450684 C93.54099537 332.10599048 94.51436452 323.22153138 95.48306274 314.33654785 C95.81319246 311.30614361 96.14246948 308.27564796 96.47143555 305.24511719 C97.3731585 296.93875165 98.27526446 288.63248299 99.1953125 280.328125 C100.4592399 268.84711505 101.58640526 257.3634451 102.56558228 245.85498047 C103.71933309 232.29482854 105.13305568 218.7917348 106.76806641 205.28149414 C107.89127843 195.98579883 108.93032318 186.68560205 109.89266968 177.37188721 C111.62241194 160.64339601 113.40359911 143.92009926 115.22848225 127.20172596 C115.62252034 123.59084308 116.01388517 119.9797186 116.39859009 116.36782837 C116.83266572 112.29373393 117.27910815 108.2210844 117.7265625 104.1484375 C117.92171196 102.29322227 117.92171196 102.29322227 118.12080383 100.40052795 C118.24803329 99.26079025 118.37526276 98.12105255 118.50634766 96.94677734 C118.61419586 95.95108734 118.72204407 94.95539734 118.8331604 93.92953491 C119.31005814 91.32583172 119.84872512 89.51419247 121.3125 87.3125 C125.36333563 85.96222146 129.08191515 85.62224668 133.3125 86.3125 C136.3125 88.75 136.3125 88.75 138.3125 91.3125 C138.6425 91.6425 138.9725 91.9725 139.3125 92.3125 C139.22999504 96.98744374 138.71492496 101.65489163 138.3125 106.3125 C138.23481384 107.21363525 138.15712769 108.11477051 138.0770874 109.04321289 C137.40948921 116.71859712 136.70896188 124.39083874 136 132.0625 C135.88889893 133.26789429 135.77779785 134.47328857 135.66333008 135.71520996 C134.25063795 150.98330737 132.71151717 166.21730043 130.83496094 181.43505859 C129.27610459 194.16607878 128.00964704 206.92382713 126.75 219.6875 C126.58831833 221.32464966 126.58831833 221.32464966 126.42337036 222.99487305 C126.20940207 225.16196551 125.99544818 227.3290594 125.7815094 229.49615479 C125.6782988 230.54156433 125.5750882 231.58697388 125.46875 232.6640625 C125.36719101 233.6935199 125.26563202 234.72297729 125.16099548 235.78363037 C124.07246066 246.79026786 122.88992707 257.7858278 121.69384766 268.78125 C120.92793577 275.87353525 120.18373596 282.96812229 119.4375 290.0625 C119.35474823 290.8482843 119.27199646 291.6340686 119.18673706 292.44366455 C118.14423695 302.34433949 117.11080973 312.24592218 116.0859375 322.1484375 C115.6616849 326.24481517 115.23718931 330.34116758 114.8125 334.4375 C114.70617249 335.46341248 114.59984497 336.48932495 114.49029541 337.54632568 C113.15308242 350.43332601 111.76945168 363.31352072 110.3125 376.1875 C108.66827646 390.71711434 107.19336876 405.26165538 105.75 419.8125 C101.57508996 461.87677626 101.57508996 461.87677626 99.2421875 481.265625 C99.14972244 482.03749146 99.05725739 482.80935791 98.96199036 483.60461426 C98.50860366 487.38701077 98.05035425 491.16867201 97.58178711 494.94921875 C96.79084343 501.42980235 96.06699046 507.77686672 96.3125 514.3125 C98.04504356 513.40223193 99.77338734 512.48396832 101.5 511.5625 C102.46292969 511.05203125 103.42585938 510.5415625 104.41796875 510.015625 C110.48467279 506.63289134 110.48467279 506.63289134 113.30737305 500.50390625 C113.50256888 498.96366854 113.67334463 497.42020892 113.82421875 495.875 C113.92338089 495.04025146 114.02254303 494.20550293 114.12471008 493.34545898 C114.43737009 490.66971728 114.71898049 487.99172986 115 485.3125 C115.19916466 483.57268572 115.40031924 481.83309802 115.60351562 480.09375 C116.71642178 470.43212275 117.67010714 460.75499128 118.62165833 451.07641602 C119.17964249 445.46608961 119.85529305 439.88913205 120.6875 434.3125 C122.05498496 424.70842612 123.14133894 415.08049924 124.1875 405.4375 C125.60013629 392.41951331 127.15440321 379.42642576 128.8125 366.4375 C130.9111794 349.97232772 132.73070176 333.48855815 134.41796875 316.9765625 C136.98939821 291.82751521 136.98939821 291.82751521 138.75 280.1875 C140.92618763 265.31292955 142.89766939 250.41132573 144.25 235.4375 C145.10199386 226.02067849 146.19173403 216.63781622 147.31723022 207.25036621 C148.46960354 197.62650991 149.57633544 187.99903115 150.625 178.36328125 C152.78005603 158.5943533 154.96458514 138.83306214 157.44140625 119.1015625 C157.57729597 118.01867258 157.57729597 118.01867258 157.71593094 116.9139061 C158.60937822 109.80283234 159.51061986 102.69278869 160.42449284 95.58431053 C160.68125977 93.58389719 160.93646279 91.58329058 161.19114685 89.58261108 C161.501644 87.14714266 161.81521393 84.71206281 162.13270569 82.27749634 C163.14714148 74.30284445 163.81293447 66.33543252 164.3125 58.3125 C155.78676704 59.59457057 155.78676704 59.59457057 147.28295898 61.01220703 C136.47119371 62.90333908 125.66998192 64.28836264 114.75 65.375 C113.92275421 65.45932281 113.09550842 65.54364563 112.24319458 65.63052368 C98.71120672 67.00502161 85.17656176 68.01572267 71.59350586 68.71704102 C69.68903687 68.81650024 69.68903687 68.81650024 67.74609375 68.91796875 C66.64322021 68.97106201 65.54034668 69.02415527 64.40405273 69.07885742 C61.36374321 69.25214462 61.36374321 69.25214462 58.6111908 69.81703186 C54.87133453 70.37876369 51.21330464 70.46777179 47.44189453 70.47363281 C46.28635087 70.48095696 46.28635087 70.48095696 45.10746288 70.48842907 C42.55340656 70.50282644 39.99940151 70.50963061 37.4453125 70.515625 C35.63323435 70.52262997 33.82115651 70.52971686 32.00907898 70.53688049 C26.15188317 70.55657517 20.29472547 70.56132129 14.4375 70.5625 C12.94594202 70.56316278 12.94594202 70.56316278 11.42425156 70.56383896 C-33.28525071 70.57429061 -77.81162133 69.91530653 -122.06396484 62.88378906 C-125.35793516 62.36445942 -128.6537668 61.88549597 -131.95703125 61.4296875 C-140.69394208 60.21459482 -149.17596729 58.68850411 -157.6875 56.3125 Z " fill="#102D4B" transform="translate(498.6875,197.6875)"/>
<path d="M0 0 C1.40958984 0.36351562 1.40958984 0.36351562 2.84765625 0.734375 C14.16854547 3.51074825 25.57176443 5.1186216 37.12915039 6.51660156 C38.37301514 6.66709961 39.61687988 6.81759766 40.8984375 6.97265625 C42.85233398 7.20807129 42.85233398 7.20807129 44.84570312 7.44824219 C47.71665838 7.81263135 50.56658319 8.24845103 53.41992188 8.73144531 C68.1444178 11.19629781 82.84975193 11.94296004 97.75 12.625 C101.52792056 12.80563696 105.30567627 12.98915109 109.08331299 13.17562866 C111.41153324 13.28977263 113.73993956 13.40020511 116.06854248 13.5062561 C121.76203191 13.77747031 127.35608963 14.1970185 133 15 C133.90479451 20.56338394 134.25987988 26.03856988 134.46484375 31.66796875 C134.50239777 32.62760025 134.53995178 33.58723175 134.5786438 34.57594299 C134.70238946 37.77965294 134.82018672 40.98354847 134.9375 44.1875 C134.97946503 45.29959839 135.02143005 46.41169678 135.06466675 47.55749512 C135.92791036 70.44345089 136.60626177 93.33491949 137.24355316 116.22812557 C137.33992075 119.68856567 137.4372896 123.148977 137.53515625 126.609375 C137.55401508 127.27840914 137.57287392 127.94744328 137.59230423 128.63675117 C137.83792804 137.2822672 138.14695381 145.92209426 138.53125 154.5625 C138.99964482 165.12722098 139.21929064 175.68742086 139.38815308 186.26062012 C139.63875354 201.44170795 140.00829584 216.59439745 140.9375 231.75 C141.75461123 245.16277981 142.37849238 258.57141567 142.875 272 C143.03882172 276.40105065 143.20296438 280.80208931 143.3671875 285.203125 C143.41293411 286.43107788 143.45868073 287.65903076 143.5058136 288.92419434 C144.21938608 307.98251691 144.97801094 327.03910063 145.73590088 346.09570312 C145.90966289 350.46740475 146.08230495 354.83914814 146.25384521 359.2109375 C146.50029006 365.48967466 146.7490318 371.76831702 147 378.046875 C147.04054756 379.06243973 147.08109512 380.07800446 147.1228714 381.12434387 C147.55474735 391.87914181 148.0156978 402.63140878 148.56591797 413.38085938 C148.61233051 414.28853184 148.65874306 415.1962043 148.70656204 416.13138199 C148.9239392 420.35156519 149.14712897 424.57133431 149.37963867 428.79071045 C150.13825671 442.86571108 150.22064469 456.90589636 150 471 C128.34407497 471.42695142 107.14406377 469.9137613 86 465 C84.11209888 463.11209888 84.46360899 459.87933557 84.203125 457.34765625 C84.1294722 456.64269516 84.0558194 455.93773407 83.97993469 455.21141052 C83.73228089 452.82886771 83.49115938 450.44570831 83.25 448.0625 C83.07445391 446.3606444 82.89858349 444.65882223 82.72241211 442.95703125 C81.72622304 433.29521155 80.76140068 423.63025502 79.80078125 413.96484375 C79.69975098 412.94833237 79.5987207 411.93182098 79.49462891 410.88450623 C78.65590173 402.44286488 78.65590173 402.44286488 78.2477417 398.32260132 C76.61505122 381.85609787 74.8681211 365.40464986 73.05300903 348.95733643 C71.76482355 337.2706925 70.55425197 325.58513213 69.5 313.875 C68.38022242 301.68177661 67.18724354 289.49633238 65.88134766 277.32159424 C65.67040145 275.33080965 65.46539094 273.3393863 65.26660156 271.34735107 C64.98702922 268.55898173 64.68563155 265.77377703 64.37890625 262.98828125 C64.29971451 262.15332626 64.22052277 261.31837128 64.13893127 260.45811462 C63.56787965 255.53131666 62.67541262 252.60675445 59 249 C55.76584084 247.38292042 52.49624735 247.43177624 49 248 C45.8133497 249.7698823 45.8133497 249.7698823 44 253 C43.60278194 260.60229881 44.46799913 268.12099575 45.20703125 275.68359375 C45.33375733 277.01296764 45.46007562 278.34238046 45.58601379 279.67182922 C45.85252389 282.47745594 46.12151713 285.28282792 46.39263916 288.0880127 C47.02718862 294.65349242 47.65049128 301.22004428 48.2747345 307.78651047 C48.47971119 309.94125514 48.68521385 312.09594922 48.89074707 314.25064087 C49.85852953 324.41265182 50.76367102 334.57850492 51.625 344.75 C52.61169082 356.24799778 53.81926097 367.70860958 55.12200928 379.17388916 C56.63768221 392.52543079 58.05338462 405.88599334 59.40777588 419.25488281 C59.6339279 421.4819579 59.86188202 423.7088508 60.09173584 425.93554688 C60.41517737 429.07372874 60.73190327 432.21252059 61.046875 435.3515625 C61.14354462 436.27933502 61.24021423 437.20710754 61.33981323 438.16299438 C61.92822238 444.12802352 62.11074971 450.00731085 62 456 C60.43372332 455.2579194 58.87214641 454.50591622 57.3125 453.75 C56.44238281 453.33234375 55.57226562 452.9146875 54.67578125 452.484375 C51.70672861 450.8373093 49.43665314 449.384799 47 447 C46.25703159 444.38888729 45.85167977 442.27047869 45.59375 439.609375 C45.50347031 438.85788681 45.41319061 438.10639862 45.32017517 437.33213806 C45.02396822 434.80679317 44.76161355 432.27914624 44.5 429.75 C44.29686457 427.94232778 44.09248589 426.1347949 43.88696289 424.32739258 C41.88813308 406.36921484 40.35963381 388.36010484 38.80249023 370.359375 C37.64157051 356.9621634 36.38066022 343.59267247 34.82836914 330.23532104 C33.63304121 319.93641134 32.54659398 309.63005914 31.5234375 299.3125 C31.4259147 298.32944508 31.4259147 298.32944508 31.32642174 297.32653046 C30.60883616 290.08844537 29.89839947 282.8496939 29.19360352 275.61035156 C27.98891551 263.32265468 26.67144465 251.06758865 25.08956909 238.82266235 C23.77867825 228.53919938 22.81512241 218.22831113 21.86514282 207.90625 C20.11017304 188.87888774 18.13918265 169.89723631 15.83203125 150.9296875 C15.05974996 144.57944065 14.39081908 138.22572994 13.78393555 131.85791016 C13.2813949 126.65482155 12.7222529 121.45954066 12.1328125 116.265625 C12.05261871 115.55821671 11.97242493 114.85080841 11.88980103 114.1219635 C11.76621719 113.03207375 11.76621719 113.03207375 11.64013672 111.92016602 C9.69573495 94.77182232 7.96086911 77.6125195 6.39501953 60.42529297 C5.59817919 51.75331197 4.68032387 43.1310464 3.48193359 34.50415039 C2.6979832 28.80402878 2.03628993 23.09043435 1.375 17.375 C1.2409375 16.24449219 1.106875 15.11398437 0.96875 13.94921875 C0.84242188 12.85996094 0.71609375 11.77070313 0.5859375 10.6484375 C0.41650635 9.19703369 0.41650635 9.19703369 0.24365234 7.71630859 C0.01133686 5.12638663 -0.04432365 2.59854775 0 0 Z " fill="#FBFCF2" transform="translate(341,254)"/>
<path d="M0 0 C-0.55509251 9.0781325 -1.40478287 18.05944471 -2.55939484 27.08172226 C-2.83117531 29.20599907 -3.09819089 31.33083377 -3.36419678 33.45584106 C-3.74862844 36.5239207 -4.1347894 39.5917747 -4.5223999 42.65945435 C-5.55282111 50.82097329 -6.56819292 58.98436005 -7.578125 67.1484375 C-7.73195711 68.39175056 -7.73195711 68.39175056 -7.88889694 69.66018105 C-10.33694418 89.48443587 -12.54878316 109.33317961 -14.70361328 129.19116211 C-14.96627654 131.60793134 -15.22912971 134.02467993 -15.4921875 136.44140625 C-15.61747833 137.59335983 -15.74276917 138.74531342 -15.87185669 139.93217468 C-16.82175638 148.58012482 -17.88474856 157.2108538 -18.98373413 165.84095764 C-19.96005603 173.55043395 -20.77607329 181.26238154 -21.5 189 C-22.66397326 201.02075384 -24.04954554 212.99745847 -25.60961914 224.97265625 C-26.16104488 229.24887836 -26.69285326 233.52751446 -27.2258606 237.80606079 C-27.79836921 242.39767572 -28.37922735 246.98815861 -28.96484375 251.578125 C-30.70287213 265.25350132 -32.35289018 278.9275325 -33.78491211 292.63891602 C-35.61004192 309.99402077 -37.68441876 327.32175818 -39.72399902 344.65270996 C-39.97326462 346.77262507 -40.22172425 348.89263211 -40.46972656 351.01269531 C-41.69371584 361.46145483 -42.96937195 371.89513161 -44.4375 382.3125 C-46.16019061 394.5554562 -47.46675366 406.84522405 -48.79481506 419.13592529 C-49.03304858 421.31664448 -49.27966865 423.49630526 -49.52685547 425.67602539 C-49.85829031 428.61799992 -50.1419179 431.56015847 -50.39892578 434.50952148 C-50.54041156 435.95038545 -50.68216535 437.39122313 -50.82421875 438.83203125 C-50.93725342 440.10796143 -51.05028809 441.3838916 -51.16674805 442.69848633 C-52.16733392 446.66301102 -53.49139374 447.93231751 -56.75 450.3125 C-59.296875 451.73828125 -59.296875 451.73828125 -62 453 C-64.00141656 453.99716185 -66.00158801 454.99683027 -68 456 C-67.46123436 445.84640929 -66.62247134 435.77543484 -65.44053841 425.67704391 C-64.98333006 421.76149854 -64.54205304 417.84415937 -64.10107422 413.92675781 C-64.00926534 413.11192869 -63.91745646 412.29709957 -63.82286549 411.45757866 C-62.81699631 402.46630944 -61.91956888 393.46484003 -61.03515625 384.4609375 C-60.95493917 383.64616314 -60.8747221 382.83138878 -60.7920742 381.99192429 C-60.38206936 377.82660392 -59.97325901 373.66116752 -59.56509399 369.4956665 C-54.92536428 322.1806316 -54.92536428 322.1806316 -52.3125 301.125 C-49.57978458 279.10276143 -47.43987041 257.02656563 -45.28710938 234.94116211 C-43.35192386 215.11702958 -41.40545666 195.29476614 -39.1875 175.5 C-39.10974335 174.80577942 -39.03198669 174.11155884 -38.95187378 173.39630127 C-38.61125857 170.35752912 -38.27012913 167.31881488 -37.92881775 164.28012085 C-32.41608839 115.61484034 -32.41608839 115.61484034 -27.625 66.875 C-27.54564209 65.99255615 -27.46628418 65.1101123 -27.38452148 64.20092773 C-27.02823676 60.21152113 -26.68269576 56.22178718 -26.36035156 52.22949219 C-26.1339294 49.44689555 -25.85774876 46.67669279 -25.53808594 43.90332031 C-25.40950195 42.65905273 -25.28091797 41.41478516 -25.1484375 40.1328125 C-25.02388184 39.0617627 -24.89932617 37.99071289 -24.77099609 36.88720703 C-25.0682607 33.13939128 -26.40746649 31.64710067 -29 29 C-31.35270593 27.82364703 -32.820752 27.86640641 -35.4375 27.875 C-36.21996094 27.87242187 -37.00242187 27.86984375 -37.80859375 27.8671875 C-40.17895347 27.91617452 -40.17895347 27.91617452 -43 29 C-45.03909507 32.06704284 -45.41446144 35.01805846 -45.80615234 38.63427734 C-45.93338181 39.77401505 -46.06061127 40.91375275 -46.19169617 42.08802795 C-46.32179581 43.3248381 -46.45189545 44.56164825 -46.5859375 45.8359375 C-46.72767899 47.12604233 -46.86942047 48.41614716 -47.01545715 49.74534607 C-47.39834445 53.23233583 -47.77171347 56.7202845 -48.1432457 60.20849991 C-48.53043022 63.82800247 -48.92654103 67.44652829 -49.3215332 71.06518555 C-51.14410952 87.79968048 -52.91954036 104.53938528 -54.6496582 121.28369141 C-55.76051127 131.99097499 -57.02465249 142.67596006 -58.31820679 153.36248779 C-59.66885869 164.58015314 -60.73323206 175.80535935 -61.67852783 187.06375122 C-62.58324256 197.79581035 -63.6815257 208.49096596 -64.9375 219.1875 C-66.38871096 231.55366258 -67.74406657 243.9249067 -69 256.3125 C-69.16437033 257.9296893 -69.32875833 259.5468768 -69.49316406 261.1640625 C-69.74110429 263.60465625 -69.9889101 266.04526342 -70.23641968 268.48590088 C-71.12119398 277.20726301 -72.01540854 285.92761825 -72.92358398 294.64657593 C-73.09818907 296.32763447 -73.27170879 298.00880614 -73.4440918 299.69009399 C-73.68269022 302.01634097 -73.92488506 304.3421868 -74.16796875 306.66796875 C-74.23759323 307.35462616 -74.30721771 308.04128357 -74.37895203 308.74874878 C-74.63758128 311.19500936 -74.89556025 313.58654448 -75.49880981 315.97468567 C-76.34508811 319.39450435 -76.5562 322.90592569 -76.88671875 326.40625 C-76.97120773 327.27511841 -77.05569672 328.14398682 -77.14274597 329.03918457 C-77.43202489 332.02579485 -77.71635487 335.01284959 -78 338 C-78.2143194 340.24609719 -78.42867629 342.49219081 -78.64306641 344.73828125 C-78.99222457 348.4012715 -79.34112013 352.0642864 -79.68960571 355.7273407 C-82.27170637 382.85382031 -85.00640055 409.95023962 -88.19450378 437.01351929 C-89.20756722 445.66738147 -90.10671671 454.33308322 -91 463 C-94.24871916 463.67301289 -97.49916379 464.3372951 -100.75 465 C-102.13058594 465.28617188 -102.13058594 465.28617188 -103.5390625 465.578125 C-104.87324219 465.84882812 -104.87324219 465.84882812 -106.234375 466.125 C-107.05131836 466.29257812 -107.86826172 466.46015625 -108.70996094 466.6328125 C-111 467 -111 467 -115 467 C-114.88304427 464.4577518 -114.75645743 461.91651036 -114.625 459.375 C-114.5940625 458.68148438 -114.563125 457.98796875 -114.53125 457.2734375 C-114.28322463 452.64363057 -113.75192994 448.11665317 -113.0625 443.53125 C-111.81098162 435.08947954 -111.08833153 426.62523227 -110.375 418.125 C-110.23994372 416.55075029 -110.10452898 414.97653129 -109.96875 413.40234375 C-109.64171663 409.60190241 -109.31947797 405.80108362 -109 402 C-108.39091797 401.88390381 -107.78183594 401.76780762 -107.15429688 401.64819336 C-105.94870117 401.4027478 -105.94870117 401.4027478 -104.71875 401.15234375 C-103.52668945 400.91632446 -103.52668945 400.91632446 -102.31054688 400.67553711 C-98.60779578 399.59295973 -96.68099687 397.74802179 -94 395 C-92.64511828 390.93535485 -92.46237445 387.25014789 -93 383 C-94.6731975 379.61377224 -94.6731975 379.61377224 -97 377 C-97.45375 376.443125 -97.9075 375.88625 -98.375 375.3125 C-100.69786746 373.43633782 -103.32617602 372.3080837 -106 371 C-105.59874767 359.81713007 -104.99049905 348.78003352 -103.46875 337.69140625 C-102.87929777 333.04946996 -102.58902164 328.41185567 -102.29467773 323.74365234 C-102.00136639 320.01735889 -101.55812977 316.34173712 -101.06640625 312.63671875 C-99.95757328 304.04724472 -99.1770867 295.44036018 -98.4375 286.8125 C-98.18940032 283.92288716 -97.93755916 281.03363374 -97.68359375 278.14453125 C-97.57587646 276.89003174 -97.46815918 275.63553223 -97.35717773 274.34301758 C-97 271 -97 271 -96.50268555 268.51416016 C-95.84777861 265.23867125 -95.56331014 261.95188689 -95.2734375 258.62890625 C-95.20525314 257.87253372 -95.13706879 257.11616119 -95.06681824 256.33686829 C-94.91525304 254.65118056 -94.76496499 252.96537765 -94.61575317 251.27947998 C-94.36779003 248.48113309 -94.11579353 245.68317172 -93.86303711 242.88525391 C-92.89256863 232.11549576 -91.94133615 221.34410289 -90.99980545 210.57178402 C-90.19263478 201.33905676 -89.37967583 192.10684696 -88.5625 182.875 C-88.48702187 182.02146564 -88.41154373 181.16793129 -88.33377838 180.28853226 C-86.49414793 159.50784288 -84.56132895 138.76407557 -81.94177246 118.06439209 C-79.7557173 100.77777448 -78.38074253 83.45823634 -77.14782715 66.08056641 C-76.75508032 60.55292233 -76.35006008 55.02619763 -75.9375 49.5 C-75.82027588 47.92557129 -75.82027588 47.92557129 -75.70068359 46.31933594 C-75.20020377 39.86472668 -74.46571553 33.52166056 -73.43359375 27.12890625 C-72.7682535 22.32766716 -72.55861405 17.50778148 -72.34375 12.66796875 C-72.2303125 11.78753906 -72.116875 10.90710938 -72 10 C-69.78369736 8.89184868 -68.23583725 8.72904336 -65.77587891 8.4909668 C-64.46147324 8.3602906 -64.46147324 8.3602906 -63.12051392 8.22697449 C-62.16550995 8.13531509 -61.21050598 8.0436557 -60.2265625 7.94921875 C-58.18225771 7.74317517 -56.13798807 7.53678256 -54.09375 7.33007812 C-50.88937738 7.01027126 -47.68480658 6.69328848 -44.47949219 6.38305664 C-31.74780328 5.1436445 -19.30692788 3.50434467 -6.80224609 0.78051758 C-3 0 -3 0 0 0 Z " fill="#51AAC2" transform="translate(663,256)"/>
<path d="M0 0 C8.58 0 17.16 0 26 0 C27.12524824 7.87673765 27.12524824 7.87673765 27.26538086 11.48901367 C27.29896698 12.31267929 27.3325531 13.13634491 27.36715698 13.98497009 C27.39939362 14.87035965 27.43163025 15.75574921 27.46484375 16.66796875 C27.50239777 17.62760025 27.53995178 18.58723175 27.5786438 19.57594299 C27.70238946 22.77965294 27.82018672 25.98354847 27.9375 29.1875 C28.00044754 30.85564758 28.00044754 30.85564758 28.06466675 32.55749512 C28.92791036 55.44345089 29.60626177 78.33491949 30.24355316 101.22812557 C30.33992075 104.68856567 30.4372896 108.148977 30.53515625 111.609375 C30.55401508 112.27840914 30.57287392 112.94744328 30.59230423 113.63675117 C30.83792804 122.2822672 31.14695381 130.92209426 31.53125 139.5625 C31.99964482 150.12722098 32.21929064 160.68742086 32.38815308 171.26062012 C32.63875354 186.44170795 33.00829584 201.59439745 33.9375 216.75 C34.75461123 230.16277981 35.37849238 243.57141567 35.875 257 C36.03882172 261.40105065 36.20296438 265.80208931 36.3671875 270.203125 C36.41293411 271.43107788 36.45868073 272.65903076 36.5058136 273.92419434 C37.21938608 292.98251691 37.97801094 312.03910063 38.73590088 331.09570312 C38.90966289 335.46740475 39.08230495 339.83914814 39.25384521 344.2109375 C39.50029006 350.48967466 39.7490318 356.76831702 40 363.046875 C40.04054756 364.06243973 40.08109512 365.07800446 40.1228714 366.12434387 C40.55474735 376.87914181 41.0156978 387.63140878 41.56591797 398.38085938 C41.63553679 399.74236807 41.63553679 399.74236807 41.70656204 401.13138199 C41.9239392 405.35156519 42.14712897 409.57133431 42.37963867 413.79071045 C43.13838912 427.86816774 43.20074174 441.90346926 43 456 C36.4 456 29.8 456 23 456 C20.60834477 431.8459784 19.44105776 407.68246796 18.5 383.4375 C17.71990473 363.35495839 16.91800784 343.29605737 15.4375 323.25 C14.39036701 309.00560045 13.52180087 294.7686844 12.875 280.5 C12.83647919 279.67278442 12.79795837 278.84556885 12.75827026 277.99328613 C12.352794 269.19894662 12.02294349 260.4062582 11.82910156 251.60449219 C11.22546719 224.67954926 9.73808637 197.81594316 8.20825195 170.9296875 C7.92729794 165.96539806 7.65224429 161.00078852 7.37722778 156.03616714 C7.11003316 151.22161614 6.84000535 146.40722749 6.56903076 141.59288788 C6.44077113 139.31084784 6.31319566 137.02876923 6.18634033 134.7466507 C6.00980226 131.58126235 5.82963618 128.4161011 5.6484375 125.25097656 C5.59749939 124.32641663 5.54656128 123.40185669 5.49407959 122.44927979 C5.2655272 118.51558549 4.98512707 114.61772354 4.47605896 110.70959473 C4.07415603 107.57784614 3.83093799 104.54748315 3.73461914 101.39550781 C3.68424751 99.84879143 3.68424751 99.84879143 3.63285828 98.27082825 C3.60061661 97.17598618 3.56837494 96.0811441 3.53515625 94.953125 C3.4576915 92.57022552 3.38004822 90.18733184 3.30224609 87.80444336 C3.26315125 86.56918915 3.2240564 85.33393494 3.18377686 84.06124878 C2.62844832 66.60948355 2.05841626 49.19606074 0.61401367 31.79296875 C-0.23160602 21.1791028 -0.136475 10.64504993 0 0 Z " fill="#FBFEF2" transform="translate(448,269)"/>
<path d="M0 0 C29.34541547 0.9874945 29.34541547 0.9874945 41 2 C41 2.33 41 2.66 41 3 C35.06 3 29.12 3 23 3 C23.24608458 7.86933314 23.49261684 12.73863881 23.74050903 17.60787964 C23.83038061 19.37343701 23.92012203 21.13900102 24.00973511 22.90457153 C24.49398854 32.43147016 24.98792159 41.95740268 25.54296875 51.48046875 C25.71639981 54.46613117 25.88968756 57.45180171 26.0625 60.4375 C26.12602158 61.53408936 26.12602158 61.53408936 26.19082642 62.65283203 C26.89991509 75.01401392 27.36542937 87.37376588 27.65844727 99.75170898 C27.70569946 101.59937866 27.70569946 101.59937866 27.75390625 103.484375 C27.77783447 104.55397461 27.8017627 105.62357422 27.82641602 106.72558594 C27.96021772 110.05649932 27.96021772 110.05649932 28.47032166 113.56396484 C29.09336777 118.4485711 29.37765152 123.33603434 29.6484375 128.25097656 C29.70549866 129.24770386 29.76255981 130.24443115 29.8213501 131.2713623 C30.00880539 134.56095941 30.19212798 137.85077013 30.375 141.140625 C30.50560195 143.46434045 30.63630036 145.78805047 30.76708984 148.11175537 C31.04133119 152.99724879 31.31334007 157.88286074 31.58398438 162.76855469 C31.85776528 167.70626239 32.13508173 172.64374884 32.41601562 177.58105469 C33.95039738 204.55453128 35.32664627 231.49890504 35.91693115 258.51037598 C36.10540712 266.42802851 36.44538721 274.33892114 36.8125 282.25 C36.85157471 283.1160083 36.89064941 283.9820166 36.9309082 284.87426758 C37.76184615 303.11779258 38.9503079 321.33806175 40.1338768 339.5612793 C41.54296345 361.26522332 42.59856502 382.96007622 43.34716797 404.69824219 C43.81497503 418.13962603 44.52647719 431.51622002 45.6328125 444.921875 C45.98540145 449.2991775 46.07282414 453.60974469 46 458 C30.25512528 458.18451025 30.25512528 458.18451025 23 457 C23.66 456.67 24.32 456.34 25 456 C24.87939209 454.43717285 24.87939209 454.43717285 24.75634766 452.84277344 C23.0134428 430.09835555 21.57846504 407.36615605 20.64697266 384.57324219 C20.57484092 382.82225338 20.50242147 381.0712764 20.4296875 379.3203125 C20.39518494 378.48940094 20.36068237 377.65848938 20.32513428 376.80239868 C20.09066961 371.4160538 19.70319124 366.05962879 19.21435547 360.68994141 C18.82805763 355.84229951 18.75244739 350.98504316 18.625 346.125 C18.19393064 332.00355978 17.25010693 317.9271298 16.29354858 303.83312988 C15.45915531 291.50622744 14.72682767 279.20280343 14.34375 266.85253906 C14.09880193 259.42326399 13.58168927 252.03487469 13 244.625 C12.15322929 233.74801946 11.74649552 222.90280779 11.5 212 C11.23253292 200.28080338 10.72681874 188.63578472 9.80078125 176.94628906 C8.9925877 166.55565364 8.48839971 156.15941711 8 145.75 C7.50867893 135.31288353 6.99807307 124.90332944 6 114.5 C4.80729438 101.83168819 4.43108073 89.12595713 3.94439697 76.41558838 C3.23304663 57.97598 2.18194019 39.57095034 0.96508789 21.15820312 C0.90113327 20.18424591 0.83717865 19.2102887 0.77128601 18.20681763 C0.65172326 16.39521604 0.53021466 14.58374133 0.40632629 12.77243042 C0.12260523 8.50503783 -0.06496846 4.28012243 0 0 Z " fill="#9ADEE6" transform="translate(425,266)"/>
<path d="M0 0 C7.46686375 0.89293491 14.8596936 2.1060347 22.26318359 3.41918945 C23.75348754 3.681237 25.24471564 3.93808237 26.73681641 4.18969727 C45.29051149 7.32142389 45.29051149 7.32142389 50.875 12.859375 C53.84845069 17.85642407 54.84472821 21.18076121 54 27 C51.13867025 32.51070915 47.48511621 35.96409932 41.75 38.35473633 C30.63124296 41.80835546 19.489613 43.87849273 8 45.6875 C6.18473326 45.98403256 4.369628 46.2815553 2.5546875 46.58007812 C-13.9435793 49.27002918 -30.37580912 51.23636225 -47.05273438 52.37768555 C-49.73343933 52.56136528 -52.4135967 52.75181474 -55.09375 52.94335938 C-56.8697636 53.06810849 -58.64580451 53.19246962 -60.421875 53.31640625 C-61.18715515 53.37059219 -61.9524353 53.42477814 -62.74090576 53.48060608 C-65.49323019 53.66764718 -68.24619833 53.83599329 -71 54 C-72.00530447 54.06162858 -72.00530447 54.06162858 -73.03091812 54.12450218 C-87.01262832 54.96504634 -100.95646168 55.1631953 -114.9609375 55.16796875 C-117.24354064 55.17119951 -119.52614358 55.17456477 -121.80874634 55.17805481 C-126.58067298 55.18400268 -131.35258164 55.18589973 -136.12451172 55.18530273 C-140.91166022 55.18522229 -145.69871135 55.19203974 -150.48583984 55.20581055 C-189.09771403 55.31502513 -227.81606943 55.09445233 -266.28027344 51.30493164 C-268.86017715 51.05168486 -271.44146793 50.8190515 -274.0234375 50.58789062 C-312.31512004 47.05051321 -312.31512004 47.05051321 -319.0625 39.875 C-323.10327436 35.97819622 -328.10085412 36.28500242 -333.40258789 36.22607422 C-337.16081068 36.18401291 -338.78344821 36.14436786 -342 34 C-341.29901695 34.0018986 -340.59803391 34.0037972 -339.87580895 34.00575334 C-298.35715609 34.11757181 -256.83852066 34.20339635 -215.31974758 34.25532665 C-210.33783928 34.2615804 -205.35593128 34.26805199 -200.37402344 34.2746582 C-199.38218857 34.27596976 -198.39035371 34.27728131 -197.36846325 34.2786326 C-181.29533338 34.30040674 -165.22229266 34.3398393 -149.14921573 34.38576398 C-132.66458108 34.43247279 -116.17999321 34.46028358 -99.6952951 34.47044247 C-89.51808007 34.47731322 -79.34111699 34.4990366 -69.1639795 34.53958233 C-62.19116977 34.56595192 -55.21849084 34.57401416 -48.24563482 34.56750689 C-44.21873644 34.56429493 -40.1922792 34.56932011 -36.16545868 34.59602737 C-32.48143881 34.62028342 -28.79815846 34.6216384 -25.11410519 34.60449447 C-23.14462518 34.60136722 -21.17515439 34.62300117 -19.20579934 34.64540654 C-18.04134782 34.6354513 -16.87689629 34.62549606 -15.67715836 34.61523914 C-14.67014004 34.61713775 -13.66312172 34.61903635 -12.6255877 34.62099248 C-8.99117859 33.76139799 -7.97162251 32.09006414 -6 29 C-4.83414809 25.58905085 -4.83414809 25.58905085 -5 22 C-6.79433653 18.59722188 -6.79433653 18.59722188 -9 16 C-7.88625 15.54625 -6.7725 15.0925 -5.625 14.625 C-2.03800992 13.27534014 -2.03800992 13.27534014 0 11 C0.24315656 8.33050591 0.24315656 8.33050591 0.125 5.375 C0.10695313 4.37210938 0.08890625 3.36921875 0.0703125 2.3359375 C0.04710937 1.56507813 0.02390625 0.79421875 0 0 Z " fill="#4EA8C1" transform="translate(747,795)"/>
<path d="M0 0 C0.70825928 0.29326172 1.41651855 0.58652344 2.14624023 0.88867188 C4.95853414 2.04386511 4.95853414 2.04386511 7.80883789 2.75195312 C11.40012973 4.04837289 13.37888694 5.18447675 16 8 C18.37036312 14.77814696 18.15774121 22.39931823 18.4375 29.5 C18.59148407 32.46642247 18.76053342 35.4309073 18.94825745 38.39538574 C19.06087551 40.23505607 19.15222555 42.07619033 19.21910095 43.91809082 C19.53527004 49.92404501 20.64151317 53.64151317 25 58 C26.96207724 58.31608345 26.96207724 58.31608345 29.25 58.375 C30.01828125 58.42398438 30.7865625 58.47296875 31.578125 58.5234375 C35.30110229 57.71879402 36.72430411 55.99034425 39 53 C39.64129146 49.53639129 39.64129146 49.53639129 39.375 45.8125 C39.3450293 44.81077759 39.3450293 44.81077759 39.31445312 43.78881836 C39.15841877 39.42038363 38.74543112 35.09854123 38.22265625 30.76171875 C37.72022301 24.5297836 37.93023968 18.24742447 38 12 C38.57105469 12.11069824 39.14210938 12.22139648 39.73046875 12.33544922 C68.48434014 17.82679866 96.78156147 18.42332029 126 19 C126 37.81 126 56.62 126 76 C99.11818468 76.24065286 99.11818468 76.24065286 87.64453125 76.29296875 C79.82055192 76.32881263 71.99699457 76.37117981 64.17333984 76.45263672 C57.86446514 76.51790999 51.55604305 76.55372375 45.24685669 76.56926346 C42.84189734 76.58033524 40.4369623 76.60195616 38.03219604 76.63438034 C34.65894372 76.67804705 31.28755276 76.68392947 27.9140625 76.68115234 C26.92359421 76.702724 25.93312592 76.72429565 24.91264343 76.746521 C18.83954526 76.69255196 15.31879109 75.54151054 10.59709167 71.68375587 C2.78903767 63.4520075 3.66667151 49.37088922 2.8125 38.75 C2.56769579 35.88277591 2.318579 33.01595906 2.06803894 30.14923096 C1.91454927 28.37547109 1.76516586 26.60134945 1.62055969 24.82684326 C1.26147977 20.50193106 0.74401029 16.2792592 0 12 C-0.06460219 9.87588004 -0.08611079 7.74997095 -0.0625 5.625 C-0.05347656 4.56539062 -0.04445313 3.50578125 -0.03515625 2.4140625 C-0.01775391 1.21910156 -0.01775391 1.21910156 0 0 Z " fill="#FBFCF1" transform="translate(391,730)"/>
<path d="M0 0 C-0.74855364 10.94432526 -1.79550875 21.85777667 -2.93701172 32.76733398 C-3.14650779 34.80559022 -3.34794445 36.84469016 -3.54150391 38.88452148 C-3.82573092 41.86938277 -4.13668077 44.85043423 -4.453125 47.83203125 C-4.53355042 48.73427933 -4.61397583 49.6365274 -4.69683838 50.56611633 C-5.55834846 58.22939329 -8.39104166 63.26969476 -13.6875 68.8125 C-22.87088876 74.87700201 -33.06004191 74.41637656 -43.64892578 74.34057617 C-45.3154041 74.33972864 -46.98188354 74.3402075 -48.64836121 74.34190369 C-53.14565912 74.34276015 -57.64271423 74.32519126 -62.139956 74.30418181 C-66.84979153 74.28535651 -71.55963338 74.28365997 -76.26950073 74.28010559 C-85.17633683 74.27080226 -94.08306172 74.24621177 -102.98984897 74.21605712 C-113.13497493 74.18245966 -123.28010635 74.16601369 -133.42527413 74.15097082 C-154.28357802 74.11966062 -175.14178199 74.06693359 -196 74 C-196 73.67 -196 73.34 -196 73 C-161.02 73 -126.04 73 -90 73 C-90 54.19 -90 35.38 -90 16 C-85.524375 15.608125 -81.04875 15.21625 -76.4375 14.8125 C-52.86961314 12.59706063 -28.94739298 9.96156852 -6.74609375 1.3515625 C-3 0 -3 0 0 0 Z " fill="#4EA7BF" transform="translate(607,733)"/>
<path d="M0 0 C2.6657661 0.00502731 5.33151733 0.00649659 7.99728775 0.00745392 C34.2750887 0.02755742 60.38634147 0.61352647 86.56341934 3.10132599 C89.12409235 3.3343837 91.68611424 3.53789934 94.24957657 3.73786163 C106.93683248 4.75597519 119.31220292 6.5752285 131.81305313 8.94245148 C133.59153091 9.27148612 135.37017681 9.59961338 137.14899063 9.92682648 C141.41400563 10.71334538 145.67661451 11.51179035 149.93805313 12.31745148 C143.17486782 19.08063679 124.87855452 18.67820748 115.66461563 19.80963898 C114.11175858 20.0005587 114.11175858 20.0005587 112.52753067 20.19533539 C50.08770676 27.72410948 -14.03602456 27.96526077 -76.67406845 22.51990509 C-79.77366965 22.25710885 -82.875208 22.02483296 -85.97723007 21.79270172 C-132.0690938 18.31030455 -132.0690938 18.31030455 -138.06194687 12.31745148 C-133.21737806 10.85848447 -128.40675179 9.73485622 -123.41741562 8.87995148 C-122.69917114 8.75489227 -121.98092667 8.62983307 -121.24091721 8.50098419 C-118.91154683 8.09951158 -116.58086732 7.706836 -114.24944687 7.31745148 C-113.04403244 7.11569305 -113.04403244 7.11569305 -111.8142662 6.9098587 C-99.88160417 4.93183718 -88.02932406 3.39989171 -75.94280624 2.72638702 C-71.36232225 2.46267128 -66.78752178 2.15778455 -62.21209335 1.81769562 C-41.46476438 0.32061682 -20.79659827 -0.0429743 0 0 Z " fill="#97D9E5" transform="translate(497.0619468688965,220.68254852294922)"/>
<path d="M0 0 C0.64044297 5.72860711 1.12391248 11.35222709 1.0625 17.125 C1.05347656 18.24132812 1.04445313 19.35765625 1.03515625 20.5078125 C1.02355469 21.33023438 1.01195312 22.15265625 1 23 C-34.92964126 24.0660443 -76.34598202 22.92986362 -111 13 C-111.66 12.34 -112.32 11.68 -113 11 C-108.15543877 9.54103528 -103.34481117 8.41734039 -98.35546875 7.5625 C-97.63649918 7.43739548 -96.9175296 7.31229095 -96.17677307 7.18339539 C-93.84809612 6.78223459 -91.51812109 6.38970014 -89.1875 6 C-87.99006165 5.79874008 -87.99006165 5.79874008 -86.76843262 5.59341431 C-73.41285772 3.36876513 -60.13410072 1.87191506 -46.60644531 1.14697266 C-44.34525733 1.01946843 -42.09259771 0.85742091 -39.8359375 0.66796875 C-26.58434429 -0.37820966 -13.28268818 -0.09099649 0 0 Z " fill="#C6E1E1" transform="translate(472,222)"/>
<path d="M0 0 C10.23 0 20.46 0 31 0 C31 18.81 31 37.62 31 57 C20.11 57 9.22 57 -2 57 C-0.35 55.68 1.3 54.36 3 53 C6.54677566 47.80650706 7.16300068 43.59768155 7.125 37.4375 C7.12209961 36.29015381 7.12209961 36.29015381 7.11914062 35.11962891 C7.03882997 23.74005521 6.49665112 12.36749873 6 1 C4.02 1 2.04 1 0 1 C0 0.67 0 0.34 0 0 Z " fill="#98DBE4" transform="translate(486,749)"/>
<path d="M0 0 C4.87694929 3.63177074 6.6264785 7.47682416 7.50244141 13.39404297 C7.61765137 14.66393066 7.73286133 15.93381836 7.8515625 17.2421875 C7.91532074 17.92878448 7.97907898 18.61538147 8.04476929 19.32278442 C8.17763789 20.76971506 8.30685409 22.21698524 8.43261719 23.66455078 C8.62385462 25.86183973 8.8265523 28.05783453 9.03125 30.25390625 C10.62592175 47.81521955 10.62592175 47.81521955 8.25 52.3125 C5.04586487 56.13966141 3.4836867 56.81116715 -1.4375 57.4375 C-5 57 -5 57 -7.8125 55.125 C-12.62292067 48.25297046 -12.60040227 38.29041661 -13.625 30.125 C-13.7590625 29.12597656 -13.893125 28.12695312 -14.03125 27.09765625 C-16.39845907 8.37738042 -16.39845907 8.37738042 -13.125 2.8125 C-9.08976091 -0.62932158 -5.14904314 -0.79284574 0 0 Z " fill="#132D4C" transform="translate(381,338)"/>
<path d="M0 0 C4.03958905 0.83648056 6.67835183 2.01029907 9.4375 5.1875 C11.34023747 10.66401374 12.02947368 16.05746423 12.5625 21.8125 C12.6445166 22.69043213 12.7265332 23.56836426 12.81103516 24.47290039 C14.50618383 43.61965727 14.50618383 43.61965727 11.5390625 47.97265625 C8.75028883 50.91175415 7.07093982 51.40614956 3.125 51.625 C-0.63683087 51.55242448 -1.39158584 51.32204945 -4.5 48.875 C-7.50880236 44.39270881 -7.96441241 39.44834815 -8.5625 34.1875 C-8.69567627 33.02686035 -8.69567627 33.02686035 -8.83154297 31.84277344 C-11.39750659 9.07363253 -11.39750659 9.07363253 -9.56640625 4.9375 C-6.62701942 1.36881355 -4.77720223 -0.3435112 0 0 Z " fill="#0E2B4A" transform="translate(386.5625,429.8125)"/>
<path d="M0 0 C0.495 8.415 0.495 8.415 1 17 C-17.45907753 17.55377233 -36.04311412 15.69799404 -54.125 11.9375 C-54.90593018 11.77540039 -55.68686035 11.61330078 -56.49145508 11.44628906 C-61.73193841 10.26806159 -61.73193841 10.26806159 -64 8 C-59.09943899 6.52593795 -54.22145169 5.38269132 -49.1796875 4.4921875 C-48.44632172 4.36156921 -47.71295593 4.23095093 -46.95736694 4.09637451 C-44.59783338 3.68156007 -42.23683271 3.27650797 -39.875 2.875 C-39.07396851 2.7379364 -38.27293701 2.6008728 -37.44763184 2.45965576 C-24.78843061 0.32294392 -12.87149988 -0.58506818 0 0 Z " fill="#F6F6EE" transform="translate(423,225)"/>
<path d="M0 0 C3.22672851 1.64380509 5.36137225 2.85570114 7.14453125 6.05078125 C8.35358477 10.21897945 8.36838547 14.18071329 8.375 18.5 C8.39949219 19.34175781 8.42398437 20.18351562 8.44921875 21.05078125 C8.46891724 25.22029434 8.36159688 27.42263543 6.1015625 31.03125 C2.84506271 34.08194869 0.50849167 34.36304791 -3.96484375 34.265625 C-7.41000924 33.81596808 -8.801621 32.65098644 -11 30 C-12.97675872 24.35211793 -13.28533653 18.70640334 -13.5 12.75 C-13.54294189 12.06454102 -13.58588379 11.37908203 -13.63012695 10.67285156 C-13.66667377 7.87343354 -13.52538932 5.66341706 -11.75195312 3.42407227 C-7.8282483 -0.0201911 -5.13545218 -0.82534053 0 0 Z " fill="#112D4D" transform="translate(374,281)"/>
<path d="M0 0 C11.29972045 0.49613584 22.21537581 2.49898098 33.3125 4.5625 C35.13205032 4.89578959 36.95171119 5.22847625 38.77148438 5.56054688 C43.18229313 6.36676198 47.59153159 7.18108847 52 8 C49.78531585 10.21468415 49.03029098 10.3917373 46.0546875 10.96484375 C45.23637451 11.1237207 44.41806152 11.28259766 43.57495117 11.44628906 C42.23847534 11.68943848 42.23847534 11.68943848 40.875 11.9375 C39.95372314 12.10862305 39.03244629 12.27974609 38.08325195 12.45605469 C30.81156051 13.76411877 23.51623972 14.81812999 16.1875 15.75 C14.69549072 15.94130493 14.69549072 15.94130493 13.17333984 16.13647461 C7.73750756 16.79303174 2.47467374 17.12957808 -3 17 C-2.69188262 14.54104382 -2.37871012 12.08291693 -2.0625 9.625 C-1.97548828 8.92632812 -1.88847656 8.22765625 -1.79882812 7.5078125 C-1.11328125 2.2265625 -1.11328125 2.2265625 0 0 Z " fill="#58ADC4" transform="translate(595,225)"/>
<path d="M0 0 C8.58 0 17.16 0 26 0 C26.020625 3.279375 26.04125 6.55875 26.0625 9.9375 C26.071604 10.97253662 26.08070801 12.00757324 26.09008789 13.07397461 C26.09258545 13.88358643 26.09508301 14.69319824 26.09765625 15.52734375 C26.10551147 16.77632446 26.10551147 16.77632446 26.11352539 18.05053711 C26 20 26 20 25 21 C23.29227642 21.08713831 21.58101351 21.10700007 19.87109375 21.09765625 C18.31938477 21.09282227 18.31938477 21.09282227 16.73632812 21.08789062 C15.64771484 21.07951172 14.55910156 21.07113281 13.4375 21.0625 C11.7987793 21.05573242 11.7987793 21.05573242 10.12695312 21.04882812 C7.41791505 21.03699826 4.70898401 21.02051543 2 21 C1.66280953 18.43795456 1.33012847 15.87545682 1 13.3125 C0.90460938 12.59126953 0.80921875 11.87003906 0.7109375 11.12695312 C0.62070312 10.42119141 0.53046875 9.71542969 0.4375 8.98828125 C0.35371094 8.34415283 0.26992188 7.70002441 0.18359375 7.03637695 C-0.0270834 4.69959751 0 2.34625724 0 0 Z " fill="#FCFEF1" transform="translate(445,223)"/>
<path d="M0 0 C0.74636719 -0.01095703 1.49273437 -0.02191406 2.26171875 -0.03320312 C6.07300552 0.01738918 8.14324677 0.35365749 11.49609375 2.31640625 C14.3209579 5.48267698 14.1546847 7.36406666 13.93359375 11.4375 C13.31336094 14.47719955 11.99683357 15.80002924 9.5 17.5625 C6.36941914 19.12779043 3.05920992 18.82941314 -0.375 18.875 C-1.09558594 18.90400391 -1.81617188 18.93300781 -2.55859375 18.96289062 C-6.02306559 19.0043622 -8.08715665 18.85710502 -10.94140625 16.8203125 C-12.57752563 14.45019471 -13.21293136 12.96586061 -13.5625 10.125 C-13.67722656 9.38378906 -13.79195313 8.64257812 -13.91015625 7.87890625 C-12.57649105 0.34687327 -6.29250883 -0.20105598 0 0 Z " fill="#0F304A" transform="translate(347.5,810.4375)"/>
<path d="M0 0 C3.375 2 3.375 2 5 5 C6.00876113 9.31332343 5.47965851 12.11447659 3.375 16 C-1.98809474 19.17813022 -7.92389312 19.0501019 -14 18 C-16.75818156 16.02218201 -17.80677655 14.88655465 -18.53125 11.5625 C-18.5209375 10.716875 -18.510625 9.87125 -18.5 9 C-18.5103125 8.154375 -18.520625 7.30875 -18.53125 6.4375 C-16.59164872 -2.46184706 -7.14659553 -0.95344191 0 0 Z " fill="#12304E" transform="translate(304,811)"/>
<path d="M0 0 C0.99 0 1.98 0 3 0 C2.99419922 0.88051025 2.98839844 1.76102051 2.98242188 2.66821289 C2.94612963 12.60127123 3.17272274 22.51045572 3.5 32.4375 C3.54839367 33.9589775 3.59657173 35.48046188 3.64453125 37.00195312 C3.76054878 40.66805093 3.87943691 44.33404852 4 48 C3.34 48 2.68 48 2 48 C1.731875 48.598125 1.46375 49.19625 1.1875 49.8125 C-0.03585242 52.06604393 -0.97960332 53.42858036 -3 55 C-5.6875 55.6875 -5.6875 55.6875 -8 56 C-7.236875 55.443125 -6.47375 54.88625 -5.6875 54.3125 C-2.14840577 51.26723287 -0.46588455 48.39765364 1 44 C1.10141655 41.4675692 1.14062079 38.96974149 1.125 36.4375 C1.12209961 35.29015381 1.12209961 35.29015381 1.11914062 34.11962891 C1.03882997 22.74005521 0.49665112 11.36749873 0 0 Z " fill="#A8D9DB" transform="translate(492,750)"/>
<path d="M0 0 C3.96 0 7.92 0 12 0 C12.92185244 7.72051417 13.08273284 15.22311343 13 23 C5.41 23 -2.18 23 -10 23 C-10 22.67 -10 22.34 -10 22 C-0.1 21.505 -0.1 21.505 10 21 C10.33 14.4 10.66 7.8 11 1 C7.37 1 3.74 1 0 1 C0 0.67 0 0.34 0 0 Z " fill="#DCEDEC" transform="translate(460,222)"/>
<path d="M0 0 C0.33 0 0.66 0 1 0 C1.33970765 2.49927769 1.67188032 4.99919595 2 7.5 C2.09539062 8.19609375 2.19078125 8.8921875 2.2890625 9.609375 C2.9161622 14.44700129 3.08789528 19.12181196 3 24 C2.34 24 1.68 24 1 24 C0.09516363 18.63510405 -0.12303662 13.49682543 -0.0625 8.0625 C-0.05798828 7.28326172 -0.05347656 6.50402344 -0.04882812 5.70117188 C-0.03716908 3.80074732 -0.01923877 1.90036294 0 0 Z " fill="#2E3E52" transform="translate(405,516)"/>
<path d="M0 0 C2.62416633 3.93624949 1.8258757 5.42014384 1 10 C0.84980875 11.45789096 0.7039245 12.91623251 0.5625 14.375 C0.376875 15.57125 0.19125 16.7675 0 18 C-0.66 18.33 -1.32 18.66 -2 19 C-1.85982174 16.02046641 -1.71313658 13.04150696 -1.5625 10.0625 C-1.52318359 9.21236328 -1.48386719 8.36222656 -1.44335938 7.48632812 C-1.40146484 6.67744141 -1.35957031 5.86855469 -1.31640625 5.03515625 C-1.27974854 4.2862915 -1.24309082 3.53742676 -1.20532227 2.76586914 C-1 1 -1 1 0 0 Z " fill="#91C8D7" transform="translate(646,609)"/>
<path d="M0 0 C0.66 0 1.32 0 2 0 C2.05449838 1.72880982 2.09301688 3.45812712 2.125 5.1875 C2.14820313 6.15042969 2.17140625 7.11335937 2.1953125 8.10546875 C1.9913544 11.12812778 1.26874632 13.26769985 0 16 C-0.33 16 -0.66 16 -1 16 C-0.67 10.72 -0.34 5.44 0 0 Z " fill="#103D5C" transform="translate(631,524)"/>
<path d="M0 0 C0.33 0 0.66 0 1 0 C1.3690205 13.6332574 1.3690205 13.6332574 -1 20 C-1.33 20 -1.66 20 -2 20 C-1.85953745 17.04132082 -1.71287776 14.08317736 -1.5625 11.125 C-1.52318359 10.28324219 -1.48386719 9.44148438 -1.44335938 8.57421875 C-1.40146484 7.76855469 -1.35957031 6.96289062 -1.31640625 6.1328125 C-1.27974854 5.38918457 -1.24309082 4.64555664 -1.20532227 3.87939453 C-1 2 -1 2 0 0 Z " fill="#154664" transform="translate(602,432)"/>
<path d="M0 0 C-0.33 4.62 -0.66 9.24 -1 14 C-1.33 14 -1.66 14 -2 14 C-2 10.37 -2 6.74 -2 3 C-3.65 2.67 -5.3 2.34 -7 2 C-4.35261084 0.5393715 -3.10551666 0 0 0 Z " fill="#4F94AD" transform="translate(663,256)"/>
<path d="M0 0 C0.91007812 0.00902344 1.82015625 0.01804688 2.7578125 0.02734375 C3.45648438 0.03894531 4.15515625 0.05054688 4.875 0.0625 C4.545 1.0525 4.215 2.0425 3.875 3.0625 C2.41707116 3.11649736 0.95857288 3.15529177 -0.5 3.1875 C-1.31210937 3.21070313 -2.12421875 3.23390625 -2.9609375 3.2578125 C-5.125 3.0625 -5.125 3.0625 -7.125 1.0625 C-4.60024538 -0.19987731 -2.81299534 -0.03606404 0 0 Z " fill="#E0E8EB" transform="translate(366.125,231.9375)"/>
<path d="M0 0 C0.80179687 0.00451172 1.60359375 0.00902344 2.4296875 0.01367188 C4.41149006 0.02546832 6.39325433 0.04340395 8.375 0.0625 C8.375 0.3925 8.375 0.7225 8.375 1.0625 C7.25480469 1.11148438 6.13460938 1.16046875 4.98046875 1.2109375 C3.50778797 1.28597856 2.03513293 1.36152582 0.5625 1.4375 C-0.17548828 1.4684375 -0.91347656 1.499375 -1.67382812 1.53125 C-5.44393115 1.73596148 -7.42150741 1.92683827 -10.625 4.0625 C-10.625 3.0725 -10.625 2.0825 -10.625 1.0625 C-7.31505287 -0.59247356 -3.63377 -0.03834335 0 0 Z " fill="#94CDDC" transform="translate(346.625,809.9375)"/>
<path d="M0 0 C1 2 1 2 1 5 C1.66 5.33 2.32 5.66 3 6 C0.525 7.485 0.525 7.485 -2 9 C-2 6.36 -2 3.72 -2 1 C-1.34 0.67 -0.68 0.34 0 0 Z " fill="#5B9CB2" transform="translate(597,703)"/>
<path d="M0 0 C0 0.66 0 1.32 0 2 C-6.93 1.505 -6.93 1.505 -14 1 C-14 0.67 -14 0.34 -14 0 C-12.41773035 -0.19627391 -10.83410729 -0.38165538 -9.25 -0.5625 C-8.36828125 -0.66691406 -7.4865625 -0.77132812 -6.578125 -0.87890625 C-4.11567549 -0.99456676 -2.33461936 -0.73638695 0 0 Z " fill="#8FC5D5" transform="translate(626,203)"/>
<path d="M0 0 C2.05078125 0.03255208 4.1015625 0.06510417 6.15234375 0.09765625 C3.56308044 2.68691956 2.12529096 2.47163668 -1.47265625 2.72265625 C-2.47554687 2.79742187 -3.4784375 2.8721875 -4.51171875 2.94921875 C-5.66800781 3.02269531 -5.66800781 3.02269531 -6.84765625 3.09765625 C-6.20828125 2.78828125 -5.56890625 2.47890625 -4.91015625 2.16015625 C-0.79887576 0.04222388 -0.79887576 0.04222388 0 0 Z " fill="#73B2CC" transform="translate(640.84765625,232.90234375)"/>
<path d="M0 0 C4.29 0.33 8.58 0.66 13 1 C13 1.33 13 1.66 13 2 C12.22914063 2.06058594 11.45828125 2.12117187 10.6640625 2.18359375 C9.66117188 2.26738281 8.65828125 2.35117188 7.625 2.4375 C6.12839844 2.55931641 6.12839844 2.55931641 4.6015625 2.68359375 C2.02072387 2.84965626 2.02072387 2.84965626 0 4 C0 2.68 0 1.36 0 0 Z " fill="#4A8EA9" transform="translate(595,225)"/>
<path d="M0 0 C1.4606285 2.64738916 2 3.89448334 2 7 C1.67 7.33 1.34 7.66 1 8 C0.63239269 10.32817964 0.29758419 12.6618385 0 15 C-0.33 15 -0.66 15 -1 15 C-1.09038099 9.84828377 -0.84681133 5.08086796 0 0 Z " fill="#81B7C9" transform="translate(633,711)"/>
<path d="M0 0 C0.66 0 1.32 0 2 0 C3.35015859 4.05047576 2.62084998 6.7920168 2 11 C-0.32590854 7.36576791 -0.16265833 4.22911669 0 0 Z " fill="#20394B" transform="translate(376,437)"/>
<path d="M0 0 C2.1875 0.3125 2.1875 0.3125 4 1 C1.03 3.475 1.03 3.475 -2 6 C-2.33 5.01 -2.66 4.02 -3 3 C-1.75 1.4375 -1.75 1.4375 0 0 Z " fill="#0D273E" transform="translate(381,431)"/>
<path d="M0 0 C-1.45255699 3.82946843 -3.42895561 5.12050295 -7 7 C-3.86206897 0 -3.86206897 0 0 0 Z " fill="#0C3551" transform="translate(624,284)"/>
<path d="M0 0 C3.63 0.33 7.26 0.66 11 1 C7.29489954 2.85255023 5.93924189 3.5183213 2 3 C1.34 2.01 0.68 1.02 0 0 Z " fill="#C7D1D6" transform="translate(386,262)"/>
<path d="M0 0 C0.66 0.66 1.32 1.32 2 2 C1.34 2 0.68 2 0 2 C-0.268125 2.639375 -0.53625 3.27875 -0.8125 3.9375 C-2 6 -2 6 -5 7 C-3.70700306 4.11562221 -2.34058637 2.12780579 0 0 Z " fill="#0C3453" transform="translate(597,797)"/>
</svg>
