<?xml version="1.0" encoding="UTF-8"?>
<svg version="1.1" xmlns="http://www.w3.org/2000/svg" width="1024" height="1024">
<path d="M0 0 C337.92 0 675.84 0 1024 0 C1024 337.92 1024 675.84 1024 1024 C686.08 1024 348.16 1024 0 1024 C0 686.08 0 348.16 0 0 Z " fill="#72B7D4" transform="translate(0,0)"/>
<path d="M0 0 C1.25880331 -0.00698988 1.25880331 -0.00698988 2.543037 -0.01412097 C5.34984849 -0.02605408 8.15617443 -0.01668203 10.96298981 -0.00736332 C12.99772228 -0.01153696 15.03245242 -0.01701464 17.06717825 -0.02368313 C22.6546808 -0.03815226 28.24203603 -0.03388839 33.82954669 -0.02651632 C39.85689607 -0.02179066 45.88421331 -0.03428911 51.91155243 -0.04453373 C63.0352677 -0.06074392 74.15894435 -0.06316479 85.28266652 -0.05822874 C95.55906346 -0.05367094 105.83544292 -0.05427154 116.11183929 -0.06006908 C117.49048514 -0.06082595 118.86913099 -0.06158193 120.24777684 -0.06233703 C122.32528007 -0.06348222 124.40278329 -0.0646321 126.48028651 -0.06579627 C145.79312835 -0.07650025 165.10596437 -0.08122749 184.41880798 -0.07332611 C185.14672822 -0.07302894 185.87464845 -0.07273176 186.62462687 -0.07242559 C192.5358058 -0.06997666 198.44698465 -0.06736507 204.3581635 -0.06474145 C227.41954113 -0.05463732 250.48084596 -0.06299798 273.54221344 -0.086236 C299.45415503 -0.11230421 325.36605279 -0.12515787 351.27800798 -0.11804825 C354.04045899 -0.11733219 356.80291 -0.1166578 359.56536102 -0.1160078 C360.58563372 -0.11575309 360.58563372 -0.11575309 361.62651799 -0.11549323 C371.89625921 -0.11318978 382.16595974 -0.12116936 392.43569183 -0.13429928 C404.11328773 -0.14920257 415.79080486 -0.14968936 427.46840179 -0.13222837 C433.42784648 -0.1236958 439.38710892 -0.12162399 445.34654427 -0.13687992 C450.80057654 -0.1506694 456.25426946 -0.14603782 461.70828182 -0.12664068 C463.68259895 -0.12286274 465.65694289 -0.12585397 467.63123626 -0.13625234 C470.31363432 -0.14937698 472.99485324 -0.13787948 475.67720032 -0.12025452 C476.82865944 -0.13473028 476.82865944 -0.13473028 478.00338036 -0.14949849 C484.37266728 -0.06348927 489.70624973 1.86992848 494.36203766 6.31000423 C498.94503222 12.90633744 500.83169183 17.70468168 499.93454742 25.7899847 C498.94139047 30.10682013 496.51550981 32.78596822 493.58860016 36.00531673 C492.39795674 37.39026999 491.20786828 38.7757005 490.01828766 40.16156673 C489.10128082 41.20764095 489.10128082 41.20764095 488.1657486 42.27484798 C485.26493376 45.61752933 482.49257348 49.06129712 479.71360016 52.50531673 C479.17316071 53.16998959 478.63272125 53.83466244 478.07590485 54.51947689 C474.16129291 59.33664401 470.31666574 64.205126 466.49777985 69.09833431 C463.04467471 73.51181097 459.51357943 77.85706503 455.96360016 82.19281673 C451.42981425 87.73313813 447.03303736 93.35902684 442.71360016 99.06781673 C438.45867318 104.68447235 434.09013221 110.15312465 429.50217438 115.50043392 C421.13360685 125.2572098 413.13372171 135.32209791 405.21701813 145.44696712 C400.48698015 151.48841374 395.61106202 157.40718178 390.73313141 163.32953548 C388.97342674 165.46886184 387.21829365 167.61187918 385.46360016 169.75531673 C384.90366364 170.43384701 384.34372711 171.11237728 383.76682281 171.81146908 C381.48857572 174.59891443 379.41578202 177.24962212 377.58078766 180.35687923 C376.96590485 181.3584808 376.96590485 181.3584808 376.33860016 182.38031673 C375.67860016 182.38031673 375.01860016 182.38031673 374.33860016 182.38031673 C373.99635406 183.17115658 373.99635406 183.17115658 373.64719391 183.97797298 C371.8974772 187.19013948 369.6730998 189.966896 367.40110016 192.81781673 C366.91600983 193.43108822 366.43091949 194.0443597 365.93112946 194.67621517 C362.13251047 199.45036213 358.22054083 204.12099287 354.25925446 208.76044369 C350.85424287 212.75136872 347.55550732 216.81358449 344.29563141 220.92328548 C339.91171074 226.42724976 335.42918633 231.85319707 330.94406891 237.27484798 C327.62945738 241.29305864 324.34942638 245.27069611 321.40110016 249.56781673 C320.72047516 250.49594173 320.03985016 251.42406673 319.33860016 252.38031673 C318.67860016 252.38031673 318.01860016 252.38031673 317.33860016 252.38031673 C317.13879547 253.04289486 316.93899078 253.70547298 316.73313141 254.38812923 C314.79059657 258.55614516 311.97501342 261.75327768 309.02610016 265.25531673 C307.88212903 266.62600921 306.74017866 267.99839087 305.60031891 269.37250423 C305.04908356 270.03604916 304.49784821 270.69959408 303.92990875 271.38324642 C302.37648686 273.33276945 300.95493214 275.33287745 299.54563141 277.38812923 C298.8173111 278.37555111 298.08899078 279.36297298 297.33860016 280.38031673 C296.67860016 280.38031673 296.01860016 280.38031673 295.33860016 280.38031673 C295.00860016 281.70031673 294.67860016 283.02031673 294.33860016 284.38031673 C293.67860016 284.38031673 293.01860016 284.38031673 292.33860016 284.38031673 C292.06693024 284.96659847 291.79526031 285.55288021 291.51535797 286.15692806 C290.35590603 288.34761869 289.09879399 290.05840893 287.51047516 291.95453548 C286.95746735 292.62291439 286.40445953 293.2912933 285.83469391 293.97992611 C284.6866735 295.35267087 283.53824772 296.72507672 282.38938141 298.09711361 C281.27864537 299.44000117 280.18484003 300.7971101 279.11017799 302.16903687 C277.33860016 304.38031673 277.33860016 304.38031673 275.72521019 306.06223106 C269.15783426 313.85536857 270.50097723 323.70706134 270.56565094 333.3122015 C270.55747394 335.34307178 270.54666796 337.37393291 270.53343964 339.40477657 C270.50505828 344.90012636 270.51333782 350.3948755 270.52830744 355.89025521 C270.53769926 361.63984889 270.51322583 367.38929717 270.49237823 373.1388464 C270.45805785 384.01838747 270.45409764 394.89771829 270.46110332 405.77730268 C270.46759864 418.16669859 270.44015969 430.5559471 270.4099009 442.94529927 C270.34843321 468.42365348 270.32948086 493.90189691 270.33860016 519.38031673 C271.11566315 519.52275814 271.89272614 519.66519955 272.69333649 519.81195736 C283.52988566 522.14029021 293.47792068 532.10256443 299.27610016 541.06781673 C300.31975703 542.82529553 301.34359833 544.59484124 302.33860016 546.38031673 C302.69953766 547.02742611 303.06047516 547.67453548 303.43235016 548.34125423 C304.53968763 550.44314481 305.33860016 551.97477896 305.33860016 554.38031673 C306.51664215 554.34104061 306.51664215 554.34104061 307.71848297 554.30097103 C311.34164466 554.19583227 314.964484 554.1316216 318.58860016 554.06781673 C319.82352203 554.0259222 321.05844391 553.98402767 322.33078766 553.94086361 C333.23330384 553.79740945 342.03491352 556.47695135 350.90110016 562.94281673 C351.68613922 563.5009808 352.47117828 564.05914486 353.28000641 564.63422298 C355.33860016 566.38031673 355.33860016 566.38031673 356.35593414 568.43280697 C359.65485611 571.67323309 363.66426631 571.13453103 368.11985016 571.28656673 C369.6020253 571.36134998 369.6020253 571.36134998 371.11414337 571.437644 C373.24346245 571.54426249 375.37319236 571.64291076 377.50321198 571.73447323 C383.12531236 571.98030573 388.74341152 572.29651391 394.36203766 572.61078548 C396.04400742 572.70343937 396.04400742 572.70343937 397.75995636 572.79796505 C412.70595612 573.64713069 427.51330963 575.34017624 442.33860016 577.38031673 C443.12986298 577.48837643 443.92112579 577.59643612 444.73636627 577.70777035 C506.40658462 586.16862809 506.40658462 586.16862809 519.33860016 596.38031673 C520.77610016 599.43500423 520.77610016 599.43500423 521.33860016 602.38031673 C518.03181262 608.69327476 510.86423897 610.97944935 504.42453766 613.09125423 C486.0914756 618.60062961 467.44907821 621.36760362 448.54233551 624.0632391 C445.31334502 624.52783239 442.08793996 625.01589945 438.86203766 625.50141048 C401.69865312 630.98209756 364.21577945 633.69328372 326.71360016 635.44281673 C325.85842804 635.48320065 325.00325592 635.52358456 324.12216949 635.56519222 C294.64579632 636.93943333 265.15807188 637.61129361 235.65110016 637.63031673 C234.90814949 637.63134773 234.16519882 637.63237873 233.3997345 637.63344097 C202.49609658 637.67329701 171.72355185 636.47629986 140.87253571 634.74042416 C134.88742201 634.4052236 128.901009 634.11515783 122.91281891 633.84125423 C115.02579745 633.47631386 107.15103018 633.01717872 99.27610016 632.44281673 C97.66638336 632.33163509 97.66638336 632.33163509 96.02414703 632.21820736 C-21.26460464 623.79642309 -21.26460464 623.79642309 -45.66139984 606.38031673 C-46.62046234 605.69969173 -46.62046234 605.69969173 -47.59889984 605.00531673 C-48.66139984 603.38031673 -48.66139984 603.38031673 -48.66139984 600.44281673 C-47.40268011 596.58798756 -45.96563885 595.67277497 -42.66139984 593.38031673 C-28.35977746 586.94926039 -12.26622888 584.06616805 3.08860016 581.38031673 C4.16410126 581.19038647 4.16410126 581.19038647 5.26132965 580.99661922 C21.81197522 578.09828798 38.4482725 576.25494756 55.16196442 574.59711361 C58.04686076 574.30977269 60.93099389 574.01514247 63.81516266 573.72060299 C70.6459001 573.02344678 77.47776723 572.33855541 84.31247711 571.68134212 C86.24478266 571.48912488 88.17586698 571.28388807 90.10495758 571.06171322 C95.33567193 570.46890888 100.15060916 570.4761932 105.40110016 570.81781673 C109.30274042 570.93070407 112.43820114 570.92416329 115.87375641 568.84906673 C117.28217882 567.4801328 118.65087858 566.06926931 119.97922516 564.62250423 C126.67918273 558.25532601 136.64223096 554.24141914 145.75656891 554.28266048 C147.01018219 554.28588314 148.26379547 554.2891058 149.55539703 554.29242611 C150.86572906 554.30080502 152.1760611 554.30918392 153.52610016 554.31781673 C154.86138497 554.32283356 156.19667157 554.32739615 157.53195953 554.33148861 C160.80088489 554.34328978 164.06972007 554.35975376 167.33860016 554.38031673 C167.60414703 553.33746517 167.86969391 552.29461361 168.14328766 551.22016048 C172.02544649 537.70059334 182.81097485 528.97027665 194.28781891 521.94672298 C197.10671729 520.49937567 199.25810594 519.91669204 202.33860016 519.38031673 C202.46513929 492.50221598 202.52851945 465.62460211 202.51738262 438.74619007 C202.51367245 426.26507427 202.53037509 413.78461785 202.59568024 401.30365658 C202.65256986 390.42103753 202.67060128 379.53915408 202.64260656 368.65641034 C202.62913254 362.89748096 202.63468484 357.14002959 202.68682671 351.38128948 C202.73537182 345.95182516 202.73164479 340.5248158 202.6891861 335.09532452 C202.68263581 333.11127964 202.6945868 331.12706611 202.72723579 329.14327908 C202.91621852 316.87226972 201.5703102 309.22570334 192.99984455 300.10363102 C192.1216339 299.20493731 191.24342325 298.30624359 190.33860016 297.38031673 C189.28470096 296.0740517 188.24771752 294.75350182 187.24485016 293.40766048 C182.44339677 287.24215783 177.53768629 281.20299859 172.45700836 275.26581478 C168.73903975 270.90198642 165.19446083 266.42011459 161.67673492 261.89423275 C157.96105582 257.13059197 154.1330309 252.46752352 150.27610016 247.81781673 C145.36358668 241.89135836 140.61876824 235.87935554 135.95969391 229.75141048 C132.87043481 225.73573554 129.63386223 221.8431672 126.40110016 217.94281673 C121.64597234 212.20572113 116.96574042 206.42318338 112.38181305 200.54852962 C109.06616861 196.29961968 105.71191005 192.08357224 102.33860016 187.88031673 C98.41239688 182.9869716 94.51712551 178.0713321 90.65110016 173.13031673 C86.64301315 168.01057564 82.5649254 162.95521008 78.43235016 157.93500423 C76.48405239 155.55779017 74.56321667 153.16166674 72.65110016 150.75531673 C68.91338896 146.06441412 65.09683092 141.44104577 61.27610016 136.81781673 C57.20846112 131.89425104 53.19003759 126.95158194 49.30735016 121.88031673 C46.3796857 118.16264758 43.35433038 114.52668328 40.33860016 110.88031673 C36.1323508 105.79427527 31.97109347 100.69048171 27.95188141 95.45453548 C24.93693559 91.57817658 21.79347808 87.80555592 18.67649078 84.01117611 C11.55506273 75.33031125 4.48780798 66.61297851 -2.41335297 57.75580502 C-6.76908778 52.1910219 -11.27257091 46.75032468 -15.80373383 41.3278265 C-27.07021845 27.77458819 -27.07021845 27.77458819 -26.93874359 18.79047298 C-26.30189851 13.25619954 -23.74065125 9.48409658 -19.91139984 5.56781673 C-13.50025164 1.25262083 -7.64728991 -0.06712106 0 0 Z " fill="#659DB8" transform="translate(274.6613998413086,216.61968326568604)"/>
<path d="M0 0 C1.25880331 -0.00698988 1.25880331 -0.00698988 2.543037 -0.01412097 C5.34984849 -0.02605408 8.15617443 -0.01668203 10.96298981 -0.00736332 C12.99772228 -0.01153696 15.03245242 -0.01701464 17.06717825 -0.02368313 C22.6546808 -0.03815226 28.24203603 -0.03388839 33.82954669 -0.02651632 C39.85689607 -0.02179066 45.88421331 -0.03428911 51.91155243 -0.04453373 C63.0352677 -0.06074392 74.15894435 -0.06316479 85.28266652 -0.05822874 C95.55906346 -0.05367094 105.83544292 -0.05427154 116.11183929 -0.06006908 C117.49048514 -0.06082595 118.86913099 -0.06158193 120.24777684 -0.06233703 C122.32528007 -0.06348222 124.40278329 -0.0646321 126.48028651 -0.06579627 C145.79312835 -0.07650025 165.10596437 -0.08122749 184.41880798 -0.07332611 C185.14672822 -0.07302894 185.87464845 -0.07273176 186.62462687 -0.07242559 C192.5358058 -0.06997666 198.44698465 -0.06736507 204.3581635 -0.06474145 C227.41954113 -0.05463732 250.48084596 -0.06299798 273.54221344 -0.086236 C299.45415503 -0.11230421 325.36605279 -0.12515787 351.27800798 -0.11804825 C354.04045899 -0.11733219 356.80291 -0.1166578 359.56536102 -0.1160078 C360.58563372 -0.11575309 360.58563372 -0.11575309 361.62651799 -0.11549323 C371.89625921 -0.11318978 382.16595974 -0.12116936 392.43569183 -0.13429928 C404.11328773 -0.14920257 415.79080486 -0.14968936 427.46840179 -0.13222837 C433.42784648 -0.1236958 439.38710892 -0.12162399 445.34654427 -0.13687992 C450.80057654 -0.1506694 456.25426946 -0.14603782 461.70828182 -0.12664068 C463.68259895 -0.12286274 465.65694289 -0.12585397 467.63123626 -0.13625234 C470.31363432 -0.14937698 472.99485324 -0.13787948 475.67720032 -0.12025452 C476.82865944 -0.13473028 476.82865944 -0.13473028 478.00338036 -0.14949849 C484.37266728 -0.06348927 489.70624973 1.86992848 494.36203766 6.31000423 C498.94503222 12.90633744 500.83169183 17.70468168 499.93454742 25.7899847 C498.94139047 30.10682013 496.51550981 32.78596822 493.58860016 36.00531673 C492.39795674 37.39026999 491.20786828 38.7757005 490.01828766 40.16156673 C489.10128082 41.20764095 489.10128082 41.20764095 488.1657486 42.27484798 C485.26493376 45.61752933 482.49257348 49.06129712 479.71360016 52.50531673 C479.17316071 53.16998959 478.63272125 53.83466244 478.07590485 54.51947689 C474.16129291 59.33664401 470.31666574 64.205126 466.49777985 69.09833431 C463.04467471 73.51181097 459.51357943 77.85706503 455.96360016 82.19281673 C451.42981425 87.73313813 447.03303736 93.35902684 442.71360016 99.06781673 C438.45867318 104.68447235 434.09013221 110.15312465 429.50217438 115.50043392 C421.13360685 125.2572098 413.13372171 135.32209791 405.21701813 145.44696712 C400.48698015 151.48841374 395.61106202 157.40718178 390.73313141 163.32953548 C388.97342674 165.46886184 387.21829365 167.61187918 385.46360016 169.75531673 C384.90366364 170.43384701 384.34372711 171.11237728 383.76682281 171.81146908 C381.48857572 174.59891443 379.41578202 177.24962212 377.58078766 180.35687923 C376.96590485 181.3584808 376.96590485 181.3584808 376.33860016 182.38031673 C375.67860016 182.38031673 375.01860016 182.38031673 374.33860016 182.38031673 C373.99635406 183.17115658 373.99635406 183.17115658 373.64719391 183.97797298 C371.8974772 187.19013948 369.6730998 189.966896 367.40110016 192.81781673 C366.91600983 193.43108822 366.43091949 194.0443597 365.93112946 194.67621517 C362.13251047 199.45036213 358.22054083 204.12099287 354.25925446 208.76044369 C350.85424287 212.75136872 347.55550732 216.81358449 344.29563141 220.92328548 C339.91171074 226.42724976 335.42918633 231.85319707 330.94406891 237.27484798 C327.62945738 241.29305864 324.34942638 245.27069611 321.40110016 249.56781673 C320.72047516 250.49594173 320.03985016 251.42406673 319.33860016 252.38031673 C318.67860016 252.38031673 318.01860016 252.38031673 317.33860016 252.38031673 C317.13879547 253.04289486 316.93899078 253.70547298 316.73313141 254.38812923 C314.79059657 258.55614516 311.97501342 261.75327768 309.02610016 265.25531673 C307.88212903 266.62600921 306.74017866 267.99839087 305.60031891 269.37250423 C305.04908356 270.03604916 304.49784821 270.69959408 303.92990875 271.38324642 C302.37648686 273.33276945 300.95493214 275.33287745 299.54563141 277.38812923 C298.8173111 278.37555111 298.08899078 279.36297298 297.33860016 280.38031673 C296.67860016 280.38031673 296.01860016 280.38031673 295.33860016 280.38031673 C295.00860016 281.70031673 294.67860016 283.02031673 294.33860016 284.38031673 C293.67860016 284.38031673 293.01860016 284.38031673 292.33860016 284.38031673 C292.06693024 284.96659847 291.79526031 285.55288021 291.51535797 286.15692806 C290.35590603 288.34761869 289.09879399 290.05840893 287.51047516 291.95453548 C286.95746735 292.62291439 286.40445953 293.2912933 285.83469391 293.97992611 C284.6866735 295.35267087 283.53824772 296.72507672 282.38938141 298.09711361 C281.27864537 299.44000117 280.18484003 300.7971101 279.11017799 302.16903687 C277.33860016 304.38031673 277.33860016 304.38031673 275.72521019 306.06223106 C269.15783426 313.85536857 270.50097723 323.70706134 270.56565094 333.3122015 C270.55747394 335.34307178 270.54666796 337.37393291 270.53343964 339.40477657 C270.50505828 344.90012636 270.51333782 350.3948755 270.52830744 355.89025521 C270.53769926 361.63984889 270.51322583 367.38929717 270.49237823 373.1388464 C270.45805785 384.01838747 270.45409764 394.89771829 270.46110332 405.77730268 C270.46759864 418.16669859 270.44015969 430.5559471 270.4099009 442.94529927 C270.34843321 468.42365348 270.32948086 493.90189691 270.33860016 519.38031673 C271.11566315 519.52275814 271.89272614 519.66519955 272.69333649 519.81195736 C283.52988566 522.14029021 293.47792068 532.10256443 299.27610016 541.06781673 C300.31975703 542.82529553 301.34359833 544.59484124 302.33860016 546.38031673 C302.69953766 547.02742611 303.06047516 547.67453548 303.43235016 548.34125423 C304.53968763 550.44314481 305.33860016 551.97477896 305.33860016 554.38031673 C306.51664215 554.34104061 306.51664215 554.34104061 307.71848297 554.30097103 C311.34164466 554.19583227 314.964484 554.1316216 318.58860016 554.06781673 C319.82352203 554.0259222 321.05844391 553.98402767 322.33078766 553.94086361 C333.23330384 553.79740945 342.03491352 556.47695135 350.90110016 562.94281673 C351.68613922 563.5009808 352.47117828 564.05914486 353.28000641 564.63422298 C355.33860016 566.38031673 355.33860016 566.38031673 356.35593414 568.43280697 C359.65485611 571.67323309 363.66426631 571.13453103 368.11985016 571.28656673 C369.6020253 571.36134998 369.6020253 571.36134998 371.11414337 571.437644 C373.24346245 571.54426249 375.37319236 571.64291076 377.50321198 571.73447323 C383.12531236 571.98030573 388.74341152 572.29651391 394.36203766 572.61078548 C396.04400742 572.70343937 396.04400742 572.70343937 397.75995636 572.79796505 C412.70595612 573.64713069 427.51330963 575.34017624 442.33860016 577.38031673 C443.12986298 577.48837643 443.92112579 577.59643612 444.73636627 577.70777035 C506.40658462 586.16862809 506.40658462 586.16862809 519.33860016 596.38031673 C520.77610016 599.43500423 520.77610016 599.43500423 521.33860016 602.38031673 C518.03181262 608.69327476 510.86423897 610.97944935 504.42453766 613.09125423 C486.0914756 618.60062961 467.44907821 621.36760362 448.54233551 624.0632391 C445.31334502 624.52783239 442.08793996 625.01589945 438.86203766 625.50141048 C401.69865312 630.98209756 364.21577945 633.69328372 326.71360016 635.44281673 C325.85842804 635.48320065 325.00325592 635.52358456 324.12216949 635.56519222 C294.64579632 636.93943333 265.15807188 637.61129361 235.65110016 637.63031673 C234.90814949 637.63134773 234.16519882 637.63237873 233.3997345 637.63344097 C202.49609658 637.67329701 171.72355185 636.47629986 140.87253571 634.74042416 C134.88742201 634.4052236 128.901009 634.11515783 122.91281891 633.84125423 C115.02579745 633.47631386 107.15103018 633.01717872 99.27610016 632.44281673 C97.66638336 632.33163509 97.66638336 632.33163509 96.02414703 632.21820736 C-21.26460464 623.79642309 -21.26460464 623.79642309 -45.66139984 606.38031673 C-46.62046234 605.69969173 -46.62046234 605.69969173 -47.59889984 605.00531673 C-48.66139984 603.38031673 -48.66139984 603.38031673 -48.66139984 600.44281673 C-47.40268011 596.58798756 -45.96563885 595.67277497 -42.66139984 593.38031673 C-28.35977746 586.94926039 -12.26622888 584.06616805 3.08860016 581.38031673 C4.16410126 581.19038647 4.16410126 581.19038647 5.26132965 580.99661922 C21.81197522 578.09828798 38.4482725 576.25494756 55.16196442 574.59711361 C58.04686076 574.30977269 60.93099389 574.01514247 63.81516266 573.72060299 C70.6459001 573.02344678 77.47776723 572.33855541 84.31247711 571.68134212 C86.24478266 571.48912488 88.17586698 571.28388807 90.10495758 571.06171322 C95.33567193 570.46890888 100.15060916 570.4761932 105.40110016 570.81781673 C109.30274042 570.93070407 112.43820114 570.92416329 115.87375641 568.84906673 C117.28217882 567.4801328 118.65087858 566.06926931 119.97922516 564.62250423 C126.67918273 558.25532601 136.64223096 554.24141914 145.75656891 554.28266048 C147.01018219 554.28588314 148.26379547 554.2891058 149.55539703 554.29242611 C150.86572906 554.30080502 152.1760611 554.30918392 153.52610016 554.31781673 C154.86138497 554.32283356 156.19667157 554.32739615 157.53195953 554.33148861 C160.80088489 554.34328978 164.06972007 554.35975376 167.33860016 554.38031673 C167.60414703 553.33746517 167.86969391 552.29461361 168.14328766 551.22016048 C172.02544649 537.70059334 182.81097485 528.97027665 194.28781891 521.94672298 C197.10671729 520.49937567 199.25810594 519.91669204 202.33860016 519.38031673 C202.46513929 492.50221598 202.52851945 465.62460211 202.51738262 438.74619007 C202.51367245 426.26507427 202.53037509 413.78461785 202.59568024 401.30365658 C202.65256986 390.42103753 202.67060128 379.53915408 202.64260656 368.65641034 C202.62913254 362.89748096 202.63468484 357.14002959 202.68682671 351.38128948 C202.73537182 345.95182516 202.73164479 340.5248158 202.6891861 335.09532452 C202.68263581 333.11127964 202.6945868 331.12706611 202.72723579 329.14327908 C202.91621852 316.87226972 201.5703102 309.22570334 192.99984455 300.10363102 C192.1216339 299.20493731 191.24342325 298.30624359 190.33860016 297.38031673 C189.28470096 296.0740517 188.24771752 294.75350182 187.24485016 293.40766048 C182.44339677 287.24215783 177.53768629 281.20299859 172.45700836 275.26581478 C168.73903975 270.90198642 165.19446083 266.42011459 161.67673492 261.89423275 C157.96105582 257.13059197 154.1330309 252.46752352 150.27610016 247.81781673 C145.36358668 241.89135836 140.61876824 235.87935554 135.95969391 229.75141048 C132.87043481 225.73573554 129.63386223 221.8431672 126.40110016 217.94281673 C121.64597234 212.20572113 116.96574042 206.42318338 112.38181305 200.54852962 C109.06616861 196.29961968 105.71191005 192.08357224 102.33860016 187.88031673 C98.41239688 182.9869716 94.51712551 178.0713321 90.65110016 173.13031673 C86.64301315 168.01057564 82.5649254 162.95521008 78.43235016 157.93500423 C76.48405239 155.55779017 74.56321667 153.16166674 72.65110016 150.75531673 C68.91338896 146.06441412 65.09683092 141.44104577 61.27610016 136.81781673 C57.20846112 131.89425104 53.19003759 126.95158194 49.30735016 121.88031673 C46.3796857 118.16264758 43.35433038 114.52668328 40.33860016 110.88031673 C36.1323508 105.79427527 31.97109347 100.69048171 27.95188141 95.45453548 C24.93693559 91.57817658 21.79347808 87.80555592 18.67649078 84.01117611 C11.55506273 75.33031125 4.48780798 66.61297851 -2.41335297 57.75580502 C-6.76908778 52.1910219 -11.27257091 46.75032468 -15.80373383 41.3278265 C-27.07021845 27.77458819 -27.07021845 27.77458819 -26.93874359 18.79047298 C-26.30189851 13.25619954 -23.74065125 9.48409658 -19.91139984 5.56781673 C-13.50025164 1.25262083 -7.64728991 -0.06712106 0 0 Z M-1.66139984 23.38031673 C0.31860016 26.02031673 2.29860016 28.66031673 4.33860016 31.38031673 C5.07723297 32.37676205 5.81586578 33.37320736 6.57688141 34.39984798 C12.46030592 42.32197327 18.59015813 49.99815434 24.99875641 57.50141048 C30.00167856 63.36073656 34.84475238 69.27989375 39.49192047 75.42572689 C43.17469068 80.25518443 47.11019825 84.84201054 51.08615875 89.43085384 C55.00439772 93.96159476 58.70348276 98.61948556 62.33860016 103.38031673 C71.67776648 115.3834916 81.25473504 127.18576413 90.90110016 138.94281673 C98.76314351 148.54399581 106.4764117 158.26281482 114.12107086 168.0375433 C117.66110645 172.55006051 121.27259518 177.00127256 124.90110016 181.44281673 C128.78835664 186.20210856 132.61199711 190.99405763 136.33860016 195.88031673 C142.94413075 204.53732106 149.8640918 212.93931457 156.78000641 221.34906673 C160.82437619 226.26887256 164.79834387 231.2327706 168.71360016 236.25531673 C172.3247541 240.88490432 176.0207291 245.41978658 179.83860016 249.88031673 C186.03203112 257.12212065 191.86990581 264.62623801 197.71360016 272.15082455 C203.18029471 279.18220512 208.70918738 286.12669535 214.54758453 292.85517025 C215.83168374 294.34620096 217.08521833 295.86337331 218.33860016 297.38031673 C218.77293969 297.87149378 219.20727923 298.36267083 219.65478057 298.86873204 C223.67419476 303.80782029 224.05327358 307.79368166 223.97783661 314.02971554 C223.98619229 314.98308066 223.99454796 315.93644578 224.00315684 316.91870075 C224.02505037 320.1034654 224.01149038 323.28707291 223.99802399 326.47186947 C224.00647831 328.75859609 224.01712292 331.04531551 224.02979279 333.33202267 C224.05795114 339.53399004 224.0554652 345.73561168 224.04749894 351.93762374 C224.04437523 358.42126401 224.06940435 364.90479391 224.09145355 371.38838863 C224.12466069 382.26877226 224.14051727 393.14905428 224.14304352 404.02948666 C224.14569271 415.2342807 224.1588246 426.43898194 224.18601227 437.64374447 C224.18768565 438.33488838 224.18935902 439.02603229 224.19108311 439.73811995 C224.19954284 443.20553048 224.20820821 446.67294046 224.21697581 450.14035022 C224.28939792 478.88698414 224.32543156 507.63359696 224.33860016 536.38031673 C222.68404816 536.36653988 222.68404816 536.36653988 220.99607086 536.3524847 C212.26160954 536.4189508 204.19910154 540.09029158 197.33860016 545.38031673 C194.18105105 548.76203261 191.80541149 551.97988273 190.33860016 556.38031673 C220.69860016 556.38031673 251.05860016 556.38031673 282.33860016 556.38031673 C276.75864635 546.61539756 270.1183858 540.54083006 259.20188141 537.50922298 C257.06678583 536.98113425 254.9262408 536.47441895 252.78000641 535.99359798 C250.33860016 535.38031673 250.33860016 535.38031673 249.33860016 534.38031673 C249.21173864 531.45848184 249.15062383 528.55936359 249.130867 525.63603878 C249.12084022 524.70725637 249.11081344 523.77847395 249.10048282 522.82154661 C249.06818581 519.68353041 249.04338202 516.54550167 249.01877594 513.40741634 C248.99779198 511.16724567 248.97654565 508.92707745 248.95505524 506.68691158 C248.76682493 486.17921639 248.66419794 465.67072244 248.58291054 445.16235161 C248.57182282 442.41396088 248.56053055 439.66557108 248.54904938 436.91718197 C248.54620484 436.23410304 248.54336031 435.55102411 248.54042958 434.84724582 C248.49307804 423.81279426 248.39687328 412.77930899 248.2814783 401.74538212 C248.16386381 390.40445831 248.09718086 379.06423042 248.07477939 367.722642 C248.06073668 361.35974452 248.0245146 354.99879612 247.93354416 348.63649464 C247.848672 342.63823859 247.82621564 336.64285689 247.84990692 330.64407825 C247.84794059 328.45274286 247.82401492 326.26128936 247.77547073 324.07049084 C247.51090226 311.47920626 248.48294752 303.1182584 257.21874821 293.60419363 C258.34224627 292.44460366 259.47604263 291.2948982 260.62017417 290.1556617 C263.5894529 287.08803232 266.18923575 283.72324132 268.83860016 280.38031673 C269.91775543 279.0483109 270.99830099 277.71742915 272.08078766 276.38812923 C272.61671539 275.7284515 273.15264313 275.06877377 273.7048111 274.3891058 C275.35420887 272.36112539 277.00624611 270.33532138 278.65891266 268.31000423 C283.7528756 262.06252116 288.81852708 255.79926383 293.77610016 249.44281673 C299.63344753 241.93647057 305.70163109 234.60763186 311.77268219 227.27387142 C314.53304862 223.93595404 317.27597475 220.58391312 320.01438141 217.22797298 C321.77893912 215.06601908 323.54780348 212.90785497 325.31906891 210.75141048 C331.04226522 203.7644825 336.64453148 196.71237138 342.08860016 189.50531673 C346.22682042 184.03058553 350.50770133 178.84525122 355.17844391 173.81000423 C358.07706279 170.54971319 360.6941069 167.0968406 363.32541656 163.62201595 C368.81294399 156.39428451 374.58874827 149.39971472 380.33860016 142.38031673 C381.1210611 141.42383236 381.90352203 140.46734798 382.70969391 139.48187923 C384.12896474 137.74750423 385.54823558 136.01312923 386.96750641 134.27875423 C387.74996735 133.32226986 388.53242828 132.36578548 389.33860016 131.38031673 C389.82828278 130.782514 390.31796539 130.18471127 390.82248688 129.5687933 C396.4621228 122.67914382 402.07933691 115.78473497 407.46360016 108.69281673 C410.82175681 104.28421561 414.29348255 100.0208785 417.90110016 95.81781673 C422.11845854 90.90244311 426.04011022 85.83726172 429.88547516 80.62250423 C432.79915197 76.72209486 435.88314733 72.96189799 438.96360016 69.19281673 C439.52120026 68.50969418 440.07880035 67.82657162 440.65329742 67.12274837 C441.72755534 65.80671456 442.80185381 64.49071386 443.87619781 63.17475033 C445.81502436 60.79572276 447.74287869 58.40897907 449.65110016 56.00531673 C450.18348297 55.33758236 450.71586578 54.66984798 451.26438141 53.98187923 C452.52427856 52.4248967 452.52427856 52.4248967 452.33860016 50.38031673 C452.99860016 50.38031673 453.65860016 50.38031673 454.33860016 50.38031673 C456.00885684 48.61177765 456.00885684 48.61177765 457.77610016 46.25531673 C458.47735016 45.35426205 459.17860016 44.45320736 459.90110016 43.52484798 C461.10766266 41.96830502 461.10766266 41.96830502 462.33860016 40.38031673 C463.3159644 39.15361808 464.29521112 37.92841748 465.27610016 36.70453548 C466.27620666 35.45071417 467.27620751 34.19680859 468.27610016 32.94281673 C469.00301056 32.03861996 469.00301056 32.03861996 469.74460602 31.11615658 C471.77815362 28.54788407 473.29393833 26.51430223 474.33860016 23.38031673 C317.25860016 23.38031673 160.17860016 23.38031673 -1.66139984 23.38031673 Z " fill="#222D4B" transform="translate(274.6613998413086,216.61968326568604)"/>
<path d="M0 0 C116.49 0 232.98 0 353 0 C348.86684442 10.33288894 348.86684442 10.33288894 345 14 C340.98248842 15.3167405 337.12113138 15.18931512 332.92295837 15.10006714 C331.69629395 15.10972382 330.46962952 15.1193805 329.20579344 15.1293298 C325.80684577 15.14711225 322.41248283 15.12464035 319.01400459 15.08515644 C315.34725983 15.05242015 311.68074704 15.07175401 308.01393127 15.08485413 C301.66222209 15.10056204 295.31127063 15.08372644 288.95966911 15.04507065 C279.77101827 14.98946004 270.58292922 14.9863856 261.39414305 14.99664988 C246.47869468 15.01216501 231.56356282 14.98976035 216.64819336 14.94140625 C202.17260835 14.8945995 187.69708853 14.8581156 173.22143555 14.84082031 C172.32974023 14.83974659 171.43804491 14.83867286 170.51932853 14.8375666 C160.78589204 14.82625394 151.05245928 14.81913414 141.31901646 14.81700325 C140.46374256 14.8168079 139.60846867 14.81661256 138.72727739 14.81641129 C135.30838633 14.81568705 131.88949539 14.81500816 128.47060425 14.81486632 C118.45858377 14.81434586 108.44678393 14.80072469 98.43482912 14.76352747 C92.15638541 14.74050838 85.87797348 14.72710875 79.59949034 14.72128443 C75.97554293 14.71742379 72.3517864 14.70837813 68.72790146 14.68613243 C64.80191839 14.66205039 60.8761191 14.66088378 56.95005798 14.66183472 C55.80143042 14.65084806 54.65280286 14.63986141 53.4693684 14.62854183 C51.89245782 14.6344012 51.89245782 14.6344012 50.28369045 14.64037895 C49.3775127 14.6373989 48.47133494 14.63441885 47.53769726 14.63134849 C44.40395003 15.08658823 42.55189032 16.14841617 40 18 C37.66015558 20.87648225 37.66015558 20.87648225 38.125 24.4375 C39.1051054 28.42792914 39.77578076 29.55086691 43 32 C46.25975354 32.604369 46.25975354 32.604369 49.98658752 32.51225281 C50.69214568 32.51904725 51.39770384 32.5258417 52.12464255 32.53284204 C54.49690253 32.55082868 56.86818488 32.54030921 59.24047852 32.5300293 C60.94917717 32.5371529 62.65786925 32.54603952 64.36655045 32.55654812 C69.05036616 32.58035975 73.73390314 32.57947356 78.4177649 32.57466173 C83.41858954 32.57391362 88.41931221 32.59628742 93.42008972 32.61618042 C101.99836719 32.64730945 110.57657787 32.66454424 119.15490723 32.67214966 C132.54312593 32.68423186 145.93118913 32.72333809 159.31933594 32.76733398 C163.80648755 32.78178717 168.29363974 32.79605089 172.78079224 32.81022644 C173.89227273 32.8137547 175.00375322 32.81728296 176.14891493 32.82091814 C184.0431888 32.84560627 191.93746731 32.86639076 199.83175659 32.88545227 C227.53812264 32.95326344 255.2434943 33.07181295 282.94921875 33.2734375 C283.78058578 33.27948478 284.61195281 33.28553206 285.46851277 33.29176259 C294.97821608 33.36127696 304.48788945 33.43439505 313.99754995 33.50951928 C321.45353831 33.56833377 328.90954701 33.6243246 336.36555922 33.68001986 C350.24372941 33.78372875 364.12187442 33.89048203 378 34 C375.21879456 43.50245193 375.21879456 43.50245193 372 47 C368.79069694 47.72192862 366.57423327 47.92778652 363.35916138 47.85282898 C362.47792976 47.86007124 361.59669815 47.86731351 360.68876255 47.87477523 C357.72922272 47.89067876 354.77234913 47.85663398 351.81298828 47.82299805 C349.69407749 47.82433733 347.57516669 47.82880781 345.45626831 47.83618164 C340.88994265 47.84543978 336.32438944 47.8326846 331.75815201 47.80304527 C324.53937558 47.75653318 317.32115146 47.75985303 310.1022644 47.7702179 C297.38325526 47.78204839 284.66461529 47.75110751 271.94567871 47.71105957 C252.80147775 47.65127761 233.65725586 47.62679997 214.51296794 47.63930541 C207.33574219 47.64241766 200.15898795 47.62392441 192.98185372 47.58831251 C188.5172771 47.56977789 184.05279454 47.5674365 179.58818436 47.5692215 C177.51693134 47.56656126 175.44567398 47.55698765 173.37448883 47.54001045 C170.54760191 47.51770472 167.72174493 47.51993127 164.89480591 47.52812195 C163.66444695 47.50931906 163.66444695 47.50931906 162.40923226 47.49013633 C157.16758724 47.53919385 154.14826352 48.50205146 150 52 C148.87846012 55.41802631 149.77096569 58.91208701 150.5 62.375 C153.64450664 65.78154886 158.80332538 65.92759891 163.20834351 66.19411087 C167.18496422 66.28632288 171.15929994 66.31328753 175.13671875 66.31884766 C176.66497827 66.32815714 178.19323276 66.33832731 179.72148132 66.34928894 C183.85103053 66.37648813 187.98054581 66.39170831 192.11016083 66.40471697 C196.43301769 66.42039181 200.75580573 66.44716808 205.07861328 66.4727478 C213.25586773 66.5194587 221.43313524 66.55623994 229.61045456 66.58942068 C238.92368568 66.62769651 248.23684755 66.67709231 257.55002022 66.72740483 C276.69996273 66.83061028 295.84994757 66.91990758 315 67 C310.52526447 76.07436399 304.46776144 84.23782165 298.61572266 92.45776367 C295.32758828 97.08677495 292.12503882 101.75956624 289 106.5 C284.00965603 114.05723647 278.79289943 121.44502769 273.54541016 128.82519531 C259.3340171 148.68571003 259.3340171 148.68571003 245.875 169.0546875 C240.21821754 177.94054994 234.34453379 186.66889064 228.09375 195.1484375 C225.53074748 198.63909392 223.01380952 202.16133181 220.5 205.6875 C219.83097656 206.62541382 219.83097656 206.62541382 219.1484375 207.58227539 C218.09854698 209.05455701 217.04921124 210.52723422 216 212 C212.28650117 208.50149321 209.35145194 204.88721688 206.625 200.5625 C206.24069824 199.96211914 205.85639648 199.36173828 205.46044922 198.74316406 C202.03614561 193.28412933 199.21852919 187.60610636 196.5078125 181.765625 C195.14916948 178.76360638 195.14916948 178.76360638 192 177 C189.81971604 176.64706549 189.81971604 176.64706549 187.5 176.6875 C186.7265625 176.67074219 185.953125 176.65398437 185.15625 176.63671875 C182.95358093 176.85191935 182.95358093 176.85191935 181.26171875 178.1953125 C178.39197318 182.30002597 179.19936338 187.28856141 180 192 C181.98897081 197.65241704 185.00983482 202.82990795 188 208 C188.53882813 208.969375 189.07765625 209.93875 189.6328125 210.9375 C198.20432456 225.41000277 210.8929028 237.06925531 222.6875 248.875 C223.32626068 249.51484833 223.96502136 250.15469666 224.62313843 250.81393433 C226.45740081 252.64784373 228.29597283 254.47728791 230.13671875 256.3046875 C230.69766235 256.86441757 231.25860596 257.42414764 231.83654785 258.00083923 C234.65527294 260.84956435 234.65527294 260.84956435 238 263 C238 352.1 238 441.2 238 533 C222.82 533 207.64 533 192 533 C195.8385119 525.3229762 199.20277818 520.79454813 207 517.1875 C207.60328125 516.88908203 208.2065625 516.59066406 208.828125 516.28320312 C214.79310627 513.41093497 219.44028328 512.96312075 226 513 C226.05499886 483.61472533 226.06908379 454.22966695 226.02634037 424.84436659 C226.02132595 421.37231899 226.01665906 417.90027101 226.01220703 414.42822266 C226.0113149 413.73702313 226.01042277 413.04582361 226.0095036 412.33367865 C225.99590109 401.15326595 226.01042799 389.97305875 226.03541696 378.7926733 C226.06044435 367.31383405 226.05449317 355.8353578 226.02174091 344.35653055 C226.0043286 337.91170114 226.00089067 331.46755167 226.03103638 325.02275467 C226.05898236 318.95348314 226.0493694 312.88541681 226.01126289 306.8162117 C226.00385981 304.59186048 226.01004159 302.36741495 226.03101921 300.14315033 C226.57287264 286.69870763 226.57287264 286.69870763 221.15576172 274.86288452 C219.80249026 273.54168391 218.41857429 272.25082441 217 271 C215.81376994 269.60580068 214.64611097 268.19531915 213.5078125 266.76171875 C212.3803523 265.40352631 211.25274638 264.04545483 210.125 262.6875 C205.88791896 257.5667254 201.71395411 252.41322594 197.6875 247.125 C193.25438955 241.30519536 188.66538135 235.6341123 184 230 C170.02542373 213.10263653 170.02542373 213.10263653 164.953125 206.48046875 C162.11329056 202.87387901 159.17686518 199.34859451 156.25 195.8125 C150.50342237 188.86394443 144.87875509 181.83394524 139.33984375 174.71923828 C137.0051332 171.72342347 134.65884873 168.73670303 132.3125 165.75 C131.85004883 165.1612207 131.38759766 164.57244141 130.91113281 163.96582031 C126.97046867 158.9532504 122.99196112 153.97180612 119 149 C117.06139828 146.58421495 115.12403293 144.16744373 113.1875 141.75 C112.67525879 141.1108667 112.16301758 140.4717334 111.63525391 139.81323242 C108.6645709 136.10057732 105.72004521 132.36923227 102.79711914 128.61889648 C98.27052924 122.81292922 93.62397762 117.13893673 88.84350586 111.5402832 C85.08485747 107.12942458 81.52579548 102.59692322 78 98 C68.33563982 85.58333013 58.53774762 73.27352621 48.3125 61.3125 C44.25901098 56.5688223 40.4065242 51.70451545 36.63037109 46.73803711 C31.88784569 40.50864043 26.90045544 34.48700394 21.89453125 28.46875 C17.15697501 22.73880949 12.57977066 16.90480696 8.0625 11 C7.21026855 9.8860083 7.21026855 9.8860083 6.34082031 8.74951172 C4.14805597 5.87059873 2.0084206 3.0126309 0 0 Z " fill="#FBFBFA" transform="translate(273,240)"/>
<path d="M0 0 C1.95292969 0.01353516 1.95292969 0.01353516 3.9453125 0.02734375 C5.39550781 0.04474609 5.39550781 0.04474609 6.875 0.0625 C6.875 3.7845148 5.80917911 4.99601682 3.75 8.0625 C0.6440029 12.79992992 -2.11857505 17.6215867 -4.76953125 22.625 C-5.90811961 24.6724903 -7.10766837 26.49901633 -8.5 28.375 C-10.46146465 31.61896077 -10.77303154 33.33631866 -10.125 37.0625 C-8.82695384 39.42312796 -8.82695384 39.42312796 -6.125 41.0625 C-2.53948142 41.66883328 1.01996227 41.58839895 4.64854431 41.55024719 C5.75916042 41.55437046 6.86977654 41.55849372 8.01404768 41.56274194 C11.74911518 41.57169789 15.48348646 41.55198173 19.21850586 41.5324707 C21.89076944 41.53297928 24.56298863 41.5350651 27.23524475 41.53910828 C33.74830043 41.54533815 40.26114398 41.53033404 46.77415889 41.50838266 C54.35720199 41.48370664 61.94020611 41.48077845 69.52328343 41.47897889 C83.05324766 41.47510093 96.58311627 41.45262403 110.11303711 41.41918945 C123.24422606 41.38676664 136.37536456 41.36551228 149.5065918 41.35766602 C150.31517668 41.35718052 151.12376157 41.35669503 151.95684903 41.35619483 C155.20693159 41.35426614 158.45701416 41.35235401 161.70709675 41.35047873 C174.21655444 41.34294493 186.72600384 41.32731691 199.23545135 41.30998212 C203.015315 41.30474664 206.79517848 41.29981358 210.57504344 41.2956202 C218.52462048 41.28669651 226.47417334 41.27490561 234.42372911 41.25405417 C237.71138713 41.24546241 240.99902542 41.23889291 244.28669357 41.23553848 C247.84931593 41.23156197 251.41186817 41.22144846 254.97447205 41.20967102 C256.53603992 41.20994756 256.53603992 41.20994756 258.12915462 41.21022969 C259.08412667 41.20577185 260.03909871 41.20131401 261.0230093 41.19672108 C262.25631612 41.19403822 262.25631612 41.19403822 263.51453823 41.19130117 C266.0453432 41.05320504 268.40431368 40.61541531 270.875 40.0625 C272.57305177 32.49845119 270.26968548 28.20789261 266.375 22 C265.93929688 21.32582031 265.50359375 20.65164063 265.0546875 19.95703125 C263.875 18.0625 263.875 18.0625 262.5 15.1875 C260.44555017 11.23663494 257.90435103 7.74290547 255.30078125 4.13671875 C253.875 2.0625 253.875 2.0625 253.875 1.0625 C295.32004599 0.20304052 379.70028799 -0.92335673 413.875 26.0625 C415.3125 29.1171875 415.3125 29.1171875 415.875 32.0625 C412.56821246 38.37545802 405.40063881 40.66163262 398.9609375 42.7734375 C380.62787545 48.28281287 361.98547805 51.04978688 343.07873535 53.74542236 C339.84974486 54.21001566 336.6243398 54.69808271 333.3984375 55.18359375 C296.23505296 60.66428082 258.75217929 63.37546699 221.25 65.125 C220.39482788 65.16538391 219.53965576 65.20576782 218.65856934 65.24737549 C189.18219616 66.62161659 159.69447173 67.29347687 130.1875 67.3125 C129.44454933 67.313531 128.70159866 67.314562 127.93613434 67.31562424 C97.03249642 67.35548027 66.25995169 66.15848312 35.40893555 64.42260742 C29.42382185 64.08740686 23.43740884 63.7973411 17.44921875 63.5234375 C9.56219729 63.15849713 1.68743003 62.69936198 -6.1875 62.125 C-7.7972168 62.01381836 -7.7972168 62.01381836 -9.43945312 61.90039062 C-126.7282048 53.47860635 -126.7282048 53.47860635 -151.125 36.0625 C-151.764375 35.60875 -152.40375 35.155 -153.0625 34.6875 C-154.125 33.0625 -154.125 33.0625 -154.125 30.125 C-152.86628027 26.27017083 -151.42923901 25.35495823 -148.125 23.0625 C-133.82337762 16.63144366 -117.72982904 13.74835132 -102.375 11.0625 C-101.65799927 10.93587982 -100.94099854 10.80925964 -100.20227051 10.67880249 C-83.65162493 7.78047125 -67.01532766 5.93713082 -50.30163574 4.27929688 C-47.4167394 3.99195596 -44.53260627 3.69732573 -41.6484375 3.40278625 C-34.81755284 2.70561502 -27.98534322 2.02282287 -21.15087891 1.36157227 C-19.21993632 1.17072148 -17.28978636 0.97154271 -15.36083984 0.76147461 C-10.20455637 0.20421107 -5.1874453 -0.04715859 0 0 Z " fill="#2A4E6D" transform="translate(380.125,786.9375)"/>
<path d="M0 0 C0.85980469 -0.020625 1.71960938 -0.04125 2.60546875 -0.0625 C7.48247579 -0.09255859 10.80763299 0.04538588 14.75 3.25 C17.65547505 6.95698541 18.07494469 9.59245939 17.75 14.25 C18.29527344 14.46140625 18.84054687 14.6728125 19.40234375 14.890625 C22.59971931 16.74201717 24.86062634 19.28661968 27.3125 22 C27.8384375 22.57564697 28.364375 23.15129395 28.90625 23.74438477 C33.02660472 28.31370499 36.85235983 33.07251356 40.60375977 37.94628906 C43.859513 42.16461788 47.25420745 46.22896785 50.75 50.25 C54.73687563 54.84180301 58.58305742 59.50921792 62.3125 64.3125 C66.00316244 69.04992732 69.72858173 73.75234491 73.5625 78.375 C73.9944165 78.90746338 74.42633301 79.43992676 74.87133789 79.98852539 C78.50096636 84.31971963 82.92722582 88.56496774 88.75 89.25 C95.49209064 89.83121471 100.85588013 88.6714647 106.75 85.25 C112.59620583 80.28664661 115.18268154 75.35586612 116.03125 67.71875 C116.72729483 55.32915198 109.83644016 47.6241788 102.0390625 38.87109375 C98.23070709 34.65722959 94.39015824 30.47130054 90.49584961 26.33666992 C86.85195729 22.45391458 86.85195729 22.45391458 85.75 20.25 C135.58 20.25 185.41 20.25 236.75 20.25 C232.21989564 29.31020872 226.22642382 37.47565423 220.36572266 45.70776367 C217.07758828 50.33677495 213.87503882 55.00956624 210.75 59.75 C205.75965603 67.30723647 200.54289943 74.69502769 195.29541016 82.07519531 C181.0840171 101.93571003 181.0840171 101.93571003 167.625 122.3046875 C161.96821754 131.19054994 156.09453379 139.91889064 149.84375 148.3984375 C147.28074748 151.88909392 144.76380952 155.41133181 142.25 158.9375 C141.58097656 159.87541382 141.58097656 159.87541382 140.8984375 160.83227539 C139.84854698 162.30455701 138.79921124 163.77723422 137.75 165.25 C134.03650117 161.75149321 131.10145194 158.13721688 128.375 153.8125 C127.99069824 153.21211914 127.60639648 152.61173828 127.21044922 151.99316406 C123.78614561 146.53412933 120.96852919 140.85610636 118.2578125 135.015625 C116.89916948 132.01360638 116.89916948 132.01360638 113.75 130.25 C111.56971604 129.89706549 111.56971604 129.89706549 109.25 129.9375 C108.4765625 129.92074219 107.703125 129.90398437 106.90625 129.88671875 C104.70358093 130.10191935 104.70358093 130.10191935 103.01171875 131.4453125 C100.14560689 135.54482853 100.93046938 140.54660689 101.75 145.25 C103.62210411 150.24705036 106.24117826 154.88039212 108.83496094 159.53076172 C109.99204659 161.70477377 110.90396091 163.93897744 111.75 166.25 C108.4874336 165.16247787 108.04195506 164.66371596 106.11328125 162.00390625 C105.37742798 161.00290894 105.37742798 161.00290894 104.62670898 159.98168945 C104.11052002 159.26585693 103.59433105 158.55002441 103.0625 157.8125 C101.97767775 156.33772066 100.89174159 154.86376004 99.8046875 153.390625 C99.27842773 152.67455078 98.75216797 151.95847656 98.20996094 151.22070312 C93.15800547 144.40140805 87.66384915 137.94640047 82.16772461 131.48535156 C73.80206319 121.62658747 65.72240234 111.53649146 57.7800293 101.33496094 C54.63907469 97.32269647 51.38183828 93.42789893 48.0625 89.5625 C44.03866953 84.87400955 40.35886178 80.03902742 36.77734375 75 C33.75174628 70.89591403 30.45748242 67.0248859 27.171875 63.12890625 C21.83237172 56.78178703 16.73896739 50.24470842 11.6574707 43.69067383 C9.24014896 40.57473746 6.81672188 37.46359975 4.390625 34.35449219 C3.3753741 33.05219118 2.36197577 31.74844074 1.3515625 30.44238281 C-3.11955431 24.67644723 -7.21152133 20.31673053 -13.25 16.25 C-15.6133541 13.0646097 -15.80672512 10.14707583 -15.25 6.25 C-12.8125 3.4375 -12.8125 3.4375 -10.25 1.25 C-8.02365101 -0.97634899 -2.98808934 0.01760288 0 0 Z " fill="#B6DFEA" transform="translate(351.25,286.75)"/>
<path d="M0 0 C1.16337891 0.00966797 2.32675781 0.01933594 3.52539062 0.02929688 C4.74033203 0.05443359 5.95527344 0.07957031 7.20703125 0.10546875 C9.0468457 0.12577148 9.0468457 0.12577148 10.92382812 0.14648438 C13.95616789 0.18188134 16.98763121 0.23126115 20.01953125 0.29296875 C13.78888857 9.75911969 13.78888857 9.75911969 10.70703125 13.60546875 C7.9729909 17.0589934 5.32624389 20.56399814 2.70703125 24.10546875 C-1.240362 29.39107539 -5.39137954 34.44680358 -9.640625 39.48828125 C-12.2461072 42.61138012 -14.73712589 45.80674334 -17.21484375 49.03125 C-19.19823667 51.57192367 -21.24122047 54.0571968 -23.29296875 56.54296875 C-27.52664623 61.68851522 -31.58903293 66.94639058 -35.62109375 72.25 C-37.27859791 74.38774129 -38.95184027 76.46715005 -40.6953125 78.53125 C-42.55703815 80.78123296 -43.85379221 82.62991512 -44.98046875 85.29296875 C-45.64046875 85.29296875 -46.30046875 85.29296875 -46.98046875 85.29296875 C-47.24085938 85.86273438 -47.50125 86.4325 -47.76953125 87.01953125 C-49.0810211 89.48174768 -50.60898486 91.4943971 -52.35546875 93.66796875 C-54.40506467 96.25113716 -56.29795449 98.77853518 -58.10546875 101.54296875 C-59.98046875 104.29296875 -59.98046875 104.29296875 -62.66796875 106.85546875 C-65.27830309 109.60690224 -65.72688056 110.57367528 -65.98046875 114.29296875 C-65.87734375 115.55109375 -65.77421875 116.80921875 -65.66796875 118.10546875 C-65.50383429 134.49155887 -78.0015646 149.60644464 -87.98046875 161.29296875 C-88.59019531 162.02644531 -89.19992187 162.75992188 -89.828125 163.515625 C-93.22252533 167.52859487 -96.81494507 170.99425641 -100.82421875 174.38671875 C-103.26485162 176.54437969 -105.51857514 178.83599555 -107.79296875 181.16796875 C-118.36012408 191.80045425 -118.36012408 191.80045425 -123.98046875 195.29296875 C-127.24438032 194.91131021 -128.90380933 193.74741208 -131.19750977 191.46411133 C-131.8023671 190.86871048 -132.40722443 190.27330963 -133.03041077 189.65986633 C-133.67521896 189.00898544 -134.32002716 188.35810455 -134.984375 187.6875 C-136.00216286 186.67401741 -136.00216286 186.67401741 -137.04051208 185.64006042 C-138.48065328 184.20196253 -139.91700559 182.76006195 -141.34985352 181.31469727 C-143.50032417 179.14842665 -145.66596347 176.99829729 -147.83398438 174.84960938 C-158.34390904 164.35679852 -168.51888528 153.46369606 -175.91796875 140.48046875 C-176.28075928 139.85358154 -176.6435498 139.22669434 -177.01733398 138.58081055 C-178.02024174 136.82679855 -179.00130227 135.06034394 -179.98046875 133.29296875 C-180.45742188 132.46023438 -180.934375 131.6275 -181.42578125 130.76953125 C-184.40372885 125.00105933 -185.23950456 118.68998156 -183.98046875 112.29296875 C-182.0751117 109.76805239 -180.89186514 108.51470383 -177.796875 107.76171875 C-177.05308594 107.77203125 -176.30929687 107.78234375 -175.54296875 107.79296875 C-174.80175781 107.78265625 -174.06054688 107.77234375 -173.296875 107.76171875 C-169.96285128 108.52635151 -168.40687784 109.88198992 -165.98046875 112.29296875 C-164.4654992 114.71648995 -163.28798293 117.25668403 -162.10546875 119.85546875 C-158.85883429 126.6697567 -155.27771298 133.07012394 -150.98046875 139.29296875 C-150.22830078 140.40671875 -150.22830078 140.40671875 -149.4609375 141.54296875 C-147.59572492 143.74775829 -146.077675 143.96075258 -143.2578125 144.19921875 C-142.50628906 144.23015625 -141.75476563 144.26109375 -140.98046875 144.29296875 C-139.99175781 144.34453125 -139.00304687 144.39609375 -137.984375 144.44921875 C-125.97486847 144.7887101 -115.20257352 142.02517145 -106.1953125 133.62890625 C-104.66515628 131.9148182 -103.3081945 130.16763825 -101.98046875 128.29296875 C-101.51769531 127.65230469 -101.05492187 127.01164062 -100.578125 126.3515625 C-95.10290656 118.24189114 -93.9610697 109.87385185 -95.2578125 100.23046875 C-96.31526994 95.23524123 -98.53051667 90.95949902 -100.95703125 86.4921875 C-101.98046875 84.29296875 -101.98046875 84.29296875 -101.98046875 81.29296875 C-96.12353829 88.33374685 -90.94769405 95.60433809 -85.98046875 103.29296875 C-83.07448806 99.68531619 -80.23365014 96.03394543 -77.41796875 92.35546875 C-73.78662208 87.61872246 -70.11661132 82.91480996 -66.41796875 78.23046875 C-62.2718835 72.97403176 -58.22377677 67.65320762 -54.22265625 62.28515625 C-51.85318637 59.12311108 -49.45474521 55.98526925 -47.04296875 52.85546875 C-46.62289551 52.31019531 -46.20282227 51.76492188 -45.77001953 51.203125 C-43.73351826 48.56168372 -41.69387923 45.92271048 -39.65234375 43.28515625 C-34.491711 36.60367478 -29.40938877 29.86809803 -24.35546875 23.10546875 C-13.49556222 8.58773042 -13.49556222 8.58773042 -8.98046875 3.29296875 C-8.57755615 2.76735352 -8.17464355 2.24173828 -7.75952148 1.70019531 C-5.18079744 -0.33956939 -3.25268161 -0.04760022 0 0 Z " fill="#407494" transform="translate(635.98046875,307.70703125)"/>
<path d="M0 0 C0.65675294 -0.00265183 1.31350589 -0.00530365 1.99016044 -0.00803584 C4.20626985 -0.015738 6.42232394 -0.01628836 8.63844585 -0.01688576 C10.23718249 -0.02089976 11.83591812 -0.02533788 13.43465251 -0.03016531 C17.84010069 -0.04214329 22.24553791 -0.04778208 26.65099919 -0.05234647 C31.39753415 -0.05829778 36.14405597 -0.06990866 40.89058208 -0.08063698 C52.35849354 -0.1051696 63.82640935 -0.11978827 75.29433897 -0.13269705 C78.53191478 -0.13640799 81.76949016 -0.14038129 85.00706553 -0.14444971 C105.10148998 -0.16968239 125.19591508 -0.19174075 145.29035187 -0.20417786 C149.94566443 -0.20710766 154.60097697 -0.21006931 159.25628948 -0.21308327 C160.41337765 -0.21382932 161.57046581 -0.21457537 162.76261725 -0.21534403 C181.51781269 -0.22800482 200.27291348 -0.26123738 219.02806465 -0.3028851 C238.27230042 -0.34526958 257.51648768 -0.36886875 276.76077002 -0.37409842 C287.57036929 -0.37751622 298.37982057 -0.38931497 309.18937397 -0.42220116 C318.39279133 -0.45015476 327.59603038 -0.46122158 336.79948691 -0.4500057 C341.49698669 -0.44480726 346.19411278 -0.44778251 350.89155865 -0.47247124 C355.19049644 -0.49487742 359.48879023 -0.49429162 363.78773864 -0.47526737 C365.3442818 -0.4724552 366.90086784 -0.47813317 368.45734177 -0.4930803 C381.54855541 -0.61112797 381.54855541 -0.61112797 385.4900341 2.5500145 C388.52828323 6.29634004 389.06171531 8.30589949 388.58807659 13.13701439 C386.37095073 16.62106931 384.42615898 18.65748743 380.58807659 20.13701439 C377.60275656 20.38475269 377.60275656 20.38475269 374.03469467 20.38145924 C373.37479991 20.38357653 372.71490516 20.38569383 372.03501359 20.38787529 C369.81415788 20.39252272 367.5935963 20.38281767 365.37275982 20.37320518 C363.76832333 20.37352692 362.16388682 20.37471582 360.55945152 20.37669951 C356.14288913 20.37955099 351.72643042 20.36976725 347.30988634 20.35789788 C342.54976541 20.34723614 337.78964426 20.34805006 333.02951336 20.3472805 C322.61856157 20.34333447 312.20766918 20.32435853 301.79674172 20.302531 C295.29931748 20.28901199 288.80189076 20.27878827 282.30445957 20.26927948 C264.32319336 20.24253649 246.34194086 20.21263914 228.36070633 20.16918659 C227.20970385 20.16640655 226.05870136 20.16362651 224.87282002 20.16076222 C222.53936223 20.15511183 220.20590444 20.14945873 217.87244666 20.14380293 C216.71408061 20.14099875 215.55571456 20.13819456 214.36224651 20.1353054 C213.20247093 20.13249534 212.04269534 20.12968527 210.84777503 20.12679005 C192.0435129 20.08184402 173.23930451 20.06037375 154.43499482 20.04924398 C135.13982791 20.03751913 115.84476544 20.00720675 96.54965729 19.95783049 C85.71163898 19.93050949 74.87373589 19.91112388 64.03567982 19.91199112 C54.80951138 19.91261533 45.5835722 19.89619783 36.3574819 19.85737788 C31.64798691 19.83806785 26.93883727 19.82690262 22.22930622 19.83733368 C17.92052846 19.84667972 13.61245966 19.8331483 9.30379616 19.80115122 C7.74261655 19.79362486 6.18136898 19.79458331 4.62020428 19.80474269 C2.50171554 19.81729301 0.38561779 19.79926366 -1.73270035 19.77345753 C-2.91032312 19.77123422 -4.0879459 19.76901091 -5.30125421 19.76672024 C-9.36514082 18.94405058 -10.84485039 17.326765 -13.41192341 14.13701439 C-14.53692341 10.69951439 -14.53692341 10.69951439 -14.41192341 7.13701439 C-10.94542003 0.83812411 -6.76593773 0.01342887 0 0 Z " fill="#202F50" transform="translate(324.4119234085083,253.8629856109619)"/>
<path d="M0 0 C1.30762125 -0.00576172 1.30762125 -0.00576172 2.64165908 -0.01163983 C4.08691027 -0.01034011 4.08691027 -0.01034011 5.56135845 -0.00901413 C6.58042756 -0.01198525 7.59949667 -0.01495637 8.64944667 -0.01801753 C12.08645664 -0.0267343 15.52343191 -0.02821529 18.96045208 -0.02970505 C21.41565813 -0.03433111 23.87086345 -0.03935548 26.32606792 -0.04475021 C33.01202373 -0.05789646 39.69796587 -0.0643599 46.3839314 -0.06876087 C50.55731951 -0.0715217 54.73070529 -0.07575877 58.90409184 -0.08026505 C70.45492215 -0.09245929 82.0057506 -0.10275814 93.55658722 -0.10614014 C94.29616198 -0.1063597 95.03573674 -0.10657927 95.79772286 -0.10680549 C96.90976811 -0.10713291 96.90976811 -0.10713291 98.04427892 -0.10746694 C99.54661008 -0.10791041 101.04894124 -0.10835697 102.55127239 -0.10880661 C103.29648353 -0.10902804 104.04169467 -0.10924947 104.80948796 -0.10947761 C116.88548229 -0.11342589 128.96141627 -0.13088012 141.03738729 -0.15416613 C153.43032316 -0.17787078 165.82322874 -0.19034159 178.21618766 -0.19150805 C185.1765011 -0.19242534 192.13673596 -0.19819106 199.09702778 -0.21632767 C205.64278982 -0.23332376 212.18842886 -0.2349879 218.73421574 -0.22618866 C221.13966934 -0.22541564 223.54513082 -0.22979569 225.95056438 -0.23964691 C229.22880527 -0.25228751 232.50651055 -0.24653235 235.78474712 -0.23606491 C236.74155575 -0.24412132 237.69836438 -0.25217772 238.68416721 -0.26047826 C244.73831117 -0.21511992 248.08516705 0.72351472 252.73852825 4.75642776 C254.25539151 7.95869465 254.00617782 10.43123936 253.7736845 13.91267776 C252.40947828 17.23829635 250.05188617 18.72701924 246.86352825 20.13142776 C243.51110836 20.69949937 240.2125165 20.66311855 236.81875896 20.62590408 C235.30657978 20.63314733 235.30657978 20.63314733 233.76385152 20.6405369 C230.38747064 20.65180396 227.01184774 20.63449084 223.63550091 20.61726761 C221.21412736 20.61941359 218.79275482 20.62329146 216.37138653 20.62877274 C210.47790429 20.63746412 204.58462621 20.62758803 198.69118287 20.60907213 C191.82407181 20.58827532 184.95700903 20.58844531 178.0898724 20.58941729 C165.8333874 20.59041816 153.57700682 20.57210718 141.3205595 20.54304886 C129.43610004 20.51488716 117.55173248 20.50070684 105.66723919 20.50203323 C104.93555085 20.50211315 104.20386251 20.50219306 103.45000179 20.50227539 C102.71956143 20.5023561 101.98912107 20.50243681 101.23654616 20.50251997 C87.69693048 20.5039013 74.15735375 20.49210848 60.61775071 20.47421353 C55.8349559 20.46819085 51.05216826 20.46605558 46.26937008 20.46514893 C39.82613932 20.46363857 33.38298585 20.45091169 26.93978596 20.43081665 C24.57591308 20.42498077 22.2120291 20.42251306 19.8481493 20.42367172 C16.6194191 20.42465531 13.39095754 20.41332027 10.16226482 20.3988533 C9.22859604 20.40195051 8.29492727 20.40504771 7.33296549 20.40823877 C1.84946468 20.36771457 -2.89882486 19.81059379 -8.13647175 18.13142776 C-10.7791866 15.32354323 -11.3574293 12.81507261 -11.63647175 9.06892776 C-11.13647175 5.13142776 -11.13647175 5.13142776 -8.76147175 2.69392776 C-5.46582604 0.73223389 -3.78882864 0.00624729 0 0 Z " fill="#222E4B" transform="translate(433.13647174835205,286.8685722351074)"/>
<path d="M0 0 C2.61330857 -0.17399199 5.16200534 -0.15164214 7.7796936 -0.06352234 C8.72846375 -0.05503265 9.67723389 -0.04654297 10.65475464 -0.03779602 C13.68193639 -0.00423684 16.70644364 0.07104734 19.7328186 0.14741516 C21.78616552 0.1775115 23.83955424 0.20488788 25.89297485 0.22944641 C30.92395159 0.29556296 35.95293186 0.39910262 40.9828186 0.52241516 C40.57271545 0.99718292 40.1626123 1.47195068 39.74008179 1.96110535 C39.20111267 2.58703583 38.66214355 3.21296631 38.10684204 3.85786438 C37.57298889 4.47700714 37.03913574 5.0961499 36.48910522 5.73405457 C34.61538748 7.95865308 32.91392466 10.27452652 31.2328186 12.64741516 C27.90263019 17.2831888 24.46859351 21.82296052 20.9737854 26.33564758 C17.61830692 30.67665121 14.3257042 35.06198341 11.0453186 39.45991516 C6.82294643 45.11511848 2.51728904 50.69307168 -1.86581421 56.22431946 C-5.38840906 60.68454245 -8.80826518 65.21558342 -12.2046814 69.77241516 C-16.04956041 74.92962911 -19.96064291 80.01157615 -24.00546265 85.01460266 C-26.47842431 88.09740147 -28.91050472 91.20981623 -31.3296814 94.33491516 C-31.75072144 94.87462952 -32.17176147 95.41434387 -32.6055603 95.97041321 C-34.97484469 99.04151341 -37.09346193 102.1543497 -39.0171814 105.52241516 C-43.34660434 101.50958622 -46.55342783 97.10461175 -49.8296814 92.20991516 C-50.33177124 91.46934875 -50.83386108 90.72878235 -51.35116577 89.96577454 C-52.5781091 88.15457247 -53.79993405 86.34014138 -55.0171814 84.52241516 C-54.70853149 85.13810364 -54.39988159 85.75379211 -54.08187866 86.38813782 C-49.00385516 96.56747317 -45.69773818 106.75174273 -49.2046814 118.08491516 C-54.12444949 131.05937335 -61.35848621 138.75506204 -74.0171814 144.52241516 C-82.41443992 147.90397013 -92.29469136 147.15951915 -101.0171814 145.52241516 C-98.34237166 140.68316169 -95.46224166 136.17330221 -92.2046814 131.70991516 C-91.31245227 130.47315384 -90.42052622 129.23617382 -89.52890015 127.99897766 C-89.09754761 127.40246399 -88.66619507 126.80595032 -88.22177124 126.19136047 C-81.14318715 116.38406399 -74.29298321 106.36620963 -67.8687439 96.11616516 C-62.94468138 88.28159729 -57.63375938 80.83489511 -52.10458374 73.414505 C-48.25720076 68.241229 -44.58869977 62.99656831 -41.0640564 57.59663391 C-38.49981722 53.74538156 -35.82371821 49.98002573 -33.1421814 46.20991516 C-28.90899939 40.24982269 -24.78042818 34.23517387 -20.74960327 28.13667297 C-17.15503684 22.70430487 -13.47378676 17.33424666 -9.77084351 11.97529602 C-9.33908813 11.35018127 -8.90733276 10.72506653 -8.4624939 10.08100891 C-8.08624878 9.5375885 -7.71000366 8.99416809 -7.32235718 8.4342804 C-5.85260876 6.38264871 -5.85260876 6.38264871 -4.47665405 3.33662415 C-2.0171814 0.52241516 -2.0171814 0.52241516 0 0 Z " fill="#6CABC7" transform="translate(590.0171813964844,306.4775848388672)"/>
<path d="M0 0 C3.10501256 1.84622368 3.83621763 2.50865288 5 6 C6.67712813 20.13579423 -1.86526116 34.08912895 -10.19921875 44.8359375 C-12.4252162 47.5948138 -14.69814993 50.30425045 -17 53 C-17.60972656 53.73347656 -18.21945312 54.46695313 -18.84765625 55.22265625 C-22.24205658 59.23562612 -25.83447632 62.70128766 -29.84375 66.09375 C-32.28438287 68.25141094 -34.53810639 70.5430268 -36.8125 72.875 C-47.37965533 83.5074855 -47.37965533 83.5074855 -53 87 C-56.26391157 86.61834146 -57.92334058 85.45444333 -60.21704102 83.17114258 C-60.82189835 82.57574173 -61.42675568 81.98034088 -62.04994202 81.36689758 C-62.69475021 80.71601669 -63.33955841 80.0651358 -64.00390625 79.39453125 C-64.68243149 78.71887619 -65.36095673 78.04322113 -66.06004333 77.34709167 C-67.50018453 75.90899378 -68.93653684 74.4670932 -70.36938477 73.02172852 C-72.51985542 70.8554579 -74.68549472 68.70532854 -76.85351562 66.55664062 C-87.36344029 56.06382977 -97.53841653 45.17072731 -104.9375 32.1875 C-105.30029053 31.56061279 -105.66308105 30.93372559 -106.03686523 30.2878418 C-107.03977299 28.5338298 -108.02083352 26.76737519 -109 25 C-109.71542969 23.75089844 -109.71542969 23.75089844 -110.4453125 22.4765625 C-113.4232601 16.70809058 -114.25903581 10.39701281 -113 4 C-111.09464295 1.47508364 -109.91139639 0.22173508 -106.81640625 -0.53125 C-106.07261719 -0.5209375 -105.32882812 -0.510625 -104.5625 -0.5 C-103.82128906 -0.5103125 -103.08007812 -0.520625 -102.31640625 -0.53125 C-98.98238253 0.23338276 -97.42640909 1.58902117 -95 4 C-93.48499677 6.42357507 -92.30823993 8.96400633 -91.125 11.5625 C-82.25057156 30.0835012 -69.5562136 43.79221354 -55 58 C-51.24539101 56.26790002 -49.16036559 54.20001517 -46.4375 51.0625 C-40.70047274 44.49345866 -40.70047274 44.49345866 -39 43 C-38.34 43 -37.68 43 -37 43 C-36.63261719 42.14535156 -36.63261719 42.14535156 -36.2578125 41.2734375 C-34.7844656 38.61043162 -33.0042591 36.79877323 -30.875 34.625 C-23.47719368 26.54816798 -18.72995214 17.28622079 -14.9296875 7.0625 C-13.54751671 3.99617152 -11.60692239 2.07216908 -9 0 C-5.43564899 -1.188117 -3.62175183 -0.88695963 0 0 Z " fill="#232E4B" transform="translate(565,416)"/>
<path d="M0 0 C0.73481917 -0.00467997 1.46963833 -0.00935994 2.22672474 -0.01418173 C4.66624129 -0.02605918 7.10518847 -0.0167033 9.54470825 -0.00723267 C11.30304286 -0.01130167 13.06137491 -0.0166454 14.81970215 -0.02316284 C19.58014274 -0.03680509 24.34038762 -0.03155003 29.10083151 -0.02202559 C34.09296271 -0.01441057 39.08507758 -0.02147993 44.07720947 -0.02618408 C52.46158849 -0.03163728 60.84588816 -0.0244625 69.23025513 -0.01016235 C78.90737015 0.00615265 88.58429542 0.00088223 98.26140583 -0.01564157 C106.58438862 -0.02928157 114.90731447 -0.0311635 123.23030484 -0.02332556 C128.19480631 -0.01866148 133.15921878 -0.01798906 138.12371445 -0.02793503 C142.79415584 -0.03663866 147.46435414 -0.03052102 152.13476944 -0.01325226 C153.84310758 -0.00930504 155.55146638 -0.01039101 157.25979614 -0.01704025 C179.54866618 -0.09575593 179.54866618 -0.09575593 186.70925903 6.81845093 C187.63545044 7.68276733 187.63545044 7.68276733 188.58035278 8.56454468 C193.27175903 13.60265993 193.27175903 13.60265993 193.27175903 16.38095093 C167.96610686 16.40439458 142.66045633 16.42198612 117.35479546 16.4327631 C105.60282908 16.43790182 93.85086949 16.44489791 82.09890747 16.45639038 C71.84633763 16.46641172 61.59377269 16.47282195 51.34119809 16.47503942 C45.92126489 16.47633397 40.50134574 16.47933917 35.08141708 16.48668098 C29.96134371 16.49355925 24.84128994 16.49554436 19.72121239 16.49405861 C17.85988572 16.49432971 15.99855826 16.49626384 14.13723564 16.5001564 C0.8232344 16.52659166 -12.43309157 16.08771876 -25.72824097 15.38095093 C-24.32138237 11.64338382 -23.13289839 9.39935721 -20.10324097 6.75595093 C-19.47160034 6.1861853 -18.83995972 5.61641968 -18.18917847 5.02938843 C-12.39230023 1.14640015 -6.88746308 0.00596032 0 0 Z " fill="#588CA9" transform="translate(427.7282409667969,790.6190490722656)"/>
<path d="M0 0 C15.84 0 31.68 0 48 0 C41.26952141 10.09571788 41.26952141 10.09571788 37.1875 14.875 C36.31592981 15.90324218 35.44484625 16.93189701 34.57421875 17.9609375 C33.72472656 18.96382813 32.87523437 19.96671875 32 21 C30.49567798 22.82978862 28.99552718 24.66301618 27.5 26.5 C24.36825325 30.34300614 21.19447552 34.14652519 18 37.9375 C9.72807477 47.44229746 9.72807477 47.44229746 3 58 C2.34 58 1.68 58 1 58 C0.74089844 58.74378906 0.48179687 59.48757813 0.21484375 60.25390625 C-1.03842927 63.08686745 -2.31385238 64.70789075 -4.4375 66.9375 C-11.72813192 74.88851524 -18.18956937 83.53953912 -24.625 92.1875 C-30.14206133 99.58270987 -36.00566486 106.66751523 -41.98974609 113.68676758 C-48.19661155 120.97113788 -54.13515377 128.43859555 -60 136 C-60.74121094 136.95132813 -61.48242188 137.90265625 -62.24609375 138.8828125 C-63.83309833 140.92005379 -65.41790989 142.95894177 -67 145 C-67.99 144.34 -68.98 143.68 -70 143 C-69.51080078 142.07380859 -69.51080078 142.07380859 -69.01171875 141.12890625 C-64.96672134 133.28948649 -61.75773582 126.82289088 -62.125 117.875 C-62.25320063 113.69779629 -62.03490035 111.21072898 -59.625 107.75 C-58.75875 106.8425 -57.8925 105.935 -57 105 C-56.34 105 -55.68 105 -55 105 C-54.7525 104.46375 -54.505 103.9275 -54.25 103.375 C-51.12900783 97.44511487 -46.06392906 88.03196453 -40 85 C-39.58621094 84.30777344 -39.17242188 83.61554688 -38.74609375 82.90234375 C-36.50294944 79.17380635 -33.81452748 75.92459934 -31.0625 72.5625 C-28.19531897 69.0550405 -25.3964127 65.59645091 -22.88671875 61.8203125 C-21.03007255 59.04495317 -19.03899288 56.73735037 -16.75 54.3125 C-12.85524885 50.06252725 -9.49972036 45.62860515 -6.171875 40.9296875 C-3.70364018 37.60023406 -1.07247767 34.45660996 1.625 31.3125 C8.11144353 23.73896138 13.89981226 15.78687181 19.66235352 7.65844727 C22.89562884 3.10437116 22.89562884 3.10437116 24 2 C16.08 1.67 8.16 1.34 0 1 C0 0.67 0 0.34 0 0 Z " fill="#5288A8" transform="translate(631,307)"/>
<path d="M0 0 C29.27082789 -0.03113718 58.54165779 -0.05114889 87.8125 -0.0625 C89.44404974 -0.06315145 89.44404974 -0.06315145 91.10856009 -0.06381607 C152.26173641 -0.08757128 213.41112188 0.01043278 274.5625 0.5 C275.31096962 0.50597372 276.05943925 0.51194743 276.83058977 0.51810217 C295.2205173 0.66513455 313.61032023 0.82451021 332 1 C330.53528034 6.00445885 328.70958719 9.25822241 326 14 C281.78 14 237.56 14 192 14 C191 4 191 4 192 1 C128.64 1 65.28 1 0 1 C0 0.67 0 0.34 0 0 Z " fill="#B4D3DB" transform="translate(319,273)"/>
<path d="M0 0 C37.95 0 75.9 0 115 0 C110.98069823 10.04825443 110.98069823 10.04825443 107 14 C103.48829278 15.26237389 100.19640347 15.14401873 96.49658203 15.02172852 C94.92981972 15.02369987 94.92981972 15.02369987 93.33140564 15.02571106 C89.88847902 15.01945432 86.44997015 14.94952536 83.0078125 14.87890625 C80.61744583 14.86211514 78.22704814 14.84930635 75.8366394 14.84031677 C69.55251174 14.80599314 63.27026367 14.71761909 56.98687744 14.61798096 C50.57223946 14.52582623 44.15729699 14.48479008 37.7421875 14.43945312 C25.1606336 14.3430008 12.58047324 14.18944454 0 14 C0 9.38 0 4.76 0 0 Z " fill="#B3D6E0" transform="translate(511,240)"/>
<path d="M0 0 C0.88874313 -0.00043808 1.77748627 -0.00087616 2.69316101 -0.00132751 C5.60426501 0.00074739 8.51477898 0.02401672 11.42578125 0.04760742 C13.45458664 0.053208 15.48339612 0.05747592 17.51220703 0.06047058 C22.83216707 0.07188297 28.15187842 0.10131902 33.47174072 0.13458252 C38.9082096 0.16536131 44.34471896 0.17899257 49.78125 0.1940918 C60.43370256 0.22619225 71.08597116 0.27734481 81.73828125 0.34057617 C81.73828125 5.29057617 81.73828125 10.24057617 81.73828125 15.34057617 C45.76828125 15.34057617 9.79828125 15.34057617 -27.26171875 15.34057617 C-25.48794475 10.90614116 -24.95907186 9.61436235 -21.63671875 6.71557617 C-21.00507813 6.14581055 -20.3734375 5.57604492 -19.72265625 4.98901367 C-13.37321553 0.73589624 -7.43002003 -0.09747422 0 0 Z " fill="#FAFAFA" transform="translate(429.26171875,790.659423828125)"/>
<path d="M0 0 C4.42400903 2.21200452 6.99652723 4.46582478 9 9 C10.54113347 14.834291 9.73691204 18.79138058 7 24 C2.99777247 29.78099533 -1.23862084 32.90293108 -8 34.875 C-11.81444227 35.03393509 -14.46191031 34.44144395 -18 33 C-22.24196976 28.64639945 -23.16010785 25.14285525 -23.25 19.1875 C-23.17978674 14.32523209 -23.03139701 10.97870857 -20 7 C-13.7217388 1.46728231 -8.45659569 -1.04081178 0 0 Z " fill="#FCFEFD" transform="translate(497,384)"/>
<path d="M0 0 C1.37112861 0.03063766 2.74224265 0.0619336 4.11334229 0.09384155 C5.5200825 0.10503722 6.92684616 0.11357567 8.33361816 0.11956787 C12.02991737 0.14243842 15.72479383 0.20134209 19.42053223 0.26779175 C23.19424187 0.32925513 26.96818225 0.35659127 30.74224854 0.3868103 C38.14263561 0.45109069 45.54185184 0.55344415 52.94146729 0.67977905 C51.62085534 4.13879518 50.38483161 6.62745197 47.87896729 9.36727905 C46.26696717 11.14481463 45.01653296 12.5296477 43.94146729 14.67977905 C23.48146729 14.67977905 3.02146729 14.67977905 -18.05853271 14.67977905 C-16.73853271 12.03977905 -15.41853271 9.39977905 -14.05853271 6.67977905 C-13.60832764 5.53686401 -13.15812256 4.39394897 -12.6942749 3.21640015 C-8.78935428 -0.54167 -5.27271474 -0.00189493 0 0 Z " fill="#6DA2BB" transform="translate(636.0585327148438,239.32022094726563)"/>
<path d="M0 0 C0.85980469 -0.020625 1.71960938 -0.04125 2.60546875 -0.0625 C7.48247579 -0.09255859 10.80763299 0.04538588 14.75 3.25 C16.88652389 5.9759098 17.68022289 7.83133734 18.25 11.25 C17.57903137 15.27581176 15.83131146 16.68224045 12.75 19.25 C9.39932051 20.92533975 5.68081208 20.51881948 2 20.5625 C1.20078125 20.59150391 0.4015625 20.62050781 -0.421875 20.65039062 C-5.86981993 20.70863346 -8.92452429 19.86803809 -13.25 16.25 C-15.59223128 13.05604825 -15.8051413 10.1359891 -15.25 6.25 C-12.8125 3.4375 -12.8125 3.4375 -10.25 1.25 C-8.02365101 -0.97634899 -2.98808934 0.01760288 0 0 Z " fill="#1E2D4E" transform="translate(351.25,286.75)"/>
<path d="M0 0 C1.7937117 0.00125953 3.58775099 0.04607174 5.37963867 0.12695312 C6.32699387 0.13827271 7.27434906 0.14959229 8.25041199 0.16125488 C11.26822521 0.20594455 14.28123785 0.30628738 17.29760742 0.40820312 C19.34636679 0.44833997 21.39520084 0.48484039 23.4440918 0.51757812 C28.45960565 0.60565549 33.47154358 0.7436476 38.48510742 0.90820312 C37.02038776 5.91266197 35.19469462 9.16642553 32.48510742 13.90820312 C17.96510742 13.90820312 3.44510742 13.90820312 -11.51489258 13.90820312 C-6.16967283 0.54515376 -6.16967283 0.54515376 0 0 Z " fill="#9DC8DA" transform="translate(612.514892578125,273.091796875)"/>
<path d="M0 0 C20.04626926 -0.02344061 40.09253572 -0.04103372 60.13881588 -0.05181217 C69.44826149 -0.05695153 78.75769855 -0.06394886 88.06713867 -0.07543945 C96.18854404 -0.08545882 104.30994321 -0.09187056 112.43135458 -0.09408849 C116.72491923 -0.09538337 121.01846615 -0.09839073 125.31202507 -0.10573006 C129.36753795 -0.11260517 133.42302609 -0.11459404 137.47854424 -0.11310768 C138.95334509 -0.11337892 140.42814691 -0.11531498 141.90294266 -0.11920547 C152.30566798 -0.14526132 162.62339348 0.29197711 173 1 C169.51005391 5.25188851 166.70946497 8.15241653 162 11 C164.58083479 12.2904174 167.25987959 13.10648248 170 14 C166.33701257 15.22099581 163.06979302 15.01998953 159.26953125 14.87890625 C158.51911057 14.85529526 157.76868988 14.83168427 156.99552917 14.80735779 C154.60098781 14.73084327 152.20677987 14.64676674 149.8125 14.5625 C148.1881673 14.50926706 146.56381838 14.45652674 144.93945312 14.40429688 C140.95942466 14.27524473 136.97967856 14.13941046 133 14 C134.46471966 8.99554115 136.29041281 5.74177759 139 1 C93.13 1 47.26 1 0 1 C0 0.67 0 0.34 0 0 Z " fill="#557B97" transform="translate(512,273)"/>
<path d="M0 0 C19.8 0 39.6 0 60 0 C59.34 1.32 58.68 2.64 58 4 C57.01 4 56.02 4 55 4 C55 3.34 55 2.68 55 2 C50.57101901 1.85079877 46.14339827 1.74239248 41.71264648 1.67041016 C40.20815528 1.64038168 38.70383703 1.59954394 37.19995117 1.54736328 C27.30578402 0.87682053 27.30578402 0.87682053 18.59765625 4.7734375 C16.53343518 6.96252047 15.26686849 9.28016517 14 12 C14.99 12.66 15.98 13.32 17 14 C8.42 14 -0.16 14 -9 14 C-7.38664766 9.96661916 -6.65976646 8.28893385 -3.9375 5.3125 C-2.32549989 3.53496443 -1.07506568 2.15013135 0 0 Z " fill="#457595" transform="translate(689,240)"/>
<path d="M0 0 C5.28 0 10.56 0 16 0 C13.79276025 4.4144795 11.40755348 8.69174641 9 13 C4.05 13 -0.9 13 -6 13 C-4.30119563 7.90358688 -2.69062201 4.48437002 0 0 Z " fill="#6A9AB9" transform="translate(651,274)"/>
<path d="M0 0 C-0.33 0.66 -0.66 1.32 -1 2 C-3.64 2 -6.28 2 -9 2 C-9.99 5.63 -10.98 9.26 -12 13 C-16.62 13 -21.24 13 -26 13 C-20.45926258 -0.85184354 -13.72197519 -1.11134107 0 0 Z " fill="#5A8CAA" transform="translate(706,241)"/>
<path d="M0 0 C19.8 0 39.6 0 60 0 C59.34 1.32 58.68 2.64 58 4 C57.01 4 56.02 4 55 4 C55 3.34 55 2.68 55 2 C50.49765627 1.95055295 45.9954707 1.91425839 41.49291992 1.89013672 C39.96131639 1.88008065 38.42973205 1.866434 36.89819336 1.84912109 C34.69640364 1.82485502 32.49486781 1.81351312 30.29296875 1.8046875 C29.26625313 1.78920364 29.26625313 1.78920364 28.21879578 1.77340698 C24.56938339 1.77254618 23.12851498 1.91432334 20 4 C19.51015625 3.68289062 19.0203125 3.36578125 18.515625 3.0390625 C14.998323 1.58626385 11.50334607 1.53415248 7.75 1.375 C7.00492188 1.33632812 6.25984375 1.29765625 5.4921875 1.2578125 C3.6618476 1.16394892 1.83095857 1.08090282 0 1 C0 0.67 0 0.34 0 0 Z " fill="#527C99" transform="translate(689,240)"/>
<path d="M0 0 C0 4.23268117 -2.43760863 6.12411567 -5.125 9.125 C-9.10689794 13.6768346 -12.70218754 18.22492217 -15.87890625 23.390625 C-17 25 -17 25 -19 26 C-19.28875 26.598125 -19.5775 27.19625 -19.875 27.8125 C-21.19965085 30.38820998 -22.89415861 32.03454804 -25 34 C-25.66 33.67 -26.32 33.34 -27 33 C-25.625 31 -25.625 31 -24 29 C-23.34 29 -22.68 29 -22 29 C-21.77441406 28.30132812 -21.54882812 27.60265625 -21.31640625 26.8828125 C-19.71377611 23.37319516 -17.46604552 20.73746366 -14.9375 17.875 C-13.9497089 16.73377519 -12.96274409 15.5918347 -11.9765625 14.44921875 C-11.4805957 13.8773584 -10.98462891 13.30549805 -10.47363281 12.71630859 C-6.89614576 8.549686 -3.46053516 4.2637211 0 0 Z " fill="#70A7C2" transform="translate(673,370)"/>
<path d="M0 0 C2.52689194 3.21887158 4.61942974 6.59584027 6.6875 10.125 C7.31011719 11.17945313 7.93273437 12.23390625 8.57421875 13.3203125 C10 16 10 16 10 18 C5.93570695 16.64523565 4.29023202 13.86732088 1.8125 10.5625 C1.34908203 9.96373047 0.88566406 9.36496094 0.40820312 8.74804688 C-3 4.26568253 -3 4.26568253 -3 2 C-2.01 2 -1.02 2 0 2 C0 1.34 0 0.68 0 0 Z " fill="#C5DFE6" transform="translate(453,435)"/>
<path d="M0 0 C0.66 0.66 1.32 1.32 2 2 C-0.898857 4.41571416 -3.58856022 6.4008876 -7 8 C-11.49186392 10.3641389 -14.5221076 13.36034517 -18 17 C-18.66 16.67 -19.32 16.34 -20 16 C-13.95905595 9.42208315 -7.71909968 4.48717757 0 0 Z " fill="#1E3754" transform="translate(470,738)"/>
<path d="M0 0 C0 4.15242757 -2.21390731 6.2593258 -4.6875 9.375 C-5.34008789 10.22191406 -5.34008789 10.22191406 -6.00585938 11.0859375 C-8.79032775 14.65005701 -11.74111548 17.86442462 -15 21 C-15 16.70946668 -12.45982637 14.68648323 -9.75 11.625 C-8.76504611 10.4926908 -7.78066228 9.35988544 -6.796875 8.2265625 C-6.32314453 7.68418945 -5.84941406 7.14181641 -5.36132812 6.58300781 C-3.51455223 4.43550155 -1.75081791 2.22603992 0 0 Z " fill="#1E3957" transform="translate(562,473)"/>
<path d="M0 0 C0 3.53105585 -0.50159211 3.88979005 -2.8125 6.375 C-5.26973855 9.10846209 -7.11951838 11.83737182 -9 15 C-10.29579647 16.36984198 -11.61992749 17.7151049 -13 19 C-13.66 18.67 -14.32 18.34 -15 18 C-10 12 -5 6 0 0 Z " fill="#70A8C4" transform="translate(689,350)"/>
<path d="M0 0 C10.395 0.99 10.395 0.99 21 2 C21 2.33 21 2.66 21 3 C13.74 3 6.48 3 -1 3 C-0.67 2.01 -0.34 1.02 0 0 Z " fill="#DBD1DF" transform="translate(403,803)"/>
<path d="M0 0 C0.33 0.66 0.66 1.32 1 2 C-0.07972738 3.4194169 -1.16395863 4.8354083 -2.25 6.25 C-3.15492188 7.43335938 -3.15492188 7.43335938 -4.078125 8.640625 C-5.93182995 10.91631157 -7.88898954 12.96371558 -10 15 C-10.66 14.67 -11.32 14.34 -12 14 C-8.04 9.38 -4.08 4.76 0 0 Z " fill="#6FA6BF" transform="translate(645,405)"/>
<path d="M0 0 C0.76171875 1.6796875 0.76171875 1.6796875 1 4 C-0.73046875 6.5078125 -0.73046875 6.5078125 -3.1875 9.125 C-3.98542969 9.99382812 -4.78335938 10.86265625 -5.60546875 11.7578125 C-7.71724149 13.73523102 -9.35036679 14.91578227 -12 16 C-10 13.33333333 -8 10.66666667 -6 8 C-5.48050781 7.25234375 -4.96101562 6.5046875 -4.42578125 5.734375 C-3.95527344 5.16203125 -3.48476563 4.5896875 -3 4 C-2.34 4 -1.68 4 -1 4 C-0.67 2.68 -0.34 1.36 0 0 Z " fill="#73ABC3" transform="translate(570,497)"/>
<path d="M0 0 C0 5.62477911 -5.03601863 10.15001868 -8.875 14 C-9.57625 14.66 -10.2775 15.32 -11 16 C-10.50485982 11.65962225 -7.68886128 8.91387625 -4.9375 5.75 C-4.46505859 5.19570313 -3.99261719 4.64140625 -3.50585938 4.0703125 C-2.34341033 2.708251 -1.17252145 1.35340044 0 0 Z " fill="#74ABC5" transform="translate(730,299)"/>
<path d="M0 0 C3.9252025 3.70090521 6.94580156 7.54959656 10 12 C9.01 12.66 8.02 13.32 7 14 C6.01780373 12.23084525 5.03934641 10.45961431 4.0625 8.6875 C3.51722656 7.70136719 2.97195313 6.71523438 2.41015625 5.69921875 C1 3 1 3 0 0 Z " fill="#4E8CA9" transform="translate(533,389)"/>
<path d="M0 0 C0.66 0.99 1.32 1.98 2 3 C-1.33333333 6.33333333 -4.66666667 9.66666667 -8 13 C-8.66 12.67 -9.32 12.34 -10 12 C-9.44570313 11.38511719 -8.89140625 10.77023437 -8.3203125 10.13671875 C-7.59585938 9.32847656 -6.87140625 8.52023437 -6.125 7.6875 C-5.40570312 6.88699219 -4.68640625 6.08648437 -3.9453125 5.26171875 C-1.88394498 2.95810917 -1.88394498 2.95810917 0 0 Z " fill="#70A6C0" transform="translate(625,429)"/>
<path d="M0 0 C0.33 0.99 0.66 1.98 1 3 C-1.97 6.3 -4.94 9.6 -8 13 C-8.66 12.67 -9.32 12.34 -10 12 C-9.44570313 11.38511719 -8.89140625 10.77023437 -8.3203125 10.13671875 C-7.59585938 9.32847656 -6.87140625 8.52023437 -6.125 7.6875 C-5.40570312 6.88699219 -4.68640625 6.08648437 -3.9453125 5.26171875 C-1.88394498 2.95810917 -1.88394498 2.95810917 0 0 Z " fill="#213B58" transform="translate(603,422)"/>
<path d="M0 0 C0 3.59857954 -0.95830515 5.09451118 -3 8 C-3.66 8 -4.32 8 -5 8 C-5.33 8.99 -5.66 9.98 -6 11 C-6.66 11 -7.32 11 -8 11 C-6.63629701 8.00779732 -5.05091917 5.70973471 -2.875 3.25 C-2.33617187 2.63640625 -1.79734375 2.0228125 -1.2421875 1.390625 C-0.62730469 0.70226562 -0.62730469 0.70226562 0 0 Z " fill="#1F3B5A" transform="translate(592,436)"/>
<path d="M0 0 C0.33 0.66 0.66 1.32 1 2 C0.07456291 3.34173403 -0.86577405 4.67320159 -1.8125 6 C-2.33457031 6.7425 -2.85664062 7.485 -3.39453125 8.25 C-3.92433594 8.8275 -4.45414063 9.405 -5 10 C-5.99 10 -6.98 10 -8 10 C-5.36 6.7 -2.72 3.4 0 0 Z " fill="#6DA2BE" transform="translate(607,451)"/>
<path d="M0 0 C0.33 1.32 0.66 2.64 1 4 C-0.65 5.32 -2.3 6.64 -4 8 C-4.66 7.67 -5.32 7.34 -6 7 C-4.02 4.69 -2.04 2.38 0 0 Z " fill="#1F3755" transform="translate(638,379)"/>
<path d="M0 0 C0.66 0.66 1.32 1.32 2 2 C-0.31 4.64 -2.62 7.28 -5 10 C-5.66 9.67 -6.32 9.34 -7 9 C-4.69 6.03 -2.38 3.06 0 0 Z " fill="#213858" transform="translate(677,330)"/>
<path d="M0 0 C0.33 0.99 0.66 1.98 1 3 C-1.31 5.31 -3.62 7.62 -6 10 C-6.66 9.67 -7.32 9.34 -8 9 C-5.36 6.03 -2.72 3.06 0 0 Z " fill="#73A9C5" transform="translate(706,329)"/>
<path d="M0 0 C1 2 1 2 0.375 4 C-1.39265071 6.57112831 -3.07589059 7.07659703 -6 8 C-4.02 5.36 -2.04 2.72 0 0 Z " fill="#70A7BD" transform="translate(632,421)"/>
</svg>
