<?xml version="1.0" encoding="UTF-8"?>
<svg version="1.1" xmlns="http://www.w3.org/2000/svg" width="1024" height="1024">
<path d="M0 0 C337.92 0 675.84 0 1024 0 C1024 337.92 1024 675.84 1024 1024 C686.08 1024 348.16 1024 0 1024 C0 686.08 0 348.16 0 0 Z " fill="#FEEFD4" transform="translate(0,0)"/>
<path d="M0 0 C4.2342535 0.01139334 8.46825536 0.00459288 12.70250034 -0.00687504 C41.89982943 -0.07389048 71.13270078 0.66428691 100.14453125 4.19824219 C101.65287564 4.37507831 103.16125872 4.55158473 104.66967773 4.7277832 C108.81002524 5.21717706 112.94631807 5.73359947 117.08203125 6.26074219 C118.10683594 6.3909375 119.13164063 6.52113281 120.1875 6.65527344 C161.4788152 12.07736533 161.4788152 12.07736533 173.08203125 24.26074219 C176.59116858 29.45301656 177.66883141 33.32838553 177.61688232 39.62940979 C177.62594455 40.4457075 177.63500678 41.2620052 177.64434361 42.10303921 C177.66956768 44.82584345 177.66639506 47.54784414 177.66308594 50.27075195 C177.67506317 52.22981792 177.6886758 54.18887447 177.70379639 56.1479187 C177.73912774 61.47018436 177.74850938 66.79219258 177.75105953 72.11456418 C177.7539106 75.45724644 177.76246638 78.79986424 177.7730484 82.14253044 C177.81009794 93.85735045 177.82638916 105.57198861 177.82324219 117.28686523 C177.82085874 128.1116788 177.86266401 138.93568222 177.92621684 149.76029164 C177.97911809 159.11300343 177.99995215 168.46545629 177.99742055 177.81831592 C177.99641513 183.37643048 178.00698282 188.93383043 178.05013275 194.49179268 C178.23282019 219.78554699 176.84454907 243.29456208 170.63647056 267.87514573 C168.72335234 275.49815102 167.26274006 283.20302281 165.81099653 290.92491734 C163.57134859 302.81419007 161.22319316 314.67811223 158.67895508 326.50634766 C157.48159752 332.1221604 156.49141121 337.74005703 155.63793945 343.41894531 C155.03796751 346.48599558 154.08280028 349.30186469 153.08203125 352.26074219 C151.85377226 357.23297133 150.81218233 362.24671946 149.76953125 367.26074219 C149.53950912 368.36538315 149.53950912 368.36538315 149.30484009 369.49234009 C143.20608457 399.09284359 139.74336594 429.41061189 138.42285156 459.59570312 C138.2987843 462.27785828 138.16385894 464.87398538 137.60717773 467.50512695 C136.94544714 470.97744367 136.68438245 474.44758372 136.43359375 477.96777344 C136.37653259 478.74008804 136.31947144 479.51240265 136.26068115 480.30812073 C136.07165837 482.89619432 135.8886782 485.48464087 135.70703125 488.07324219 C135.6430011 488.97689514 135.57897095 489.8805481 135.51300049 490.81158447 C132.85372727 528.57982017 130.77447315 566.4021509 130.08203125 604.26074219 C131.03227173 604.24503174 131.03227173 604.24503174 132.00170898 604.22900391 C245.48468473 602.64519416 245.48468473 602.64519416 267.8359375 621.76074219 C269.08203125 623.26074219 269.08203125 623.26074219 269.64453125 625.63574219 C268.97460549 628.76206241 267.81525202 630.13085538 265.25390625 632.01074219 C246.62892066 642.73015835 221.32058073 644.05747764 200.4855957 646.80737305 C198.1753761 647.11510404 195.86662307 647.43401093 193.55932617 647.76293945 C184.36856381 649.05329083 175.18802955 649.936444 165.93579102 650.63842773 C163.57303527 650.81914978 161.21139568 651.01117665 158.84960938 651.20410156 C129.34263184 653.53506645 99.72385973 653.50246257 70.14453125 653.51074219 C69.17595688 653.51133133 68.20738251 653.51192047 67.2094574 653.51252747 C37.39889356 653.52528943 7.77649902 653.14806496 -21.91796875 650.26074219 C-23.64434882 650.09842348 -25.37074891 649.93631755 -27.09716797 649.77441406 C-32.10308117 649.29885553 -37.10513344 648.79164327 -42.10546875 648.26074219 C-42.83995239 648.18319702 -43.57443604 648.10565186 -44.33117676 648.02575684 C-52.16276369 647.17886881 -59.75050369 645.98757591 -67.36889648 643.93896484 C-70.50379463 643.10487356 -73.66489007 642.52798887 -76.85546875 641.94824219 C-90.10238254 639.16096243 -102.22192318 632.74609755 -110.91796875 622.26074219 C-114.67482432 616.09801851 -116.95732333 610.48795473 -117.18334961 603.26220703 C-117.2168602 602.26530853 -117.25037079 601.26841003 -117.28489685 600.24130249 C-117.31720901 599.16232697 -117.34952118 598.08335144 -117.3828125 596.97167969 C-117.46154122 594.642251 -117.54031902 592.31282398 -117.61914062 589.98339844 C-117.73703284 586.34689571 -117.85312177 582.71034447 -117.9675293 579.07373047 C-118.44307889 564.16767485 -119.20858695 549.33724664 -120.42504883 534.47314453 C-120.90470093 528.57550122 -121.28644834 522.67559416 -121.62890625 516.76855469 C-121.68299149 515.84235825 -121.73707672 514.9161618 -121.7928009 513.9618988 C-121.9027658 512.07496331 -122.01252047 510.18801555 -122.12207031 508.30105591 C-123.38356369 486.78155576 -125.13289522 465.33517422 -127.19740295 443.87908936 C-127.74482313 438.16917447 -128.25269304 432.45702174 -128.734375 426.74121094 C-128.92409531 424.52437786 -129.11426334 422.30758348 -129.30444336 420.09078979 C-129.47172272 418.11409184 -129.63157451 416.13676946 -129.79101562 414.15942383 C-130.51037047 405.87967157 -131.81322981 397.80901905 -133.44229126 389.66717529 C-133.96487193 387.02346088 -134.46665154 384.37630675 -134.96557617 381.72802734 C-138.66951846 362.12330479 -142.72843165 342.59321467 -146.77532959 323.05718994 C-147.89556267 317.648967 -149.01378224 312.24033352 -150.12890625 306.83105469 C-150.28617943 306.06835518 -150.44345261 305.30565567 -150.60549164 304.51984406 C-153.32506294 291.31310827 -155.93043182 278.08568299 -158.46542358 264.84231567 C-158.59013739 264.1939431 -158.7148512 263.54557053 -158.84334421 262.8775503 C-159.23481543 260.8388559 -159.62330236 258.79958906 -160.01154709 256.76027775 C-160.58675662 253.8215385 -161.22791224 250.91114122 -161.93627739 248.0017519 C-164.76639816 236.14381112 -165.4929074 224.93658464 -165.43554688 212.77954102 C-165.44098402 210.80944302 -165.4481155 208.83934911 -165.45678711 206.8692627 C-165.47482101 201.58272521 -165.46804004 196.29650442 -165.45527077 191.00996232 C-165.44505434 185.45240902 -165.45455875 179.89488056 -165.46081543 174.33732605 C-165.46806022 165.02162867 -165.45858082 155.70605882 -165.43945312 146.39038086 C-165.41762007 135.6331193 -165.42479511 124.87616028 -165.44675875 114.11890584 C-165.46491946 104.85135686 -165.46746987 95.58389879 -165.45700407 86.31633776 C-165.4507819 80.79424905 -165.44989984 75.27230263 -165.46315002 69.75022316 C-165.47472014 64.56824435 -165.46666147 59.38665623 -165.443573 54.20471954 C-165.43829517 52.30686529 -165.43978378 50.40897801 -165.44862366 48.51113701 C-165.45959775 45.91553827 -165.4457946 43.32118234 -165.42590332 40.72566223 C-165.43928765 39.60693583 -165.43928765 39.60693583 -165.45294237 38.46560889 C-165.36067591 32.23512984 -163.3690937 27.05309103 -159.234375 22.34277344 C-133.05504097 3.39336685 -85.88354125 2.96210881 -54.61328125 1.19433594 C-53.84424469 1.15074699 -53.07520813 1.10715805 -52.28286743 1.06224823 C-34.85641872 0.1000077 -17.4492243 -0.04732633 0 0 Z " fill="#052637" transform="translate(504.91796875,193.7392578125)"/>
<path d="M0 0 C1.43518988 0.15026603 2.87010549 0.30315314 4.30490112 0.45713806 C5.10399839 0.54199431 5.90309566 0.62685057 6.726408 0.71427822 C9.52056761 1.06541961 12.16795694 1.69848159 14.8828125 2.44140625 C31.31009861 6.71540353 48.34277864 8.37981577 65.1875 10.1875 C65.95922546 10.27208466 66.73095093 10.35666931 67.52606201 10.44381714 C87.40695312 12.60273825 107.29495965 13.15789854 127.28125 13.1328125 C129.2373455 13.13348969 131.19344091 13.13446313 133.14953613 13.13571167 C137.20988787 13.13716917 141.27021731 13.1350979 145.33056641 13.13037109 C150.46646145 13.12467505 155.60230419 13.12796467 160.73819733 13.13394356 C164.76573054 13.13760248 168.79325189 13.13638647 172.82078552 13.13381577 C174.71170559 13.13316114 176.60262684 13.13392191 178.49354553 13.13629532 C192.02108656 13.14955956 205.49167152 12.72038311 219 12 C219.02364364 17.53589121 219.04283495 23.07173721 219.05493164 28.60766602 C219.05997244 30.4924373 219.06680498 32.37720465 219.07543945 34.26196289 C219.08751617 36.96501636 219.09323068 39.66801831 219.09765625 42.37109375 C219.10281754 43.21900986 219.10797882 44.06692596 219.11329651 44.9405365 C219.11349195 46.96071068 219.06206211 48.98077934 219 51 C218.67 51.33 218.34 51.66 218 52 C217.90145345 53.64340867 217.87027589 55.2911461 217.875 56.9375 C217.87242187 57.83339844 217.86984375 58.72929687 217.8671875 59.65234375 C217.84578587 62.02155555 217.84578587 62.02155555 219 64 C219.0928229 65.55205143 219.12209906 67.10809428 219.12046814 68.66291809 C219.12178427 69.6551343 219.1231004 70.6473505 219.12445641 71.66963387 C219.12068804 72.77099112 219.11691967 73.87234837 219.11303711 75.00708008 C219.11274726 76.76040303 219.11274726 76.76040303 219.11245155 78.54914665 C219.11053388 81.822341 219.10388527 85.09548568 219.09498715 88.36866736 C219.0880427 91.18830599 219.0846731 94.00794491 219.08117217 96.82758957 C219.03512858 132.54183256 218.84562498 168.2560072 218.64417708 203.9696511 C218.63873487 204.93478099 218.63329267 205.89991087 218.62768555 206.89428711 C218.62223233 207.86092226 218.61677911 208.82755741 218.61116064 209.82348454 C218.56642757 217.8244287 218.52678105 225.82539309 218.48800808 233.82636803 C218.44980484 241.65784036 218.40789838 249.4892873 218.36312145 257.32072479 C218.33673831 261.9482873 218.31187525 266.57584531 218.29092598 271.2034359 C218.2713773 275.49945145 218.24724002 279.7954165 218.21950912 284.0913868 C218.21016497 285.66157502 218.20248028 287.23177412 218.19658089 288.80197906 C218.18828443 290.94260029 218.17400284 293.08310137 218.15821838 295.22367859 C218.15176583 296.41908107 218.14531328 297.61448355 218.1386652 298.84611034 C218.01391949 301.68340618 217.65103531 304.24172531 217 307 C217.66 307.33 218.32 307.66 219 308 C218.44570313 308.24234375 217.89140625 308.4846875 217.3203125 308.734375 C216.59585938 309.06953125 215.87140625 309.4046875 215.125 309.75 C214.40570312 310.07484375 213.68640625 310.3996875 212.9453125 310.734375 C210.60712082 312.25560814 209.92855506 313.39120244 209 316 C209.08140376 320.47720675 209.45479273 322.40027201 212.5 325.75 C213.325 326.4925 214.15 327.235 215 328 C216.85137151 333.55411452 214.83177755 339.57637394 213 345 C209.875 347.4375 209.875 347.4375 207 349 C205.56994258 353.91582238 206.14652875 356.42083574 208 361 C208.59355234 370.20006129 207.39720004 379.79889015 205.00927734 388.68798828 C203.91092284 393.03014227 203.50369546 397.27769194 203.21875 401.73828125 C203.13117935 402.97794144 203.13117935 402.97794144 203.0418396 404.24264526 C202.85399099 406.93215482 202.67672403 409.62223847 202.5 412.3125 C202.37165663 414.18858536 202.2429083 416.06464305 202.11376953 417.94067383 C201.10596073 432.73903824 200.23462335 447.54483049 199.4296875 462.35546875 C199.0164953 469.90835062 198.52051693 477.45385651 198 485 C196.7313208 484.89389404 196.7313208 484.89389404 195.43701172 484.78564453 C181.15413687 483.76351451 166.86146945 483.8471686 152.55078125 483.86962891 C148.84965634 483.87535709 145.14860351 483.87201367 141.44748116 483.86605644 C138.55615713 483.86241793 135.66484981 483.86360389 132.77352524 483.86618423 C130.75584617 483.86715828 128.7381664 483.86416719 126.7204895 483.86105347 C119.42367991 483.87951834 112.25216191 484.17837956 105 485 C104.89510254 483.13081909 104.89510254 483.13081909 104.78808594 481.22387695 C104.52324259 476.59146596 104.23423723 471.96082211 103.93798828 467.33032227 C103.81324525 465.32779155 103.69501823 463.32484369 103.58349609 461.3215332 C103.42184421 458.43826443 103.23664488 455.55731922 103.046875 452.67578125 C103.0018988 451.78288895 102.95692261 450.88999664 102.9105835 449.970047 C102.54429969 444.81846344 101.95169047 441.69526343 98 438 C94.27522224 437.04199574 90.6155391 437.7948203 87 439 C85.708951 442.873147 85.85297282 446.52680514 85.875 450.5625 C85.87693359 451.42133789 85.87886719 452.28017578 85.88085938 453.16503906 C85.95484321 464.78461091 86.49060035 476.39296512 87 488 C80.565 489.485 80.565 489.485 74 491 C73.18478354 486.92391771 72.76110877 483.2969453 72.53515625 479.17211914 C72.49760223 478.50447037 72.46004822 477.83682159 72.4213562 477.14894104 C72.29825997 474.944523 72.18032046 472.73986206 72.0625 470.53515625 C71.97692813 468.98073282 71.89106678 467.4263253 71.80493164 465.87193298 C71.62460479 462.60459726 71.44662125 459.33714558 71.27050781 456.06958008 C71.04840473 451.94903617 70.82239502 447.82871996 70.59481812 443.70847511 C68.85252603 412.14653328 68.85252603 412.14653328 68.34155273 398.72608948 C68.07035033 392.08470839 67.728204 385.44249988 66 379 C63.3701675 378.12338917 60.7536648 377.79967277 58 377.625 C57.34 377.57601563 56.68 377.52703125 56 377.4765625 C52.80236661 378.31344311 51.78563906 380.308264 50 383 C49.52674355 385.92301152 49.52674355 385.92301152 49.79296875 389.05859375 C49.84646484 390.25162109 49.89996094 391.44464844 49.95507812 392.67382812 C50.03177734 393.91583984 50.10847656 395.15785156 50.1875 396.4375 C50.24486328 397.61376953 50.30222656 398.79003906 50.36132812 400.00195312 C50.48713952 402.55200138 50.62316504 405.10155847 50.76733398 407.65063477 C50.9396499 410.74673382 51.0801153 413.84272554 51.20336914 416.94116211 C51.8380214 432.71743022 53.06225021 448.4269016 54.34594727 464.16186523 C54.62094452 467.54903824 54.89071742 470.93659976 55.16015625 474.32421875 C55.24451431 475.33586594 55.32887238 476.34751312 55.41578674 477.38981628 C55.93579386 483.94773871 56.07239111 490.42116296 56 497 C52.7 497.99 49.4 498.98 46 500 C45.12075074 490.11152935 44.24734245 480.22256238 43.38037109 470.33300781 C43.15288626 467.73848157 42.92405122 465.14409235 42.69384766 462.54980469 C41.68879412 451.20313472 40.85413383 439.86027811 40.1836853 428.48861694 C39.46070516 416.25184569 38.50436494 404.07261056 37.24414062 391.87670898 C36.39202423 383.48619593 35.685219 375.09408944 35.05859375 366.68359375 C34.89185779 364.48819277 34.72502774 362.29279893 34.55810547 360.09741211 C34.31031896 356.83220404 34.067163 353.56702793 33.83990479 350.30032349 C33.08145011 339.41256564 32.17979581 329.15063972 29.04614258 318.66308594 C27.86302559 314.52038178 26.99034327 310.37616702 26.17578125 306.1484375 C26.02589752 305.37187805 25.87601379 304.5953186 25.72158813 303.79522705 C25.41047734 302.16973346 25.1011966 300.54388869 24.79360962 298.91772461 C23.94645591 294.44041114 23.0809191 289.96662909 22.21875 285.4921875 C22.03943436 284.55884583 21.86011871 283.62550415 21.67536926 282.66387939 C19.61017542 271.93144447 17.46235413 261.21573546 15.3125 250.5 C14.92571314 248.56853577 14.53899373 246.63705804 14.15234375 244.70556641 C12.43843533 236.1479367 10.72097787 227.5911171 8.97460938 219.04003906 C8.59480236 217.15276791 8.21827028 215.26481638 7.85124397 213.37501812 C6.79059222 207.9219998 5.67177651 202.48857409 4.48226929 197.06214905 C-0.0217069 175.63511854 -0.81743642 154.96848451 -0.60836363 133.12412524 C-0.57004238 128.41980844 -0.56726887 123.71545041 -0.56021118 119.01100159 C-0.54179538 110.16142969 -0.49288485 101.31231938 -0.43211424 92.46294791 C-0.36431022 82.36328712 -0.33187721 72.26360056 -0.30194163 62.1637677 C-0.23975586 41.44225727 -0.13469018 20.72115807 0 0 Z " fill="#FCF6E5" transform="translate(362,254)"/>
<path d="M0 0 C0.11744396 21.08149135 0.20528436 42.16292782 0.25906086 63.24468136 C0.28470763 73.03603571 0.31959514 82.82718536 0.37719727 92.6184082 C0.42745106 101.16472373 0.45938893 109.71089082 0.47044247 118.25735003 C0.47689119 122.77156106 0.49175482 127.28534795 0.52865028 131.79942131 C0.67895037 150.92550781 0.29285002 168.88076053 -4.41803932 187.56158638 C-5.31066922 191.30170317 -5.91574749 195.07658454 -6.5 198.875 C-7.88516478 207.51165701 -9.48477483 216.10382631 -11.09594727 224.70092773 C-12.27472492 231.01282228 -13.40736427 237.32848453 -14.47021484 243.66088867 C-16.03353046 252.95011989 -17.82621751 262.16675179 -19.8125 271.375 C-20.06507568 272.55594238 -20.31765137 273.73688477 -20.57788086 274.95361328 C-21.89164069 281.04909954 -23.26239487 287.12337822 -24.73046875 293.18359375 C-35.43799785 338.52981649 -37.10455415 385.82796126 -40.19580078 432.18934631 C-40.98114376 443.9322174 -41.87387822 455.66548354 -42.79806519 467.39813232 C-43.22740167 472.93000021 -43.61756165 478.46470803 -44 484 C-47.3 483.34 -50.6 482.68 -54 482 C-54.23738893 471.5548872 -53.8774988 461.2999307 -52.92675781 450.89697266 C-51.88357786 439.23609779 -51.13560665 427.55714093 -50.375 415.875 C-50.30679047 414.84129272 -50.23858093 413.80758545 -50.16830444 412.74255371 C-49.97193141 409.76340653 -49.77841773 406.78408847 -49.5859375 403.8046875 C-49.52665573 402.90557648 -49.46737396 402.00646545 -49.40629578 401.08010864 C-48.3262342 392.65700729 -48.3262342 392.65700729 -51.125 385.1875 C-54.35230463 382.73194213 -55.96087042 382 -60 382 C-63.31805142 383.32429273 -63.31805142 383.32429273 -66 385 C-65.85691406 384.16082031 -65.71382812 383.32164062 -65.56640625 382.45703125 C-62.30919387 367.28761381 -62.30919387 367.28761381 -64.0625 352.375 C-65.44114178 348.88244082 -64.97696252 346.5821959 -64 343 C-61.5625 340.5625 -61.5625 340.5625 -59 339 C-58.34 339 -57.68 339 -57 339 C-57.061875 337.5459375 -57.061875 337.5459375 -57.125 336.0625 C-57.14348933 331.55110276 -56.10517422 327.35162348 -55 323 C-56.175625 322.13375 -56.175625 322.13375 -57.375 321.25 C-61.13513514 318.02702703 -61.13513514 318.02702703 -62 315 C-61.91984106 310.59125825 -61.4952783 308.58651377 -58.625 305.1875 C-56 303 -56 303 -53 301 C-52.53395005 298.00038906 -52.53395005 298.00038906 -52.60127258 294.3946228 C-52.59130234 293.36336004 -52.59130234 293.36336004 -52.58113068 292.31126368 C-52.562393 289.9930056 -52.56511381 287.67525907 -52.56762695 285.35693359 C-52.55861104 283.69694793 -52.54828424 282.03696893 -52.53674316 280.3769989 C-52.50898572 275.8378237 -52.49985281 271.29877398 -52.49388909 266.75952482 C-52.48445976 261.94873449 -52.45820864 257.13803493 -52.43388367 252.32730103 C-52.39000908 243.13527143 -52.36163994 233.94325914 -52.33856028 224.75115645 C-52.31216441 214.55304329 -52.26790092 204.35503568 -52.22229409 194.15699339 C-52.12753196 172.79238954 -52.06421874 151.42778185 -52.01805818 130.0630219 C-52.00475961 123.94357885 -51.98904425 117.82414587 -51.97210693 111.70471191 C-51.95089042 103.96848659 -51.93539747 96.23226804 -51.9247036 88.49602127 C-51.92072545 85.71543107 -51.91458724 82.93485908 -51.90651894 80.1542778 C-51.89667213 76.4070384 -51.89306531 72.65984829 -51.89135742 68.91259766 C-51.88719252 67.81979115 -51.88302761 66.72698463 -51.8787365 65.60106277 C-51.87965357 64.61740108 -51.88057064 63.6337394 -51.8815155 62.62026978 C-51.88023746 61.769396 -51.87895941 60.91852222 -51.87764263 60.0418644 C-51.8698279 57.93291853 -51.8698279 57.93291853 -53 56 C-53.09585131 54.35643193 -53.12983511 52.70885358 -53.125 51.0625 C-53.12757813 50.18722656 -53.13015625 49.31195313 -53.1328125 48.41015625 C-53 46 -53 46 -52 43 C-51.8460737 40.19839498 -51.74261955 37.41701575 -51.68359375 34.61328125 C-51.66281265 33.79627243 -51.64203156 32.97926361 -51.62062073 32.13749695 C-51.55526921 29.52924966 -51.49630727 26.92090225 -51.4375 24.3125 C-51.39430108 22.54360946 -51.35068635 20.77472903 -51.30664062 19.00585938 C-51.19960257 14.67067537 -51.09829456 10.33539071 -51 6 C-41.90901114 4.10263912 -32.75167068 3.10747235 -23.52685547 2.14013672 C-20.97704764 1.87259167 -18.42795625 1.59888194 -15.87890625 1.32421875 C-14.25264193 1.15068737 -12.62634112 0.97749763 -11 0.8046875 C-10.24066162 0.72346649 -9.48132324 0.64224548 -8.69897461 0.55856323 C-5.78286553 0.25403127 -2.93435193 0 0 0 Z " fill="#498095" transform="translate(632,260)"/>
<path d="M0 0 C0.02464775 5.53588533 0.04283496 11.071739 0.05493164 16.60766602 C0.05997244 18.4924373 0.06680498 20.37720465 0.07543945 22.26196289 C0.08751617 24.96501636 0.09323068 27.66801831 0.09765625 30.37109375 C0.10281754 31.21900986 0.10797882 32.06692596 0.11329651 32.9405365 C0.11349195 34.96071068 0.06206211 36.98077934 0 39 C-0.33 39.33 -0.66 39.66 -1 40 C-1.09854655 41.64340867 -1.12972411 43.2911461 -1.125 44.9375 C-1.12757813 45.83339844 -1.13015625 46.72929687 -1.1328125 47.65234375 C-1.15421413 50.02155555 -1.15421413 50.02155555 0 52 C0.0928229 53.55205143 0.12209906 55.10809428 0.12046814 56.66291809 C0.12178427 57.6551343 0.1231004 58.6473505 0.12445641 59.66963387 C0.11880385 61.32166974 0.11880385 61.32166974 0.11303711 63.00708008 C0.11284388 64.17596205 0.11265064 65.34484402 0.11245155 66.54914665 C0.11053388 69.822341 0.10388527 73.09548568 0.09498715 76.36866736 C0.0880427 79.18830599 0.0846731 82.00794491 0.08117217 84.82758957 C0.03512858 120.54183256 -0.15437502 156.2560072 -0.35582292 191.9696511 C-0.36126513 192.93478099 -0.36670733 193.89991087 -0.37231445 194.89428711 C-0.37776767 195.86092226 -0.38322089 196.82755741 -0.38883936 197.82348454 C-0.43357243 205.8244287 -0.47321895 213.82539309 -0.51199192 221.82636803 C-0.55019516 229.65784036 -0.59210162 237.4892873 -0.63687855 245.32072479 C-0.66326169 249.9482873 -0.68812475 254.57584531 -0.70907402 259.2034359 C-0.7286227 263.49945145 -0.75275998 267.7954165 -0.78049088 272.0913868 C-0.78983503 273.66157502 -0.79751972 275.23177412 -0.80341911 276.80197906 C-0.81171557 278.94260029 -0.82599716 281.08310137 -0.84178162 283.22367859 C-0.84823417 284.41908107 -0.85468672 285.61448355 -0.8613348 286.84611034 C-0.98608051 289.68340618 -1.34896469 292.24172531 -2 295 C-1.34 295.33 -0.68 295.66 0 296 C-0.55429687 296.24234375 -1.10859375 296.4846875 -1.6796875 296.734375 C-2.40414062 297.06953125 -3.12859375 297.4046875 -3.875 297.75 C-4.59429688 298.07484375 -5.31359375 298.3996875 -6.0546875 298.734375 C-8.39287918 300.25560814 -9.07144494 301.39120244 -10 304 C-9.91859624 308.47720675 -9.54520727 310.40027201 -6.5 313.75 C-5.2625 314.86375 -5.2625 314.86375 -4 316 C-2.14862849 321.55411452 -4.16822245 327.57637394 -6 333 C-9.125 335.4375 -9.125 335.4375 -12 337 C-13.43005742 341.91582238 -12.85347125 344.42083574 -11 349 C-10.40644766 358.20006129 -11.60279996 367.79889015 -13.99072266 376.68798828 C-15.08907716 381.03014227 -15.49630454 385.27769194 -15.78125 389.73828125 C-15.83963043 390.56472137 -15.89801086 391.3911615 -15.9581604 392.24264526 C-16.14600901 394.93215482 -16.32327597 397.62223847 -16.5 400.3125 C-16.62834337 402.18858536 -16.7570917 404.06464305 -16.88623047 405.94067383 C-17.89403927 420.73903824 -18.76537665 435.54483049 -19.5703125 450.35546875 C-19.9835047 457.90835062 -20.47948307 465.45385651 -21 473 C-23.81288705 472.85980308 -26.62516885 472.71312045 -29.4375 472.5625 C-30.64116211 472.50352539 -30.64116211 472.50352539 -31.86914062 472.44335938 C-37.88671875 472.11328125 -37.88671875 472.11328125 -39 471 C-39.09881458 468.51877229 -39.13178014 466.06537997 -39.12304783 463.5836401 C-39.12420167 462.79401574 -39.12535552 462.00439139 -39.12654433 461.19083902 C-39.12921833 458.51074535 -39.12468244 455.83071021 -39.12025452 453.15061951 C-39.12069006 451.22347454 -39.12156465 449.29632962 -39.12284368 447.36918503 C-39.12509198 442.04690193 -39.12106281 436.72463874 -39.11606562 431.40235817 C-39.11176608 425.67294254 -39.11320719 419.94352812 -39.1139679 414.21411133 C-39.11449345 404.27866281 -39.1113434 394.34322084 -39.10573006 384.40777397 C-39.09761927 370.04260463 -39.09500027 355.67743846 -39.09374207 341.31226707 C-39.09155088 318.00838781 -39.08489756 294.70451212 -39.07543945 271.40063477 C-39.0662598 248.75675474 -39.05917385 226.11287565 -39.05493164 203.46899414 C-39.05473435 202.42260526 -39.05473435 202.42260526 -39.05453308 201.35507722 C-39.05321459 194.34976908 -39.05193877 187.34446093 -39.05069422 180.33915278 C-39.04024747 121.55943279 -39.02231843 62.77971666 -39 4 C-59.46 3.67 -79.92 3.34 -101 3 C-101 2.67 -101 2.34 -101 2 C-100.03914993 1.98969254 -99.07829987 1.97938507 -98.08833313 1.96876526 C-88.98303375 1.87052757 -79.87779509 1.76775164 -70.77259541 1.66066074 C-66.09280326 1.60576172 -61.41300463 1.55239907 -56.7331543 1.50268555 C-52.20731516 1.45454923 -47.68154176 1.40219703 -43.1557827 1.34705925 C-41.43886159 1.32685627 -39.72192262 1.30811045 -38.00496864 1.29092598 C-29.24472347 1.20230037 -20.57300188 0.97759048 -11.8400116 0.21153259 C-7.88066922 -0.08337112 -3.96838381 -0.06726074 0 0 Z " fill="#7BB0B8" transform="translate(581,266)"/>
<path d="M0 0 C10.23 0 20.46 0 31 0 C30.67 154.44 30.34 308.88 30 468 C14.16 468 -1.68 468 -18 468 C-18 467.67 -18 467.34 -18 467 C-12.06 467 -6.12 467 0 467 C0 312.89 0 158.78 0 0 Z " fill="#C5D5CA" transform="translate(512,269)"/>
<path d="M0 0 C8.25 0 16.5 0 25 0 C25 153.45 25 306.9 25 465 C13.12 465.495 13.12 465.495 1 466 C-0.70644027 464.29355973 -0.12335953 462.14388238 -0.13100848 459.86758277 C-0.12838146 459.12418915 -0.12575445 458.38079554 -0.12304783 457.61487484 C-0.12420167 456.82862723 -0.12535552 456.04237962 -0.12654433 455.23230633 C-0.1292183 452.56369938 -0.12468246 449.89515121 -0.12025452 447.22654724 C-0.12069006 445.30765187 -0.12156465 443.38875656 -0.12284368 441.46986157 C-0.12509198 436.17038158 -0.12106282 430.87092159 -0.11606562 425.57144415 C-0.11176607 419.86656863 -0.11320719 414.16169432 -0.1139679 408.45681763 C-0.11449345 398.56393095 -0.11134341 388.67105084 -0.10573006 378.77816582 C-0.09761926 364.47453465 -0.09500027 350.17090668 -0.09374207 335.86727346 C-0.09155088 312.66322273 -0.08489757 289.45917574 -0.07543945 266.25512695 C-0.06625979 243.70825214 -0.05917384 221.16137826 -0.05493164 198.61450195 C-0.05480011 197.91989748 -0.05466859 197.22529301 -0.05453308 196.50963991 C-0.05321459 189.53433858 -0.05193877 182.55903723 -0.05069422 175.58373588 C-0.04024748 117.05582157 -0.02252105 58.52791088 0 0 Z " fill="#FEEBCE" transform="translate(487,270)"/>
<path d="M0 0 C1.15843414 0.10891571 1.15843414 0.10891571 2.340271 0.22003174 C45.41329655 4.31245622 45.41329655 4.31245622 64 13 C60.25415566 16.48333233 56.03136783 17.30939412 51.1875 18.4375 C50.27734131 18.65067871 49.36718262 18.86385742 48.42944336 19.08349609 C35.11200378 22.03656538 21.541603 23.49085288 8 25 C6.6912793 25.14711426 5.38255859 25.29422852 4.03417969 25.44580078 C-10.38813532 27.04048956 -24.76117806 28.31724334 -39.265625 28.7890625 C-42.34184323 28.8977656 -45.35897323 29.13692045 -48.41503906 29.49829102 C-54.96948362 30.1666694 -61.5100007 30.19929328 -68.09375 30.23828125 C-68.7650123 30.24308376 -69.4362746 30.24788628 -70.12787819 30.25283432 C-75.25191086 30.28893043 -80.37585416 30.30438879 -85.5 30.3125 C-86.254342 30.31409245 -87.00868401 30.31568489 -87.78588486 30.31732559 C-108.52647891 30.35450358 -129.13217402 29.94876572 -149.8125 28.1875 C-151.27961426 28.06334213 -151.27961426 28.06334213 -152.77636719 27.93667603 C-171.26725372 26.32772212 -189.88199735 24.36750487 -208.0625 20.5625 C-209.09689209 20.35149658 -210.13128418 20.14049316 -211.19702148 19.9230957 C-218.91661809 18.31335927 -226.4888613 16.40517679 -234 14 C-234 13.34 -234 12.68 -234 12 C-232.12776309 11.38732447 -230.251966 10.78553093 -228.375 10.1875 C-227.33085937 9.85105469 -226.28671875 9.51460937 -225.2109375 9.16796875 C-206.0332437 3.59265864 -185.78429431 2.069596 -166 0 C-164.74280151 -0.13175629 -164.74280151 -0.13175629 -163.46020508 -0.26617432 C-109.70180893 -5.79225036 -53.75389254 -5.14745609 0 0 Z " fill="#FCEACC" transform="translate(596,218)"/>
<path d="M0 0 C1.42724235 0.14867034 2.85418847 0.30018604 4.28100586 0.45288086 C5.07566757 0.53694687 5.87032928 0.62101288 6.68907166 0.70762634 C9.71787586 1.0908241 12.61289941 1.78272053 15.5625 2.5625 C16.59503906 2.83191406 17.62757813 3.10132813 18.69140625 3.37890625 C19.45324219 3.58386719 20.21507812 3.78882813 21 4 C21 4.66 21 5.32 21 6 C18.69 6.33 16.38 6.66 14 7 C14.16226074 7.54962402 14.32452148 8.09924805 14.49169922 8.66552734 C15.06314701 11.29001524 15.12955478 13.66580751 15.1328125 16.3515625 C15.13474609 17.87523437 15.13474609 17.87523437 15.13671875 19.4296875 C15.13285156 20.48414063 15.12898438 21.53859375 15.125 22.625 C15.12886719 23.6871875 15.13273437 24.749375 15.13671875 25.84375 C15.13542969 26.85695313 15.13414062 27.87015625 15.1328125 28.9140625 C15.13168457 29.8417041 15.13055664 30.7693457 15.12939453 31.72509766 C15 34 15 34 14 36 C13.89997358 37.87423908 13.86490136 39.75206855 13.85955811 41.62896729 C13.85384796 42.82626968 13.84813782 44.02357208 13.84225464 45.25715637 C13.84100922 46.59103383 13.83988413 47.92491141 13.83886719 49.25878906 C13.83423977 50.65819937 13.82921521 52.05760842 13.82382202 53.45701599 C13.81068661 57.26502973 13.80425057 61.07302583 13.79981136 64.88105869 C13.79688181 67.26009166 13.79277718 69.63911979 13.78830719 72.01815033 C13.7746278 79.46122314 13.76496393 86.90428492 13.7611053 94.34736943 C13.75662659 102.9395957 13.73908932 111.53166272 13.7101047 120.12384057 C13.6884819 126.76426273 13.67840066 133.40464012 13.67706418 140.04509711 C13.67601636 144.01137137 13.67011384 147.97749602 13.65224457 151.94373322 C13.63575399 155.67674637 13.63361305 159.40949764 13.64238358 163.14253426 C13.64351998 165.161952 13.62980929 167.18136108 13.6156311 169.20072937 C13.62398483 171.01360191 13.62398483 171.01360191 13.63250732 172.86309814 C13.63104076 173.90950092 13.6295742 174.9559037 13.6280632 176.03401566 C14.06663226 179.53135438 15.33807626 181.91354655 17 185 C17.62136854 187.59767538 18.14229797 190.11204159 18.578125 192.73828125 C18.71015823 193.48283066 18.84219147 194.22738007 18.97822571 194.99449158 C19.26178974 196.59619879 19.54139902 198.19861028 19.81741333 199.80163574 C20.56006676 204.11222151 21.33132298 208.41762981 22.10546875 212.72265625 C22.26228622 213.59646942 22.4191037 214.47028259 22.58067322 215.37057495 C23.55369784 220.72847116 24.61617639 226.05606687 25.80078125 231.37109375 C25.94707977 232.02757401 26.0933783 232.68405426 26.24411011 233.36042786 C26.53730341 234.67171035 26.83084935 235.98291405 27.12475586 237.29403687 C30.58148458 252.73966668 32.92640596 268.25987914 34.95922852 283.95410156 C35.13189995 285.2540506 35.13189995 285.2540506 35.30805969 286.58026123 C35.52134197 288.19222313 35.72731528 289.80517886 35.92399597 291.41925049 C36.55271048 296.15428404 37.6777854 300.46135623 39.28778076 304.95983887 C39.97790903 306.93672014 40.53213441 308.91277547 41.0625 310.9375 C41.76053535 314.0733055 41.76053535 314.0733055 44 316 C43.67 316.99 43.34 317.98 43 319 C42.45761192 326.26547749 43.13978658 333.52309837 43.875 340.75 C43.95339111 341.54148437 44.03178223 342.33296875 44.11254883 343.1484375 C44.59088883 347.53650763 45.359551 351.68644488 46.49169922 355.94970703 C47.44111923 359.779308 48.02407879 363.6657099 48.625 367.5625 C48.82609375 368.75069336 48.82609375 368.75069336 49.03125 369.96289062 C50.0115039 376.30953452 50.0621473 382.49448011 50.00341797 388.90844727 C49.96199782 396.34179626 50.38360959 403.76533228 50.75 411.1875 C50.79090759 412.04063782 50.83181519 412.89377563 50.8739624 413.77276611 C51.76402696 432.08392459 53.1753457 450.35199467 54.67871094 468.62182617 C54.76569244 469.69584183 54.85267395 470.76985748 54.94229126 471.87641907 C55.10463126 473.87551545 55.27062921 475.8743201 55.44125366 477.87272644 C55.95948537 484.26818163 56.06706538 490.58321086 56 497 C52.7 497.99 49.4 498.98 46 500 C45.12075074 490.11152935 44.24734245 480.22256238 43.38037109 470.33300781 C43.15288626 467.73848157 42.92405122 465.14409235 42.69384766 462.54980469 C41.68879412 451.20313472 40.85413383 439.86027811 40.1836853 428.48861694 C39.46070516 416.25184569 38.50436494 404.07261056 37.24414062 391.87670898 C36.39202423 383.48619593 35.685219 375.09408944 35.05859375 366.68359375 C34.89185779 364.48819277 34.72502774 362.29279893 34.55810547 360.09741211 C34.31031896 356.83220404 34.067163 353.56702793 33.83990479 350.30032349 C33.08145011 339.41256564 32.17979581 329.15063972 29.04614258 318.66308594 C27.86302559 314.52038178 26.99034327 310.37616702 26.17578125 306.1484375 C26.02589752 305.37187805 25.87601379 304.5953186 25.72158813 303.79522705 C25.41047734 302.16973346 25.1011966 300.54388869 24.79360962 298.91772461 C23.94645591 294.44041114 23.0809191 289.96662909 22.21875 285.4921875 C22.03943436 284.55884583 21.86011871 283.62550415 21.67536926 282.66387939 C19.61017542 271.93144447 17.46235413 261.21573546 15.3125 250.5 C14.92571314 248.56853577 14.53899373 246.63705804 14.15234375 244.70556641 C12.43843533 236.1479367 10.72097787 227.5911171 8.97460938 219.04003906 C8.59480236 217.15276791 8.21827028 215.26481638 7.85124397 213.37501812 C6.79059222 207.9219998 5.67177651 202.48857409 4.48226929 197.06214905 C-0.0217069 175.63511854 -0.81743642 154.96848451 -0.60836363 133.12412524 C-0.57004238 128.41980844 -0.56726887 123.71545041 -0.56021118 119.01100159 C-0.54179538 110.16142969 -0.49288485 101.31231938 -0.43211424 92.46294791 C-0.36431022 82.36328712 -0.33187721 72.26360056 -0.30194163 62.1637677 C-0.23975586 41.44225727 -0.13469018 20.72115807 0 0 Z " fill="#F7F4E5" transform="translate(362,254)"/>
<path d="M0 0 C0.07022599 22.44496953 0.1230546 44.88992082 0.15543652 67.3349781 C0.17087475 77.75769865 0.19190581 88.18035075 0.22631836 98.60302734 C0.25631418 107.69236101 0.2755971 116.78164508 0.28226548 125.87102687 C0.28616055 130.67930996 0.29525043 135.48745121 0.31719017 140.29568863 C0.33771656 144.83139178 0.34380153 149.36689611 0.33932304 153.9026413 C0.34014108 155.55770578 0.34600976 157.21277767 0.35761642 158.86780167 C0.42560476 169.07230178 -0.54477535 178.05173446 -3 188 C-3.61487993 191.66164631 -3.96967254 195.34889379 -4.375 199.0390625 C-4.79892017 202.17017946 -5.52696247 205.15536582 -6.328125 208.2109375 C-8.36616125 216.13978678 -9.78092652 224.17248736 -11.24438477 232.22268677 C-12.11657282 237.01356186 -13.00492475 241.80145181 -13.890625 246.58984375 C-14.06916016 247.55671616 -14.24769531 248.52358856 -14.43164062 249.51976013 C-16.0972503 258.53856732 -17.77011188 267.5557686 -19.5 276.5625 C-19.63896698 277.28632874 -19.77793396 278.01015747 -19.92111206 278.75592041 C-22.36963716 291.42753756 -25.23164156 303.98733883 -28.3359375 316.51391602 C-31.71930541 330.26708003 -33.28094563 343.94673823 -34.31835938 358.03411865 C-34.63005959 362.26563759 -34.95658076 366.49602233 -35.28125 370.7265625 C-35.3755127 371.96250656 -35.3755127 371.96250656 -35.47167969 373.22341919 C-35.92341318 379.11320824 -36.43500264 384.99495319 -37 390.875 C-37.90009834 400.39967693 -38.63827241 409.9362075 -39.36157227 419.47564697 C-39.49257871 421.20304569 -39.62437652 422.93038464 -39.75708008 424.65765381 C-40.53655522 434.83210588 -41.20428806 445.00068941 -41.629776 455.19680786 C-41.79428925 458.89471163 -42.03202319 462.54118648 -42.51196289 466.21264648 C-42.9294784 469.45272557 -43.17521497 472.59404568 -43.28125 475.85546875 C-43.31863281 476.88994141 -43.35601563 477.92441406 -43.39453125 478.99023438 C-43.4652299 481.13345084 -43.53553821 483.27668021 -43.60546875 485.41992188 C-43.64285156 486.45052734 -43.68023438 487.48113281 -43.71875 488.54296875 C-43.74904297 489.47133545 -43.77933594 490.39970215 -43.81054688 491.35620117 C-43.99839207 493.97756157 -44.42742612 496.43761596 -45 499 C-48.75519057 498.48792856 -51.66688525 497.7824918 -55 496 C-55.0720916 489.44570611 -54.88953579 482.96436512 -54.42089844 476.42749023 C-54.35904861 475.52628448 -54.29719879 474.62507874 -54.23347473 473.69656372 C-54.02906639 470.73364232 -53.81948095 467.7711162 -53.609375 464.80859375 C-53.46187152 462.70151258 -53.31451535 460.59442109 -53.16729736 458.48731995 C-52.8569436 454.05818619 -52.54385286 449.62925584 -52.22900391 445.20043945 C-51.9127186 440.7475913 -51.60047264 436.29449385 -51.29248047 431.84106445 C-49.61711187 407.61995386 -47.81367001 383.43127047 -45.31951904 359.27891541 C-45.15979239 357.72770816 -45.00022134 356.17648488 -44.84082031 354.62524414 C-44.76510394 353.89147395 -44.68938757 353.15770376 -44.61137676 352.40169811 C-44.00034002 346.33661586 -43.59550876 340.27016963 -43.26472473 334.18382263 C-42.85877397 329.3014861 -41.70840339 324.71806806 -40.4375 320 C-37.63537347 308.95193753 -35.21689715 297.85348751 -32.9375 286.6875 C-32.76508789 285.8434259 -32.59267578 284.99935181 -32.41503906 284.12969971 C-30.07582894 272.63854939 -27.87555604 261.13052953 -25.86303711 249.57714844 C-23.8924598 238.26460541 -21.74795125 226.98720095 -19.59887695 215.70751953 C-19.30281311 214.15268527 -19.00683265 212.59783512 -18.7109375 211.04296875 C-18.49358192 209.9008493 -18.49358192 209.9008493 -18.27183533 208.73565674 C-17.31968859 203.71932826 -16.38993751 198.69930554 -15.4765625 193.67578125 C-15.24646484 192.41386963 -15.01636719 191.15195801 -14.77929688 189.85180664 C-14.35278808 187.50393938 -13.9294552 185.15549229 -13.50976562 182.80639648 C-13.32349609 181.78231689 -13.13722656 180.7582373 -12.9453125 179.703125 C-12.78562988 178.81270508 -12.62594727 177.92228516 -12.46142578 177.00488281 C-12 175 -12 175 -11 174 C-10.89068575 171.78538907 -10.85306958 169.56723879 -10.84178162 167.34996033 C-10.83437465 166.29512218 -10.83437465 166.29512218 -10.82681805 165.21897417 C-10.81136939 162.84512266 -10.80306263 160.47129833 -10.79467773 158.09741211 C-10.78510499 156.40270241 -10.77509527 154.70799513 -10.76467896 153.01329041 C-10.7375584 148.39780975 -10.71658768 143.7823188 -10.69667697 139.16680217 C-10.67486136 134.34877679 -10.6474511 129.53078341 -10.62062073 124.71278381 C-10.5706338 115.58259823 -10.52571731 106.45239493 -10.48259836 97.32217461 C-10.43327715 86.93055052 -10.37834011 76.53895852 -10.32291877 66.14736545 C-10.20900666 44.76494019 -10.10218782 23.3824843 -10 2 C-3.375 0 -3.375 0 0 0 Z " fill="#A9CCCF" transform="translate(660,254)"/>
<path d="M0 0 C2.17983361 1.08342491 4.34191234 2.18303314 6.48828125 3.33203125 C24.95478991 13.01226193 45.40048979 16.88776596 66 19 C66.81621826 19.08757568 67.63243652 19.17515137 68.47338867 19.26538086 C79.00950353 20.24595245 89.56140634 20.18608668 100.13452148 20.18530273 C103.39906149 20.18747443 106.66325449 20.20564273 109.92773438 20.22460938 C143.39337979 20.3141117 174.9202396 16.35158756 205 1 C205.24882404 5.14387734 205.4293297 9.28372119 205.54931641 13.43286133 C205.59935413 14.84085843 205.66741993 16.24834223 205.75439453 17.65454102 C206.45773396 29.32583817 206.45773396 29.32583817 202.79980469 33.52685547 C196.53582451 38 196.53582451 38 193 38 C193 29.42 193 20.84 193 12 C190.256875 12.9075 187.51375 13.815 184.6875 14.75 C174.88434605 17.87090787 165.13532235 20.25307605 155 22 C153.98180176 22.18336914 152.96360352 22.36673828 151.91455078 22.55566406 C126.70405784 26.94235664 101.50313571 26.41357296 76 26 C76 31.28 76 36.56 76 42 C89.365 42.495 89.365 42.495 103 43 C103 46.96 103 50.92 103 55 C84.08589182 55.33796858 65.69561957 55.30148518 47 52 C46.10974121 51.85014648 45.21948242 51.70029297 44.30224609 51.54589844 C31.02189564 49.28080879 16.80372545 46.64747255 6 38 C4.41638672 36.94232422 4.41638672 36.94232422 2.80078125 35.86328125 C-0.98745167 32.00880601 -0.60413073 27.35009735 -0.57270813 22.27909851 C-0.52656221 20.06007447 -0.45152162 17.84316441 -0.375 15.625 C-0.34487655 14.11072983 -0.3175049 12.59640226 -0.29296875 11.08203125 C-0.22712763 7.38682102 -0.1237393 3.69377679 0 0 Z " fill="#FAF5E6" transform="translate(409,768)"/>
<path d="M0 0 C-2 2 -2 2 -5.625 2.125 C-6.73875 2.08375 -7.8525 2.0425 -9 2 C-9 2.66 -9 3.32 -9 4 C-9.639375 4.226875 -10.27875 4.45375 -10.9375 4.6875 C-13.23436474 5.82985584 -13.23436474 5.82985584 -13.6875 8.375 C-13.790625 9.24125 -13.89375 10.1075 -14 11 C-14.32483418 12.33542939 -14.6550855 13.66961551 -15 15 C-14.34 14.34 -13.68 13.68 -13 13 C-9.71023192 11.90341064 -8.28696233 12.20046862 -5 13 C-4.375 15.3125 -4.375 15.3125 -4 18 C-4.99 19.485 -4.99 19.485 -6 21 C-4.515 21.99 -4.515 21.99 -3 23 C-2.92572162 19.65747276 -2.93453047 17.1964086 -4 14 C-3.030625 13.87625 -2.06125 13.7525 -1.0625 13.625 C-0.051875 13.41875 0.95875 13.2125 2 13 C2.33 12.34 2.66 11.68 3 11 C3.33 11.99 3.66 12.98 4 14 C3.67 14.66 3.34 15.32 3 16 C3.556875 15.690625 4.11375 15.38125 4.6875 15.0625 C7.12540433 13.94238179 9.36224186 13.43962636 12 13 C11.67 14.65 11.34 16.3 11 18 C11.99 18 12.98 18 14 18 C14.99 18 15.98 18 17 18 C19.95183101 20.95183101 20.08663988 23.95511947 21 28 C21.4125 27.34 21.825 26.68 22.25 26 C22.8275 25.34 23.405 24.68 24 24 C25.32 24 26.64 24 28 24 C28 24.99 28 25.98 28 27 C28.99 27 29.98 27 31 27 C31.99 24.525 31.99 24.525 33 22 C33.66 22 34.32 22 35 22 C34.505 21.05125 34.01 20.1025 33.5 19.125 C32 16 32 16 32 14 C33.32 13.67 34.64 13.34 36 13 C36.99 14.485 36.99 14.485 38 16 C38.66 16.33 39.32 16.66 40 17 C39.01 17.66 38.02 18.32 37 19 C37.33 20.65 37.66 22.3 38 24 C39.32 23.34 40.64 22.68 42 22 C42.33 22.66 42.66 23.32 43 24 C44.32 22.68 45.64 21.36 47 20 C47.99 20.33 48.98 20.66 50 21 C49.78150391 21.8353125 49.78150391 21.8353125 49.55859375 22.6875 C48.76951858 25.95416086 48.19737205 29.25650364 47.59765625 32.5625 C47 35 47 35 45.87109375 37.1875 C45.58363281 37.785625 45.29617188 38.38375 45 39 C45.33 39.66 45.66 40.32 46 41 C45.32533691 41.11069824 44.65067383 41.22139648 43.95556641 41.33544922 C40.84508259 41.84685639 37.73504203 42.36091333 34.625 42.875 C33.56410156 43.04902344 32.50320313 43.22304688 31.41015625 43.40234375 C25.6090306 44.3632664 19.83609779 45.3947348 14.0793457 46.59448242 C11.23397839 47.14939085 8.8742236 47.4907211 6 47 C5.54753906 46.21753906 5.09507812 45.43507813 4.62890625 44.62890625 C1.23074113 39.1445774 -5.5576785 37.87389175 -11.52539062 36.35888672 C-40.07185379 29.72520368 -68.86069708 27.37208742 -98.04571533 26.33465576 C-102.01005569 26.19057537 -105.97373088 26.02999287 -109.9375 25.87109375 C-117.62446013 25.56522751 -125.31192422 25.27658091 -133 25 C-133 23.35 -133 21.7 -133 20 C-126.75265093 18.55981337 -120.51636659 17.35342952 -114.1875 16.3359375 C-112.7730233 16.1062326 -112.7730233 16.1062326 -111.32997131 15.87188721 C-108.22058469 15.36908808 -105.11039314 14.87153251 -102 14.375 C-100.9268454 14.20280945 -99.8536908 14.0306189 -98.74801636 13.85321045 C-77.77101459 10.49594935 -56.74782657 7.49960511 -35.70117188 4.61474609 C-33.95035561 4.37386261 -33.95035561 4.37386261 -32.16416931 4.12811279 C-29.99632829 3.83039649 -27.82818955 3.53483548 -25.65968323 3.24200439 C-19.855308 2.44607048 -14.10390361 1.50724737 -8.35203552 0.39120483 C-5.54307912 -0.07599786 -2.84140008 -0.15358919 0 0 Z M42 21 C44 22 44 22 44 22 Z " fill="#DDBCA8" transform="translate(768,773)"/>
<path d="M0 0 C3.54478453 0.18581532 5.6809339 0.59009117 8.875 2.2890625 C13.40570248 7.64352907 12.02215782 16.15359369 11.88671875 22.80859375 C11.86875748 23.88229721 11.8507962 24.95600067 11.83229065 26.0622406 C11.77072183 29.55470463 11.69915058 33.04684402 11.625 36.5390625 C11.58808044 38.33736511 11.58808044 38.33736511 11.55041504 40.17199707 C10.86413402 72.85926742 8.49705623 105.10579338 5.05859375 137.6171875 C4.96072067 138.54998535 4.8628476 139.4827832 4.76200867 140.44384766 C4.28323534 144.90371321 3.68096588 149.30199369 2.9375 153.7265625 C2.84743785 155.08943069 2.78551803 156.45467913 2.76171875 157.8203125 C2.73787109 158.54089844 2.71402344 159.26148438 2.68945312 160.00390625 C2.64649288 161.48538382 2.61523702 162.96724716 2.59570312 164.44921875 C2.39802729 169.58879041 1.37178232 172.67298336 -2.0625 176.7265625 C-5.66822704 177.92847151 -8.2727435 178.05326565 -12.0625 177.7265625 C-14.76443481 176.0834198 -14.76443481 176.0834198 -17.0625 173.7265625 C-17.59664917 170.90156555 -17.59664917 170.90156555 -17.45654297 167.7043457 C-17.41092224 166.5471402 -17.36530151 165.38993469 -17.31829834 164.19766235 C-16.94508942 159.13333929 -16.41860488 154.11651528 -15.7578125 149.08203125 C-13.85355476 133.54575248 -12.4452953 117.97789372 -11.1348381 102.38254166 C-10.93492466 100.00847916 -10.73228363 97.63465873 -10.52957153 95.26083374 C-8.48795712 71.18481748 -7.34936226 47.27711259 -7.55224609 23.10473633 C-7.55296616 22.03070557 -7.55368622 20.9566748 -7.5544281 19.85009766 C-7.55710446 17.87590614 -7.58002164 15.90158117 -7.62831116 13.92797852 C-7.62564104 9.54512078 -7.46164701 6.63806772 -4.66040039 3.14379883 C-2.0625 0.7265625 -2.0625 0.7265625 0 0 Z " fill="#052637" transform="translate(607.0625,339.2734375)"/>
<path d="M0 0 C2.6912384 1.74290466 2.6912384 1.74290466 5 5 C5.75446336 9.3232402 5.66899356 13.60966435 5.62768555 17.98852539 C5.63286657 19.32266742 5.64026829 20.6568024 5.64971924 21.99092102 C5.66526555 24.85848242 5.66512442 27.72545919 5.65271568 30.59303474 C5.63316148 35.12718173 5.64837847 39.6608096 5.66816711 44.19493103 C5.69530406 51.36533113 5.69881014 58.53551939 5.69239408 65.70596069 C5.68144965 78.55018866 5.70604054 91.39435303 5.74614173 104.23851579 C5.75921836 108.74590156 5.76046865 113.25309345 5.7520088 117.76048863 C5.74925779 119.88827295 5.75089178 122.01600108 5.75439453 124.14378357 C5.75835623 126.73823003 5.75506569 129.33270149 5.74324036 131.92712402 C5.74717804 133.06972183 5.75111572 134.21231964 5.75517273 135.38954163 C5.75420939 136.38227113 5.75324606 137.37500063 5.75225353 138.39781284 C6.00985416 141.10350244 6.75163014 142.62722512 8 145 C7.92298313 149.23592767 7.38298138 151.45454167 4.9375 154.9375 C1.63355118 157.25729386 -0.11876322 157.74923262 -4.0703125 157.48828125 C-7.43736673 156.63629384 -8.96038936 154.69948467 -11 152 C-12.83613861 148.21521965 -13.25398809 145.18528507 -13.26742554 140.99681091 C-13.27595551 139.7924942 -13.28448547 138.58817749 -13.29327393 137.34736633 C-13.29236755 136.03447128 -13.29146118 134.72157623 -13.29052734 133.36889648 C-13.29651464 131.96579634 -13.30332066 130.56269948 -13.31088257 129.15960693 C-13.32852403 125.35601905 -13.33323701 121.5525212 -13.33451414 117.74889636 C-13.33593674 115.37236837 -13.34020827 112.99586321 -13.34550858 110.6193409 C-13.36399892 102.32832512 -13.37217996 94.0373736 -13.37060547 85.74633789 C-13.36940259 78.01691417 -13.39053591 70.28776902 -13.4220928 62.55841583 C-13.4482284 55.92050215 -13.45897399 49.28267965 -13.45769465 42.64471489 C-13.45718444 38.68074716 -13.4629004 34.71702737 -13.48405075 30.75311089 C-13.50338902 27.02737442 -13.50358842 23.30212366 -13.48901749 19.57637024 C-13.4859239 17.55659133 -13.50263441 15.5368126 -13.51989746 13.5171051 C-13.51150848 12.31560822 -13.50311951 11.11411133 -13.49447632 9.87620544 C-13.49556585 8.83185554 -13.49665539 7.78750563 -13.49777794 6.71150875 C-12.8723325 3.30456631 -11.65523586 2.14949847 -9 0 C-5.77509551 -1.61245225 -3.43772273 -0.81573082 0 0 Z " fill="#042534" transform="translate(388,286)"/>
<path d="M0 0 C0.66 0.33 1.32 0.66 2 1 C2.49902344 2.99243164 2.49902344 2.99243164 2.859375 5.66015625 C3.00246094 6.66570557 3.14554687 7.67125488 3.29296875 8.70727539 C3.44378906 9.81449951 3.59460938 10.92172363 3.75 12.0625 C5.27983022 22.61047184 7.03630368 33.0880436 9 43.5625 C9.23686523 44.84326416 9.47373047 46.12402832 9.71777344 47.44360352 C10.83028785 53.3333635 12.0207999 59.18178829 13.45108032 65.0017395 C16.14370013 75.96739216 17.90164538 87.03419998 19.625 98.1875 C20.07342045 101.07928038 20.52383947 103.97067857 20.9805603 106.86116028 C21.26156575 108.64008003 21.53791961 110.41974328 21.80874634 112.20024109 C22.51299072 116.66437142 23.54209728 120.71002005 25 125 C24.979375 126.19625 24.95875 127.3925 24.9375 128.625 C24.63351648 131.93815601 24.63351648 131.93815601 26.4296875 133.61328125 C28.86952218 137.3215872 28.84166116 141.20709205 29.1875 145.5625 C29.26355469 146.45912354 29.33960938 147.35574707 29.41796875 148.27954102 C29.56183043 150.0532463 29.69795918 151.82759875 29.82568359 153.60253906 C29.97083392 155.59886422 30.14748777 157.59286789 30.33203125 159.5859375 C30.70410656 165.90256494 30.70410656 165.90256494 28.8671875 168.765625 C26.44235681 171.07619665 24.19427938 171.96431603 20.9375 172.5625 C17.32218892 171.87020639 15.61891584 170.54408967 13 168 C11.3166886 164.6333772 11.31985114 160.83111046 10.9375 157.125 C10.84807129 156.26962646 10.75864258 155.41425293 10.66650391 154.53295898 C10.02039471 148.00110268 9.80343891 141.56295624 10 135 C10 131.15725231 9.85881734 130.37980776 8.1875 127.25 C6.2885743 123.16070781 5.33936946 119.25576565 4.53515625 114.82421875 C4.34569427 113.78139992 4.34569427 113.78139992 4.15240479 112.71751404 C2.80755855 105.17401297 1.71612469 97.59334247 0.60983276 90.01205444 C-1.9714846 72.43978742 -5.34746843 55.15674104 -9.17285156 37.81982422 C-10.50979372 31.64574012 -11.73635798 25.45174348 -12.9375 19.25 C-13.14898682 18.17838623 -13.36047363 17.10677246 -13.57836914 16.00268555 C-13.76778076 15.01695557 -13.95719238 14.03122559 -14.15234375 13.015625 C-14.31726318 12.16258789 -14.48218262 11.30955078 -14.65209961 10.43066406 C-15.01135128 7.92069242 -15.06134927 5.53200023 -15 3 C-14.01 3.33 -13.02 3.66 -12 4 C-10.04322445 4.15754704 -10.04322445 4.15754704 -8 4.125 C-6.9790625 4.12886719 -6.9790625 4.12886719 -5.9375 4.1328125 C-3.78125219 4.06631126 -3.78125219 4.06631126 -1 3 C-0.67 2.01 -0.34 1.02 0 0 Z " fill="#FCE3C5" transform="translate(394,438)"/>
<path d="M0 0 C45.00160644 2.1299854 45.00160644 2.1299854 61 4 C62.09892578 4.12600586 63.19785156 4.25201172 64.33007812 4.38183594 C77.58583812 5.94239713 90.65430206 7.87282172 103.625 11.0625 C104.63224121 11.30774414 105.63948242 11.55298828 106.67724609 11.80566406 C114.20644652 13.76774769 114.20644652 13.76774769 117 17 C99.62377539 23.73304861 81.40287352 25.65686196 63.0088501 27.7689209 C61.05944379 27.99316215 59.11052312 28.22161273 57.16162109 28.45019531 C38.0646445 30.65704561 19.2109309 31.55938232 0 32 C0 21.44 0 10.88 0 0 Z " fill="#4C8497" transform="translate(543,215)"/>
<path d="M0 0 C0 0.66 0 1.32 0 2 C0.66 2 1.32 2 2 2 C3.68530034 8.80664993 4.33910858 15.48438487 4.65795898 22.46484375 C4.81942025 26.22614289 4.81942025 26.22614289 5.49206543 29.91862488 C6.06158603 32.25236249 6.23592026 34.44285734 6.37304688 36.84106445 C6.42980591 37.79918533 6.48656494 38.75730621 6.54504395 39.74446106 C6.63102844 41.28827705 6.63102844 41.28827705 6.71875 42.86328125 C6.78155151 43.92862595 6.84435303 44.99397064 6.90905762 46.09159851 C7.10962719 49.49836748 7.30528064 52.90539199 7.5 56.3125 C7.69501415 59.70887608 7.89118181 63.10516609 8.09094238 66.50126648 C8.21512751 68.61357863 8.33659155 70.72605303 8.45495605 72.83869934 C8.75461735 77.94705774 9.25263875 82.93424384 10 88 C10.07330445 89.757888 10.10858409 91.51796194 10.09765625 93.27734375 C10.09443359 94.20224609 10.09121094 95.12714844 10.08789062 96.08007812 C10.07951172 97.02302734 10.07113281 97.96597656 10.0625 98.9375 C10.05798828 99.90751953 10.05347656 100.87753906 10.04882812 101.87695312 C10.0371315 104.2513676 10.02074086 106.62565021 10 109 C9.34 108.67 8.68 108.34 8 108 C2.39296787 107.78622279 2.39296787 107.78622279 -3 109 C-3.495 109.99 -3.495 109.99 -4 111 C-6.01845313 103.06539116 -6.79743463 95.14245246 -7.5 87 C-7.56347626 86.28967621 -7.62695251 85.57935242 -7.69235229 84.84750366 C-8.80958559 72.34370683 -9.63666485 59.82859633 -10.265625 47.29101562 C-10.66441262 39.84572591 -11.44363245 32.59042346 -12.56567383 25.22094727 C-13.17031635 20.73694011 -13.331283 16.33168893 -13.3125 11.8125 C-13.32861328 10.99458984 -13.34472656 10.17667969 -13.36132812 9.33398438 C-13.36617003 3.44138679 -13.36617003 3.44138679 -11.60229492 1.31518555 C-7.71563225 -1.87504023 -4.75923854 -0.69085721 0 0 Z " fill="#FDE4C6" transform="translate(452,584)"/>
<path d="M0 0 C0 9.9 0 19.8 0 30 C-9.9 30 -19.8 30 -30 30 C-30 26.04 -30 22.08 -30 18 C-32.29517578 18.01740234 -32.29517578 18.01740234 -34.63671875 18.03515625 C-36.65364461 18.0445373 -38.67057179 18.05363716 -40.6875 18.0625 C-42.19860352 18.07506836 -42.19860352 18.07506836 -43.74023438 18.08789062 C-44.71669922 18.09111328 -45.69316406 18.09433594 -46.69921875 18.09765625 C-48.04246216 18.10551147 -48.04246216 18.10551147 -49.4128418 18.11352539 C-52 18 -52 18 -57 17 C-57 11.72 -57 6.44 -57 1 C-50.32888298 0.8563626 -43.65774059 0.71398841 -36.98657227 0.57275391 C-34.71996341 0.52459352 -32.45336169 0.47609581 -30.18676758 0.42724609 C-26.91749895 0.35684655 -23.64820606 0.28768436 -20.37890625 0.21875 C-19.37541641 0.19687622 -18.37192657 0.17500244 -17.33802795 0.15246582 C-15.89755348 0.12243469 -15.89755348 0.12243469 -14.42797852 0.09179688 C-13.59524918 0.07403198 -12.76251984 0.05626709 -11.90455627 0.03796387 C-7.93668959 -0.01389795 -3.9682056 0 0 0 Z " fill="#4F8295" transform="translate(542,793)"/>
<path d="M0 0 C12.54 0.66 25.08 1.32 38 2 C38 11.24 38 20.48 38 30 C33.03026599 30.709962 28.50918717 31.17193232 23.53515625 31.31640625 C21.67322632 31.37356812 21.67322632 31.37356812 19.77368164 31.43188477 C18.2189917 31.47498779 16.66430176 31.51809082 15.0625 31.5625 C10.091875 31.706875 5.12125 31.85125 0 32 C0 21.44 0 10.88 0 0 Z " fill="#84B6BD" transform="translate(543,215)"/>
<path d="M0 0 C10.23 0 20.46 0 31 0 C31.02291161 4.53904366 31.04283781 9.07788802 31.05493164 13.61694336 C31.0599714 15.16219766 31.0668032 16.70744716 31.07543945 18.25268555 C31.08752076 20.46925029 31.09323173 22.68575218 31.09765625 24.90234375 C31.10281754 25.5971434 31.10797882 26.29194305 31.11329651 27.00779724 C31.11349277 28.6722933 31.06189129 30.33665499 31 32 C30 33 30 33 27.29820251 33.12025452 C26.09241043 33.11803391 24.88661835 33.11581329 23.64428711 33.11352539 C22.98089828 33.11367142 22.31750946 33.11381744 21.63401794 33.1139679 C19.43176044 33.11326881 17.22958655 33.10547665 15.02734375 33.09765625 C13.50419664 33.09579206 11.98104893 33.09436816 10.457901 33.09336853 C6.44162349 33.08954346 2.42538192 33.07971328 -1.59088135 33.06866455 C-5.68623366 33.05845019 -9.78159176 33.05387086 -13.87695312 33.04882812 C-21.91798528 33.038091 -29.95898817 33.02101472 -38 33 C-38 32.67 -38 32.34 -38 32 C-25.46 32 -12.92 32 0 32 C0 21.44 0 10.88 0 0 Z " fill="#C2D3CA" transform="translate(512,215)"/>
<path d="M0 0 C0.99809692 0.00082581 1.99619385 0.00165161 3.02453613 0.00250244 C22.12190854 0.0387541 40.59009366 1.37705625 59.3125 5.3125 C59.3125 5.9725 59.3125 6.6325 59.3125 7.3125 C56.23022323 7.79862169 53.14651275 8.27502669 50.0625 8.75 C49.20914063 8.88470703 48.35578125 9.01941406 47.4765625 9.15820312 C12.16741861 14.55997514 -25.6822447 14.64600321 -60.6875 7.3125 C-60.6875 6.6525 -60.6875 5.9925 -60.6875 5.3125 C-40.518261 1.34738093 -20.5393007 -0.07242107 0 0 Z " fill="#537F90" transform="translate(512.6875,756.6875)"/>
<path d="M0 0 C8.38350886 1.6512972 8.38350886 1.6512972 11.5 3.4140625 C16.75786888 5.79653434 22.21167303 6.57182602 27.875 7.5625 C29.07560059 7.77938477 30.27620117 7.99626953 31.51318359 8.21972656 C39.43687321 9.62549085 47.34886458 10.80176778 55.3515625 11.640625 C58 12 58 12 59 13 C59.07319621 15.69654854 59.09242537 18.36691458 59.0625 21.0625 C59.05798828 21.82111328 59.05347656 22.57972656 59.04882812 23.36132812 C59.0370068 25.24091871 59.01907078 27.12046899 59 29 C47.22486081 28.27332264 35.90805318 26.27848562 24.4375 23.5625 C23.16632324 23.26206787 21.89514648 22.96163574 20.58544922 22.65209961 C13.65027007 20.97505714 6.81169287 19.12337804 0 17 C0 11.39 0 5.78 0 0 Z " fill="#F4DFC5" transform="translate(426,781)"/>
<path d="M0 0 C0.66 0.99 1.32 1.98 2 3 C2.94875 2.67 3.8975 2.34 4.875 2 C8 1 8 1 10 1 C11.34882408 0.36525925 12.6846659 -0.29848848 14 -1 C14.495 0.98 14.495 0.98 15 3 C15.33 2.01 15.66 1.02 16 0 C17 3 17 3 17 5 C16.34 5 15.68 5 15 5 C14.67 5.66 14.34 6.32 14 7 C13.505 6.505 13.505 6.505 13 6 C12.01 7.32 11.02 8.64 10 10 C15.94 10.33 21.88 10.66 28 11 C28.33 9.02 28.66 7.04 29 5 C29.495 5.99 29.495 5.99 30 7 C30.33 6.01 30.66 5.02 31 4 C34.12475396 2.43762302 37.55001356 3 41 3 C41.495 4.485 41.495 4.485 42 6 C42.66 5.34 43.32 4.68 44 4 C44 4.66 44 5.32 44 6 C44.598125 6.103125 45.19625 6.20625 45.8125 6.3125 C49.18795481 7.37335723 50.52629909 9.12739306 52.1875 12.1875 C52.5896875 13.0846875 52.5896875 13.0846875 53 14 C54.32 13.01 55.64 12.02 57 11 C57.495 12.485 57.495 12.485 58 14 C58.99 13.34 59.98 12.68 61 12 C61.66 11.67 62.32 11.34 63 11 C63 11.66 63 12.32 63 13 C63.66 13 64.32 13 65 13 C65 14.98 65 16.96 65 19 C64.04561035 18.85900879 63.0912207 18.71801758 62.10791016 18.57275391 C25.41446969 13.18254592 -10.95187653 11.31409105 -48 10 C-48 8.35 -48 6.7 -48 5 C-40.93259836 3.35710664 -33.8472576 2.04730719 -26.6875 0.875 C-25.63626953 0.69324219 -24.58503906 0.51148438 -23.50195312 0.32421875 C-5.30246931 -2.65123466 -5.30246931 -2.65123466 0 0 Z " fill="#CAAF9F" transform="translate(683,788)"/>
<path d="M0 0 C0.71353638 -0.00004028 1.42707275 -0.00008057 2.16223145 -0.00012207 C3.66504769 0.0052196 5.1678645 0.02274492 6.67041016 0.05175781 C8.96213745 0.09362918 11.25092314 0.092822 13.54296875 0.0859375 C15.00783278 0.09643114 16.47268176 0.1093702 17.9375 0.125 C18.95801453 0.12530212 18.95801453 0.12530212 19.99914551 0.12561035 C24.2953416 0.23173239 27.04192212 0.97963387 30.46875 3.59375 C31.60499119 5.86623238 31.73321843 7.37677764 31.84375 9.90625 C31.89273438 10.66550781 31.94171875 11.42476562 31.9921875 12.20703125 C31.1898117 15.86562536 29.33939398 17.25839978 26.46875 19.59375 C23.74200616 20.0829666 21.65187903 20.27555281 18.9375 20.22265625 C17.86719543 20.22627419 17.86719543 20.22627419 16.77526855 20.22996521 C15.27248556 20.22898935 13.76966546 20.21565765 12.26708984 20.19067383 C9.97498713 20.15634342 7.68674028 20.17002762 5.39453125 20.18945312 C3.92967119 20.18255418 2.46482103 20.17288133 1 20.16015625 C0.31965698 20.16511612 -0.36068604 20.17007599 -1.06164551 20.17518616 C-5.79198346 20.05889486 -8.20012226 18.92137865 -11.53125 15.59375 C-13.11023053 12.43578893 -13.35053171 8.98704364 -12.53125 5.59375 C-8.76683532 0.85012397 -5.85210892 -0.1410272 0 0 Z " fill="#052434" transform="translate(337.53125,799.40625)"/>
<path d="M0 0 C0.66 0.99 1.32 1.98 2 3 C1.67 3.66 1.34 4.32 1 5 C1.556875 4.690625 2.11375 4.38125 2.6875 4.0625 C5.12540433 2.94238179 7.36224186 2.43962636 10 2 C9.67 3.65 9.34 5.3 9 7 C9.99 7 10.98 7 12 7 C12.99 7 13.98 7 15 7 C17.95183101 9.95183101 18.08663988 12.95511947 19 17 C19.4125 16.34 19.825 15.68 20.25 15 C21.11625 14.01 21.11625 14.01 22 13 C23.32 13 24.64 13 26 13 C26 13.99 26 14.98 26 16 C26.99 16 27.98 16 29 16 C29.66 14.35 30.32 12.7 31 11 C31.66 11 32.32 11 33 11 C32.505 10.05125 32.01 9.1025 31.5 8.125 C30 5 30 5 30 3 C31.32 2.67 32.64 2.34 34 2 C34.66 2.99 35.32 3.98 36 5 C36.66 5.33 37.32 5.66 38 6 C37.01 6.66 36.02 7.32 35 8 C35.495 10.475 35.495 10.475 36 13 C37.32 12.34 38.64 11.68 40 11 C40.495 11.99 40.495 11.99 41 13 C42.32 11.68 43.64 10.36 45 9 C45.99 9.33 46.98 9.66 48 10 C47.85433594 10.556875 47.70867188 11.11375 47.55859375 11.6875 C46.76951858 14.95416086 46.19737205 18.25650364 45.59765625 21.5625 C45 24 45 24 43.87109375 26.1875 C43.43990234 27.0846875 43.43990234 27.0846875 43 28 C43.495 28.99 43.495 28.99 44 30 C39.71 30.66 35.42 31.32 31 32 C31.33 30.68 31.66 29.36 32 28 C31.34 28 30.68 28 30 28 C29.505 29.485 29.505 29.485 29 31 C25.33222736 31.20376515 23.16979879 30.84052833 20 29 C16.76614245 27.27527597 13.49213092 26.11113256 10 25 C10 22.36 10 19.72 10 17 C10.99 17.33 11.98 17.66 13 18 C13 17.34 13 16.68 13 16 C13.66 16 14.32 16 15 16 C15 15.34 15 14.68 15 14 C11.78299472 14.34778436 10.40849852 14.50072404 8.3125 17.0625 C7.879375 17.701875 7.44625 18.34125 7 19 C6.34 19 5.68 19 5 19 C4.34 18.34 3.68 17.68 3 17 C2.34 17.33 1.68 17.66 1 18 C1.33 16.35 1.66 14.7 2 13 C-0.475 12.01 -0.475 12.01 -3 11 C-3 9.35 -3 7.7 -3 6 C-3.66 6 -4.32 6 -5 6 C-5.33 5.01 -5.66 4.02 -6 3 C-4.02 2.67 -2.04 2.34 0 2 C0 1.34 0 0.68 0 0 Z M40 10 C42 11 42 11 42 11 Z " fill="#E4C4AC" transform="translate(770,784)"/>
<path d="M0 0 C5.14906128 4.80579053 5.88997074 8.81302621 6.3125 15.6875 C6.41304688 17.01890015 6.41304688 17.01890015 6.515625 18.37719727 C6.64121817 20.12893359 6.75569205 21.88151001 6.85791016 23.63476562 C6.97707549 25.61839756 7.14488981 27.59902491 7.32421875 29.578125 C7.71223723 35.88989231 7.71223723 35.88989231 5.8671875 38.765625 C3.44235681 41.07619665 1.19427938 41.96431603 -2.0625 42.5625 C-5.67781108 41.87020639 -7.38108416 40.54408967 -10 38 C-11.68326246 34.63347507 -11.68047095 30.83107194 -12.0625 27.125 C-12.15120361 26.27035156 -12.23990723 25.41570313 -12.33129883 24.53515625 C-13.96684763 7.9005429 -13.96684763 7.9005429 -12 2 C-7.90871728 -1.36929165 -5.02082055 -1.52417767 0 0 Z " fill="#072737" transform="translate(417,568)"/>
<path d="M0 0 C0.24882404 4.14387734 0.4293297 8.28372119 0.54931641 12.43286133 C0.59935413 13.84085843 0.66741993 15.24834223 0.75439453 16.65454102 C1.45773396 28.32583817 1.45773396 28.32583817 -2.20019531 32.52685547 C-8.46417549 37 -8.46417549 37 -12 37 C-12 28.42 -12 19.84 -12 11 C-14.743125 11.9075 -17.48625 12.815 -20.3125 13.75 C-37.23817868 19.16299603 -54.39771213 21.82879269 -72 24 C-72 22.68 -72 21.36 -72 20 C-73.32 19.67 -74.64 19.34 -76 19 C-75.13387085 18.93268677 -75.13387085 18.93268677 -74.25024414 18.86401367 C-49.48893308 16.89478194 -26.05193384 13.43427235 -3.89453125 1.5390625 C-1 0 -1 0 0 0 Z " fill="#A7D0D1" transform="translate(614,769)"/>
<path d="M0 0 C0.33 0.99 0.66 1.98 1 3 C1.33 2.34 1.66 1.68 2 1 C4.475 1.495 4.475 1.495 7 2 C7.33 1.34 7.66 0.68 8 0 C8.495 1.98 8.495 1.98 9 4 C10.98 3.01 12.96 2.02 15 1 C15.495 1.495 15.495 1.495 16 2 C16.66 1.67 17.32 1.34 18 1 C18 1.99 18 2.98 18 4 C18.61875 3.835 19.2375 3.67 19.875 3.5 C22.89671077 2.78900923 25.90169862 3 29 3 C29.495 5.475 29.495 5.475 30 8 C30.66 7.01 31.32 6.02 32 5 C34.5625 4.375 34.5625 4.375 37 4 C37.33 3.67 37.66 3.34 38 3 C41 2.375 41 2.375 44 2 C45 3 45 3 45.125 6 C44.96697194 9.79267351 44.61872054 9.38127946 42 12 C42.99 13.485 42.99 13.485 44 15 C42.35 15.33 40.7 15.66 39 16 C39 16.66 39 17.32 39 18 C36 18 36 18 33.3125 15.625 C31 13 31 13 31 11 C29.10820797 10.3185177 29.10820797 10.3185177 27 10 C26.34 10.66 25.68 11.32 25 12 C24.505 9.525 24.505 9.525 24 7 C23.21625 7.185625 22.4325 7.37125 21.625 7.5625 C19 8 19 8 17 7 C16.67 7.66 16.34 8.32 16 9 C15.34 8.67 14.68 8.34 14 8 C14.495 9.485 14.495 9.485 15 11 C14.34 11 13.68 11 13 11 C12.34 12.32 11.68 13.64 11 15 C4.73 15 -1.54 15 -8 15 C-7.01 13.02 -6.02 11.04 -5 9 C-3.33333333 9 -1.66666667 9 0 9 C-0.33 7.68 -0.66 6.36 -1 5 C-1.33 5.66 -1.66 6.32 -2 7 C-2.99 6.67 -3.98 6.34 -5 6 C-4.34 6 -3.68 6 -3 6 C-3.33 5.34 -3.66 4.68 -4 4 C-4.66 4.66 -5.32 5.32 -6 6 C-6.99 6 -7.98 6 -9 6 C-11.00405227 6.65438441 -13.00428677 7.32060826 -15 8 C-15.66 8 -16.32 8 -17 8 C-17 6.68 -17 5.36 -17 4 C-19.31 3.67 -21.62 3.34 -24 3 C-24 2.67 -24 2.34 -24 2 C-15.92046224 0.18655665 -8.26747851 -0.23658921 0 0 Z " fill="#D6B6A3" transform="translate(700,784)"/>
<path d="M0 0 C0 3.63 0 7.26 0 11 C-20.41481547 11.42746654 -39.99377115 11.69256048 -60 7 C-60 6.34 -60 5.68 -60 5 C-39.99090189 1.06636341 -20.38271471 -0.35176305 0 0 Z " fill="#F4E5C9" transform="translate(512,757)"/>
<path d="M0 0 C3.78171013 2.03630545 7.09528802 4.08475871 9 8 C9.73092146 12.71940644 9.4615237 16.0769526 7.3125 20.375 C3.9540179 24.18733103 1.66147259 25.7230879 -3.375 26.5625 C-8.2009416 25.81364699 -10.8341375 23.64199485 -14 20 C-16.23253272 16.21730337 -16.45538324 13.40203798 -16 9 C-12.32317126 1.9187002 -8.0382172 -0.98714948 0 0 Z " fill="#0A2635" transform="translate(437,404)"/>
<path d="M0 0 C-2 2 -2 2 -5.625 2.125 C-6.73875 2.08375 -7.8525 2.0425 -9 2 C-9 2.66 -9 3.32 -9 4 C-9.639375 4.226875 -10.27875 4.45375 -10.9375 4.6875 C-13.20241355 5.79391605 -13.20241355 5.79391605 -13.5 8.0625 C-13.665 9.031875 -13.83 10.00125 -14 11 C-15.23213677 14.04711002 -16.6059771 17.02392319 -18 20 C-19.50559539 18.03617993 -20.89131683 16.21736634 -22 14 C-24.3431213 14.25561323 -26.67843403 14.59270772 -29 15 C-29.33 15.66 -29.66 16.32 -30 17 C-30.99 17 -31.98 17 -33 17 C-35.88214887 17.88214887 -35.88214887 17.88214887 -38 19 C-38.495 17.02 -38.495 17.02 -39 15 C-42.62885324 14.84850702 -42.62885324 14.84850702 -46 16 C-46 15.34 -46 14.68 -46 14 C-47.32 14.33 -48.64 14.66 -50 15 C-50 14.01 -50 13.02 -50 12 C-50.33 12.66 -50.66 13.32 -51 14 C-52.32 14 -53.64 14 -55 14 C-57.20067421 14.93283296 -57.20067421 14.93283296 -59 16 C-62 14 -62 14 -63 13 C-63.639375 13.185625 -64.27875 13.37125 -64.9375 13.5625 C-65.618125 13.706875 -66.29875 13.85125 -67 14 C-67.66 13.34 -68.32 12.68 -69 12 C-71.57061311 11.35232207 -71.57061311 11.35232207 -74 11 C-74 10.67 -74 10.34 -74 10 C-73.31032639 9.90421661 -72.62065277 9.80843323 -71.91007996 9.70974731 C-65.36449975 8.8002641 -58.81923473 7.88854802 -52.27430248 6.97441292 C-48.91065487 6.50468782 -45.54689739 6.03578335 -42.18286133 5.56884766 C-38.30259364 5.02982177 -34.42274834 4.48783909 -30.54296875 3.9453125 C-29.35293747 3.78064484 -28.16290619 3.61597717 -26.93681335 3.44631958 C-20.68812601 2.56949962 -14.48441415 1.58708762 -8.29023743 0.38131714 C-5.50375064 -0.08262392 -2.81832051 -0.15234165 0 0 Z " fill="#DEBEA8" transform="translate(768,773)"/>
<path d="M0 0 C1.14339844 0.11085938 2.28679687 0.22171875 3.46484375 0.3359375 C4.32207031 0.43132812 5.17929687 0.52671875 6.0625 0.625 C2.3125 2.625 2.3125 2.625 0.0625 2.625 C0.206875 3.90375 0.35125 5.1825 0.5 6.5 C0.68772621 8.20830849 0.87521348 9.91664325 1.0625 11.625 C1.15789062 12.46417969 1.25328125 13.30335938 1.3515625 14.16796875 C1.91464909 19.35640945 2.15914316 24.40626961 2.0625 29.625 C0.886875 28.8515625 0.886875 28.8515625 -0.3125 28.0625 C-4.84781267 25.94288846 -4.84781267 25.94288846 -13.9375 27.625 C-13.9375 19.045 -13.9375 10.465 -13.9375 1.625 C-8.08094542 -0.04830131 -5.66348433 -0.58386436 0 0 Z " fill="#F8E1C7" transform="translate(389.9375,259.375)"/>
<path d="M0 0 C3.40704599 0.94440924 5.0954939 2.88675585 7.2265625 5.6171875 C8.97847917 9.12102083 8.18634896 12.91241176 7.2265625 16.6171875 C4.7265625 19.6171875 4.7265625 19.6171875 2.2265625 21.6171875 C1.8965625 21.9471875 1.5665625 22.2771875 1.2265625 22.6171875 C-5.77884291 23.20097128 -5.77884291 23.20097128 -9.6484375 20.9296875 C-12.68590433 17.62420889 -13.58450608 15.09715028 -14.1484375 10.6796875 C-13.66729315 6.75034201 -12.21828107 4.69070513 -9.7734375 1.6171875 C-6.02672561 -0.88062043 -4.30837918 -0.57538614 0 0 Z " fill="#0D2D3C" transform="translate(465.7734375,317.3828125)"/>
<path d="M0 0 C2.84515529 2.84515529 2.37573982 5.74550437 2.5 9.5625 C2.77500566 15.59505668 3.43105089 21.14259 5 27 C4.34 27.33 3.68 27.66 3 28 C2.34 27.67 1.68 27.34 1 27 C-5.58801854 26.53602463 -5.58801854 26.53602463 -11 30 C-13.05805771 20.6416621 -14.53079589 11.59441508 -15 2 C-14.40058594 2.32226562 -13.80117188 2.64453125 -13.18359375 2.9765625 C-10.21968042 4.36573118 -8.24345212 4.3971574 -5 4 C-2.15079947 2.12230858 -2.15079947 2.12230858 0 0 Z " fill="#F7E4C9" transform="translate(423,605)"/>
<path d="M0 0 C2.99093647 1.51865379 5.08429475 3.23913068 7 6 C7.8240744 9.17380005 7.75620212 11.81691665 7 15 C5.20606332 17.87029869 4.01736724 19.49131638 1 21 C-2.95360629 21.69583471 -6.51057568 22.01812576 -9.92578125 19.68359375 C-12.74814192 16.67262664 -13.89814101 14.52781478 -14.6875 10.4375 C-13.78113488 5.90567439 -12.24804664 4.24804664 -9 1 C-5.79745853 -0.60127074 -3.54685436 -0.40701607 0 0 Z " fill="#08233C" transform="translate(426,317)"/>
<path d="M0 0 C4.455 0.99 4.455 0.99 9 2 C9.1004612 13.72047277 9.09930745 25.31985839 8 37 C4.7 36.34 1.4 35.68 -2 35 C-2.24949584 23.14894742 -1.66411137 11.73792839 0 0 Z " fill="#518398" transform="translate(580,707)"/>
<path d="M0 0 C2.75569447 2.18159145 4.43588747 3.87177494 6 7 C6.04079849 11.22672392 5.69610539 14.88623137 3.4375 18.5 C0.03813991 20.5919139 -3.01791395 21.21375015 -7 21 C-10.62090756 19.42569236 -11.79255284 18.31117074 -14 15 C-14.79875517 10.03931002 -14.73404128 6.18393754 -12.0625 1.875 C-7.96645433 -0.63278306 -4.68747351 -1.08695038 0 0 Z " fill="#02273A" transform="translate(593,301)"/>
<path d="M0 0 C13.365 0.495 13.365 0.495 27 1 C27 4.96 27 8.92 27 13 C16.11 13 5.22 13 -6 13 C-6 12.67 -6 12.34 -6 12 C-3.69 12 -1.38 12 1 12 C0.67 11.34 0.34 10.68 0 10 C0 6.7 0 3.4 0 0 Z " fill="#F3DFC8" transform="translate(485,810)"/>
<path d="M0 0 C3.67652113 1.95685802 6.41326768 4.12979074 7.6875 8.19140625 C7.97273443 11.7033552 7.70965582 14.01414292 5.625 16.91015625 C2.8467157 19.53340236 0.68360997 20.84653654 -3.0625 21.6875 C-7.17843703 20.72419559 -8.9799501 18.94981618 -12 16 C-13.77564811 12.44870378 -13.45594986 8.49219953 -12.3125 4.75 C-9.12393088 0.49857451 -5.15800279 -0.9284405 0 0 Z " fill="#082843" transform="translate(448,481)"/>
<path d="M0 0 C2.73666251 0.64015497 4.89514414 1.75840182 6.92578125 3.7109375 C8.79084981 6.75181015 8.81031802 9.58977592 8.5859375 13.0859375 C7.9560674 15.66460032 7.35683493 16.78674181 5.44140625 18.59375 C1.46449184 20.76297604 -0.53781164 21.19828707 -4.99609375 20.46875 C-8.36630977 18.3717267 -10.88738914 16.34921613 -11.99609375 12.46875 C-11.91907688 8.23282233 -11.37907513 6.01420833 -8.93359375 2.53125 C-5.83363613 0.35468401 -3.80375323 -0.28870992 0 0 Z " fill="#042536" transform="translate(581.99609375,562.53125)"/>
<path d="M0 0 C3.5386994 1.65139305 4.81070153 2.71605229 7 6 C7.42876337 10.43055482 7.5093202 12.91190685 5.625 16.9375 C2.25613405 19.58446611 -0.34959354 20.10552843 -4.5859375 20.32421875 C-7 20 -7 20 -10.0625 17.5 C-12.26545766 14.12108629 -13 11.05618151 -13 7 C-10.19300808 0.68426818 -6.70664014 -0.57815863 0 0 Z " fill="#04293A" transform="translate(580,599)"/>
<path d="M0 0 C3.29013595 0.7833657 4.91316778 2.91484481 6.96875 5.46875 C7.29875 5.79875 7.62875 6.12875 7.96875 6.46875 C8.37978761 10.085881 8.19492939 12.04466365 6.46875 15.28125 C3.53946021 17.84437857 1.74468059 18.35707389 -2.06640625 18.60546875 C-5.07386638 18.39620214 -6.76096781 17.40516716 -9.03125 15.46875 C-11.13226595 12.7947297 -11.02971976 11.42590315 -10.90625 7.96875 C-9.33182503 1.67105011 -6.62454514 -0.29662142 0 0 Z " fill="#FCE3C6" transform="translate(439.03125,529.53125)"/>
<path d="M0 0 C-2 2 -2 2 -5.625 2.125 C-6.73875 2.08375 -7.8525 2.0425 -9 2 C-9 2.66 -9 3.32 -9 4 C-9.639375 4.226875 -10.27875 4.45375 -10.9375 4.6875 C-13.20241355 5.79391605 -13.20241355 5.79391605 -13.5 8.0625 C-13.665 9.031875 -13.83 10.00125 -14 11 C-15.23213677 14.04711002 -16.6059771 17.02392319 -18 20 C-19.50559539 18.03617993 -20.89131683 16.21736634 -22 14 C-23.2375 14.020625 -24.475 14.04125 -25.75 14.0625 C-28.6640825 14.06766681 -31.20953327 13.93015558 -34 13 C-33.67 11.68 -33.34 10.36 -33 9 C-33.99 8.67 -34.98 8.34 -36 8 C-35.67 7.34 -35.34 6.68 -35 6 C-36.32 5.67 -37.64 5.34 -39 5 C-38.21351074 4.88406494 -37.42702148 4.76812988 -36.61669922 4.64868164 C-33.03604741 4.12053154 -29.45552278 3.59152407 -25.875 3.0625 C-24.6375 2.88009766 -23.4 2.69769531 -22.125 2.50976562 C-20.92617188 2.33251953 -19.72734375 2.15527344 -18.4921875 1.97265625 C-17.39245605 1.81031494 -16.29272461 1.64797363 -15.15966797 1.48071289 C-13.03786801 1.15790157 -10.91951153 0.81166176 -8.80517578 0.44311523 C-5.82836902 -0.02711142 -3.00870411 -0.07163581 0 0 Z " fill="#E2C4AC" transform="translate(768,773)"/>
<path d="M0 0 C38.28 0.33 76.56 0.66 116 1 C116 1.33 116 1.66 116 2 C103.85632487 2.92870526 91.78423291 3.1630954 79.609375 3.16796875 C77.68800839 3.17119254 75.76664201 3.17455739 73.84527588 3.17805481 C69.84834219 3.18399312 65.85142997 3.18589993 61.85449219 3.18530273 C56.7622403 3.18520073 51.67012663 3.19891586 46.57790756 3.21607494 C42.62110778 3.22724483 38.66434109 3.22922051 34.70752716 3.22869301 C32.83066578 3.22986318 30.95380326 3.23423 29.0769577 3.24202538 C19.19283546 3.27928094 9.70581734 3.16297163 0 1 C0 0.67 0 0.34 0 0 Z " fill="#273132" transform="translate(518,844)"/>
<path d="M0 0 C-0.33 0.99 -0.66 1.98 -1 3 C-14.14085464 8.63791969 -29.99210843 9.17588013 -44 11 C-44 9.68 -44 8.36 -44 7 C-45.32 6.67 -46.64 6.34 -48 6 C-47.42258057 5.95512451 -46.84516113 5.91024902 -46.25024414 5.86401367 C-31.18764619 4.66610675 -14.8274235 -0.3294983 0 0 Z " fill="#BEDCE3" transform="translate(586,782)"/>
<path d="M0 0 C3.0210714 2.0140476 4.60667426 3.63279613 6 7 C7.32 6.01 8.64 5.02 10 4 C10.33 4.99 10.66 5.98 11 7 C11.99 6.34 12.98 5.68 14 5 C14.66 4.67 15.32 4.34 16 4 C16 4.66 16 5.32 16 6 C16.66 6 17.32 6 18 6 C18 7.98 18 9.96 18 12 C11.4 11.01 4.8 10.02 -2 9 C-1.67 8.34 -1.34 7.68 -1 7 C-1.66 6.34 -2.32 5.68 -3 5 C-2.34 4.67 -1.68 4.34 -1 4 C-0.34786708 1.97536745 -0.34786708 1.97536745 0 0 Z " fill="#CBB0A1" transform="translate(730,795)"/>
<path d="M0 0 C0 10.66666667 0 21.33333333 0 32 C-0.66 32 -1.32 32 -2 32 C-2 23.42 -2 14.84 -2 6 C-6.84756074 7.64219963 -6.84756074 7.64219963 -11.69287109 9.29101562 C-16.77777778 11 -16.77777778 11 -19 11 C-19.33 9.68 -19.66 8.36 -20 7 C-19.19780029 6.73521851 -19.19780029 6.73521851 -18.37939453 6.46508789 C-15.96074202 5.66579184 -13.54286513 4.86417455 -11.125 4.0625 C-10.28324219 3.78470703 -9.44148437 3.50691406 -8.57421875 3.22070312 C-7.76855469 2.95322266 -6.96289062 2.68574219 -6.1328125 2.41015625 C-5.38918457 2.16402588 -4.64555664 1.91789551 -3.87939453 1.66430664 C-1.94577687 1.02437575 -1.94577687 1.02437575 0 0 Z " fill="#99C0C7" transform="translate(604,774)"/>
<path d="M0 0 C2 1 2 1 3 2 C4.99782126 2.15825258 7.00088834 2.25119171 9.00390625 2.31640625 C10.21884766 2.35830078 11.43378906 2.40019531 12.68554688 2.44335938 C13.96494141 2.48267578 15.24433594 2.52199219 16.5625 2.5625 C17.84576172 2.60568359 19.12902344 2.64886719 20.45117188 2.69335938 C23.63399853 2.799848 26.81690674 2.90185962 30 3 C30 3.66 30 4.32 30 5 C30.99 5 31.98 5 33 5 C33 4.34 33 3.68 33 3 C33.99 3 34.98 3 36 3 C36.495 4.98 36.495 4.98 37 7 C23.66078833 6.07838174 10.33094846 5.03297559 -3 4 C-2.01 2.68 -1.02 1.36 0 0 Z " fill="#BAADA2" transform="translate(689,796)"/>
<path d="M0 0 C3.24208567 0.35049575 4.61527704 0.56221181 6.8125 3.0625 C7.204375 3.701875 7.59625 4.34125 8 5 C9.65 4.01 11.3 3.02 13 2 C13.33 2.66 13.66 3.32 14 4 C13.34 4.66 12.68 5.32 12 6 C11.34 6 10.68 6 10 6 C9.67 6.66 9.34 7.32 9 8 C4.78527823 9.44504746 2.0633054 8.60642307 -2 7 C-1.34 6.67 -0.68 6.34 0 6 C-0.2784375 5.071875 -0.2784375 5.071875 -0.5625 4.125 C-1 2 -1 2 0 0 Z " fill="#CFB1A0" transform="translate(761,803)"/>
<path d="M0 0 C-0.33 0.99 -0.66 1.98 -1 3 C-3.50659448 3.88485449 -5.86478541 4.57698509 -8.4375 5.1875 C-9.13166016 5.36474609 -9.82582031 5.54199219 -10.54101562 5.72460938 C-15.62780526 7 -15.62780526 7 -18 7 C-18.33 5.68 -18.66 4.36 -19 3 C-16.96040523 2.49161436 -14.91820862 1.99366114 -12.875 1.5 C-11.73804688 1.2215625 -10.60109375 0.943125 -9.4296875 0.65625 C-6.18533302 0.03546235 -3.29185543 -0.12006768 0 0 Z " fill="#AFD2DC" transform="translate(586,782)"/>
<path d="M0 0 C-2.46632124 3.69948187 -2.46632124 3.69948187 -5 5 C-9.1243711 4.84446455 -13.00409005 4.00057075 -17 3 C-17 2.34 -17 1.68 -17 1 C-10.91748904 -0.70366626 -6.22895086 -1.13253652 0 0 Z " fill="#E4DBC6" transform="translate(469,761)"/>
<path d="M0 0 C-2 2 -2 2 -5.625 2.125 C-6.73875 2.08375 -7.8525 2.0425 -9 2 C-9 2.66 -9 3.32 -9 4 C-11.31 5.32 -13.62 6.64 -16 8 C-16 7.01 -16 6.02 -16 5 C-18.31 5.33 -20.62 5.66 -23 6 C-23 5.01 -23 4.02 -23 3 C-20.29273634 2.4935186 -17.58442876 1.994649 -14.875 1.5 C-13.73417969 1.28537109 -13.73417969 1.28537109 -12.5703125 1.06640625 C-8.31957086 0.29687544 -4.34140803 -0.16644376 0 0 Z " fill="#E9CEB5" transform="translate(768,773)"/>
<path d="M0 0 C0.99 0 1.98 0 3 0 C4.10844919 3.32534757 3.84454356 5.62182575 3 9 C0.36 8.67 -2.28 8.34 -5 8 C-5.33 6.68 -5.66 5.36 -6 4 C-4.02 3.67 -2.04 3.34 0 3 C0 2.01 0 1.02 0 0 Z " fill="#CEB3A1" transform="translate(756,800)"/>
<path d="M0 0 C0.96587966 3.1704447 1.0734273 5.82648511 0.8125 9.125 C0.72935547 10.42824219 0.72935547 10.42824219 0.64453125 11.7578125 C0 14 0 14 -2.05078125 15.3046875 C-2.69402344 15.53414062 -3.33726562 15.76359375 -4 16 C-4.99 14.02 -5.98 12.04 -7 10 C-6.34 10 -5.68 10 -5 10 C-4.67 9.34 -4.34 8.68 -4 8 C-3.67 8 -3.34 8 -3 8 C-2.67 6.35 -2.34 4.7 -2 3 C-1.34 3 -0.68 3 0 3 C0 2.01 0 1.02 0 0 Z " fill="#65A4B2" transform="translate(562,685)"/>
<path d="M0 0 C1.32 0.66 2.64 1.32 4 2 C4 2.33 4 2.66 4 3 C4.99 3.33 5.98 3.66 7 4 C5.72942818 4.47985967 4.45853152 4.9588593 3.1875 5.4375 C2.12595703 5.83775391 2.12595703 5.83775391 1.04296875 6.24609375 C-0.62672396 6.86225186 -2.31157704 7.43719235 -4 8 C-7.1875 6.0625 -7.1875 6.0625 -10 4 C-6.25 2 -6.25 2 -4 2 C-4 2.66 -4 3.32 -4 4 C-3.34 4 -2.68 4 -2 4 C-1.67 3.34 -1.34 2.68 -1 2 C-0.67 2 -0.34 2 0 2 C0 1.34 0 0.68 0 0 Z " fill="#CDB1A1" transform="translate(777,809)"/>
<path d="M0 0 C2.52588702 2.36292656 3.88820837 3.66462511 5 7 C7.97 7.495 7.97 7.495 11 8 C7.54785147 10.30143236 6.76520676 10.13833854 2.8125 9.625 C1.91144531 9.51414062 1.01039063 9.40328125 0.08203125 9.2890625 C-0.60503906 9.19367187 -1.29210937 9.09828125 -2 9 C-1.67 8.34 -1.34 7.68 -1 7 C-1.66 6.34 -2.32 5.68 -3 5 C-2.34 4.67 -1.68 4.34 -1 4 C-0.34786708 1.97536745 -0.34786708 1.97536745 0 0 Z " fill="#BFAA9B" transform="translate(730,795)"/>
<path d="M0 0 C0 3 0 3 -2 6 C0.31 6 2.62 6 5 6 C2 8 2 8 -0.91796875 7.5390625 C-1.99691406 7.23742187 -3.07585937 6.93578125 -4.1875 6.625 C-5.27417969 6.32851562 -6.36085938 6.03203125 -7.48046875 5.7265625 C-8.72763672 5.36691406 -8.72763672 5.36691406 -10 5 C-10 4.34 -10 3.68 -10 3 C-5.05 1.515 -5.05 1.515 0 0 Z " fill="#D9D7C5" transform="translate(372,227)"/>
<path d="M0 0 C6.27 0.33 12.54 0.66 19 1 C17 3 17 3 13.0859375 3.1953125 C11.51550649 3.18200376 9.94513779 3.15813602 8.375 3.125 C7.57320312 3.11597656 6.77140625 3.10695312 5.9453125 3.09765625 C3.96341477 3.07406223 1.98167019 3.03819065 0 3 C0 2.01 0 1.02 0 0 Z " fill="#93B9C2" transform="translate(543,215)"/>
<path d="M0 0 C4.62 0 9.24 0 14 0 C13.34 1.32 12.68 2.64 12 4 C9.32209537 4.83886169 6.8262059 4.81766414 4 5 C4 3.68 4 2.36 4 1 C2.68 0.67 1.36 0.34 0 0 Z " fill="#BED6D7" transform="translate(538,788)"/>
<path d="M0 0 C0.66 0.66 1.32 1.32 2 2 C-3.28 3.32 -8.56 4.64 -14 6 C-8.35700648 0.35700648 -7.57099811 -0.40558918 0 0 Z " fill="#223640" transform="translate(437,404)"/>
<path d="M0 0 C0.99 0 1.98 0 3 0 C3.1567564 7.71589817 2.67453101 15.31516461 2 23 C1.67 23 1.34 23 1 23 C0.93941406 21.94039062 0.87882813 20.88078125 0.81640625 19.7890625 C0.73199873 18.40102779 0.64735083 17.01300768 0.5625 15.625 C0.52318359 14.92632813 0.48386719 14.22765625 0.44335938 13.5078125 C0.25719866 9.62639508 0.25719866 9.62639508 -1 6 C-0.34 6 0.32 6 1 6 C0.67 4.02 0.34 2.04 0 0 Z " fill="#619DAD" transform="translate(559,701)"/>
<path d="M0 0 C0.99 1.32 1.98 2.64 3 4 C0.57244264 6.42755736 -1.89189508 7.57545191 -5 9 C-5.66 9 -6.32 9 -7 9 C-7 8.34 -7 7.68 -7 7 C-6.34 7 -5.68 7 -5 7 C-5 5.68 -5 4.36 -5 3 C-2.5 1.25 -2.5 1.25 0 0 Z " fill="#EED3BA" transform="translate(847,798)"/>
<path d="M0 0 C-1.09375 1.48046875 -1.09375 1.48046875 -3 3 C-6.03125 3.36328125 -6.03125 3.36328125 -9.5 3.3125 C-10.6446875 3.30863281 -11.789375 3.30476562 -12.96875 3.30078125 C-16 3 -16 3 -19 1 C-12.61773055 0.17648136 -6.43255401 -0.12086218 0 0 Z " fill="#213639" transform="translate(444,196)"/>
<path d="M0 0 C0.66 0.4125 1.32 0.825 2 1.25 C3.32 1.91 4.64 2.57 6 3.25 C2.7 3.91 -0.6 4.57 -4 5.25 C-4.66 3.93 -5.32 2.61 -6 1.25 C-2.56140351 -0.96052632 -2.56140351 -0.96052632 0 0 Z " fill="#E9CEB4" transform="translate(830,805.75)"/>
<path d="M0 0 C0.66 0.99 1.32 1.98 2 3 C2.66 3.33 3.32 3.66 4 4 C3.01 4.66 2.02 5.32 1 6 C0.27617533 8.05925139 0.27617533 8.05925139 0 10 C-1.99097846 7.01353231 -2.94124926 4.40312738 -4 1 C-2 0 -2 0 0 0 Z " fill="#EFD1B6" transform="translate(804,786)"/>
<path d="M0 0 C0 0.66 0 1.32 0 2 C-3.47325181 3.1577506 -6.36067448 3.06866652 -10 3 C-10 2.34 -10 1.68 -10 1 C-6.1496895 -1.56687367 -4.41430237 -0.83288724 0 0 Z " fill="#CCB09E" transform="translate(786,816)"/>
<path d="M0 0 C0.33 0 0.66 0 1 0 C1.33 5.61 1.66 11.22 2 17 C1.67 17 1.34 17 1 17 C-0.89507934 10.84099215 -1.14939837 6.32169101 0 0 Z " fill="#DBDCCB" transform="translate(378,640)"/>
<path d="M0 0 C-2.25 2.0625 -2.25 2.0625 -5 4 C-7.0625 3.6875 -7.0625 3.6875 -9 3 C-11.18703385 3.37907282 -11.18703385 3.37907282 -13 4 C-12.67 3.01 -12.34 2.02 -12 1 C-7.95858806 0.36605303 -4.0934693 -0.12404452 0 0 Z " fill="#E3C6B0" transform="translate(721,780)"/>
<path d="M0 0 C0.66 0 1.32 0 2 0 C3.36176922 1.64351457 4.68962066 3.31522656 6 5 C7.64783606 6.68528688 9.31002677 8.35697047 11 10 C7.43235179 9.42380903 5.74840503 8.13030516 3.25 5.5625 C2.63640625 4.94503906 2.0228125 4.32757812 1.390625 3.69140625 C0 2 0 2 0 0 Z " fill="#061B21" transform="translate(395,815)"/>
<path d="M0 0 C0.33 0 0.66 0 1 0 C1 4.62 1 9.24 1 14 C0.34 14 -0.32 14 -1 14 C-2.15837573 10.52487282 -1.77265943 8.86329714 -1.0625 5.3125 C-0.86785156 4.31863281 -0.67320312 3.32476563 -0.47265625 2.30078125 C-0.31667969 1.54152344 -0.16070313 0.78226563 0 0 Z " fill="#B7DBDC" transform="translate(614,739)"/>
<path d="M0 0 C0 0.66 0 1.32 0 2 C-0.886875 2.103125 -1.77375 2.20625 -2.6875 2.3125 C-6.0573702 3.01190702 -8.17271538 4.08742511 -11 6 C-10.6875 4.125 -10.6875 4.125 -10 2 C-6.3558226 -0.4294516 -4.28758728 -0.16179575 0 0 Z " fill="#091821" transform="translate(459,691)"/>
<path d="M0 0 C0.99 0 1.98 0 3 0 C3.1875 2.8125 3.1875 2.8125 3 6 C2.01 6.99 1.02 7.98 0 9 C0 6.03 0 3.06 0 0 Z " fill="#B7D6D8" transform="translate(614,624)"/>
<path d="M0 0 C2.56687367 3.8503105 1.83288724 5.58569763 1 10 C1.66 10.33 2.32 10.66 3 11 C2.01 11.66 1.02 12.32 0 13 C-1.29676812 8.38926889 -0.71109139 4.66159911 0 0 Z " fill="#AECED1" transform="translate(617,592)"/>
<path d="M0 0 C0.33 0 0.66 0 1 0 C1.37211538 7.56634615 1.37211538 7.56634615 -0.51171875 9.76171875 C-1.00285156 10.17035156 -1.49398437 10.57898438 -2 11 C-1.85957123 9.35369672 -1.71250671 7.70795821 -1.5625 6.0625 C-1.48128906 5.14597656 -1.40007813 4.22945312 -1.31640625 3.28515625 C-1 1 -1 1 0 0 Z " fill="#EBE6D4" transform="translate(662,527)"/>
<path d="M0 0 C2.97 0.99 5.94 1.98 9 3 C5 5 5 5 2.25 4.125 C1.5075 3.75375 0.765 3.3825 0 3 C0 2.01 0 1.02 0 0 Z " fill="#19333C" transform="translate(416,829)"/>
<path d="M0 0 C0.33 0.66 0.66 1.32 1 2 C1.66 2.33 2.32 2.66 3 3 C4.03145371 4.30915279 5.03542166 5.64082143 6 7 C3.69 6.67 1.38 6.34 -1 6 C-0.67 4.02 -0.34 2.04 0 0 Z " fill="#CCAE9B" transform="translate(712,793)"/>
<path d="M0 0 C2.01822917 0.06510417 4.03645833 0.13020833 6.0546875 0.1953125 C5.7246875 1.5153125 5.3946875 2.8353125 5.0546875 4.1953125 C0.5996875 3.2053125 0.5996875 3.2053125 -3.9453125 2.1953125 C-1.9453125 0.1953125 -1.9453125 0.1953125 0 0 Z " fill="#D9D1C3" transform="translate(421.9453125,628.8046875)"/>
<path d="M0 0 C0.33 0 0.66 0 1 0 C0.67 3.3 0.34 6.6 0 10 C-0.66 9.67 -1.32 9.34 -2 9 C-1.125 1.125 -1.125 1.125 0 0 Z " fill="#D8DAC6" transform="translate(670,487)"/>
<path d="M0 0 C0.33 0 0.66 0 1 0 C1.29296875 6.0546875 1.29296875 6.0546875 1 8 C0.01 8.66 -0.98 9.32 -2 10 C-1.125 2.25 -1.125 2.25 0 0 Z " fill="#E0DCCC" transform="translate(682,428)"/>
<path d="M0 0 C1.65 0 3.3 0 5 0 C4.67 0.99 4.34 1.98 4 3 C2.35 3.33 0.7 3.66 -1 4 C-0.67 2.68 -0.34 1.36 0 0 Z " fill="#ACD1D9" transform="translate(594,778)"/>
<path d="M0 0 C0.99 0 1.98 0 3 0 C2.67 2.64 2.34 5.28 2 8 C1.34 7.67 0.68 7.34 0 7 C0 4.69 0 2.38 0 0 Z " fill="#25373A" transform="translate(421,413)"/>
</svg>
