<?xml version="1.0" standalone="no"?>
<!DOCTYPE svg PUBLIC "-//W3C//DTD SVG 20010904//EN"
 "http://www.w3.org/TR/2001/REC-SVG-20010904/DTD/svg10.dtd">
<svg version="1.0" xmlns="http://www.w3.org/2000/svg"
 width="1024.000000pt" height="1024.000000pt" viewBox="0 0 1024.000000 1024.000000"
 preserveAspectRatio="xMidYMid meet">

<g transform="translate(0.000000,1024.000000) scale(0.100000,-0.100000)"
fill="#000000" stroke="none">
<path d="M4355 8580 c-498 -29 -876 -79 -1212 -160 -458 -111 -576 -210 -559
-474 3 -56 8 -180 11 -276 3 -96 10 -287 15 -425 13 -321 18 -453 30 -820 6
-165 15 -408 21 -540 5 -132 14 -366 19 -520 5 -154 12 -345 15 -425 11 -289
16 -417 20 -530 8 -211 15 -461 25 -910 5 -245 13 -509 16 -587 l6 -143 -231
0 c-238 0 -271 -5 -271 -39 0 -16 12 -19 92 -25 50 -3 162 -6 250 -6 87 0 158
-4 158 -9 0 -12 -156 -21 -372 -21 -181 0 -188 -1 -188 -20 0 -19 7 -20 143
-20 183 0 367 -11 367 -21 0 -5 -123 -10 -272 -11 -227 -3 -273 -5 -273 -17 0
-8 9 -16 20 -19 24 -6 277 -19 400 -21 69 -1 86 -4 72 -12 -11 -6 -34 -8 -55
-4 -20 4 -130 4 -244 0 -194 -7 -208 -9 -208 -26 0 -18 10 -19 140 -20 77 -1
145 -3 150 -4 6 -1 64 -3 130 -4 73 -1 120 -5 120 -11 0 -6 -75 -10 -204 -10
-240 0 -326 -7 -326 -26 0 -8 3 -14 8 -15 4 0 16 -2 27 -4 11 -2 128 -7 260
-11 132 -4 251 -11 265 -15 14 -4 -104 -8 -262 -8 -296 -1 -303 -2 -280 -39 7
-9 85 -15 312 -22 167 -6 306 -12 308 -15 3 -3 -99 -5 -227 -5 -282 1 -363 -6
-359 -29 3 -14 31 -17 193 -24 105 -4 263 -6 353 -3 89 3 160 2 158 -3 -3 -4
-94 -11 -203 -15 -321 -11 -448 -18 -455 -25 -4 -3 -3 -12 1 -20 7 -11 68 -13
317 -12 170 1 363 4 429 7 66 4 117 3 113 -1 -4 -4 -130 -14 -280 -21 -454
-22 -528 -27 -528 -34 0 -31 31 -33 468 -26 240 4 461 9 490 13 30 3 52 1 52
-4 0 -6 -85 -13 -202 -17 -354 -12 -652 -25 -696 -32 -25 -4 -41 -11 -39 -18
4 -11 408 -12 917 -1 145 3 239 2 230 -3 -8 -5 -197 -15 -420 -22 -576 -19
-643 -23 -648 -37 -3 -10 152 -13 750 -15 802 -1 775 -4 -221 -27 -249 -6
-456 -13 -459 -16 -3 -3 -3 -7 0 -10 26 -27 2778 -43 4213 -26 876 11 1028 16
999 34 -7 4 -317 14 -690 22 -373 9 -681 19 -684 22 -3 3 186 4 420 2 672 -4
1035 0 1024 11 -13 13 -428 39 -747 46 -142 4 -255 9 -250 13 4 4 246 3 537
-1 488 -8 567 -5 545 16 -5 5 -443 33 -702 45 -104 5 -191 12 -195 16 -4 4 49
5 118 1 69 -3 278 -9 465 -12 330 -6 395 -2 395 24 0 5 -105 14 -232 21 -384
20 -561 31 -567 36 -6 7 72 6 329 -4 291 -10 514 -2 518 20 3 17 -61 23 -438
35 -307 11 -236 22 130 20 313 -1 344 0 353 16 6 9 9 19 6 22 -2 3 -88 8 -191
12 -244 9 -251 9 -333 14 -38 3 70 7 240 10 l310 5 3 23 c4 24 -2 25 -120 25
-27 0 -48 3 -48 7 0 3 -36 6 -80 5 -56 -1 -84 3 -91 12 -9 11 21 13 169 13
158 0 181 2 186 16 4 9 5 18 4 20 -2 1 -107 6 -233 9 -127 4 -248 11 -270 16
-29 6 -15 7 47 4 53 -3 89 -1 93 5 4 6 73 10 182 9 96 0 177 2 180 5 3 3 3 11
0 19 -4 11 -44 15 -171 21 -91 3 -183 4 -205 0 -48 -8 -151 4 -151 17 0 5 44
9 98 9 53 0 168 3 255 7 144 6 157 8 157 25 0 17 -13 18 -209 18 -220 0 -331
7 -331 21 0 5 117 9 260 9 253 0 260 1 260 20 0 18 -7 20 -82 20 -46 0 -174 3
-285 7 -211 6 -271 23 -84 23 215 0 381 12 381 27 0 40 -20 43 -264 43 l-236
0 0 193 c0 105 5 320 10 477 5 157 12 366 15 465 16 536 24 755 35 1020 5 121
14 362 20 535 6 173 15 414 20 535 5 121 12 285 15 365 3 80 8 197 10 260 3
63 10 228 15 365 5 138 17 435 26 662 18 472 17 483 -55 565 -114 129 -441
227 -1026 308 -401 55 -564 63 -1375 65 -404 2 -798 -1 -875 -5z m1465 -146
c753 -47 1108 -92 1398 -174 222 -62 310 -111 327 -180 8 -34 -23 -74 -83
-104 -48 -24 -255 -80 -274 -74 -6 2 30 21 81 42 111 46 185 94 189 121 2 17
-11 26 -76 53 -99 40 -144 53 -317 92 -152 34 -442 73 -656 90 -74 5 -181 15
-239 20 -360 33 -1416 36 -1880 5 -289 -19 -807 -70 -915 -89 -127 -23 -275
-55 -335 -72 -58 -16 -210 -93 -210 -105 0 -11 57 -57 94 -76 17 -9 72 -31
121 -49 108 -39 81 -43 -67 -9 -169 38 -248 82 -248 139 0 29 47 86 95 116
189 117 1020 234 1840 260 259 8 994 5 1155 -6z m285 -228 c506 -38 806 -79
1011 -136 99 -28 175 -61 171 -73 -5 -16 -148 -63 -257 -86 -243 -50 -413 -72
-860 -111 -370 -31 -584 -40 -1005 -40 -582 0 -986 19 -1325 60 -85 10 -180
22 -210 25 -219 24 -650 127 -650 155 0 44 423 135 810 174 76 8 665 45 775
50 50 2 369 2 710 0 451 -1 677 -6 830 -18z m1425 -386 c0 -67 -1 -70 -30 -85
-53 -28 -60 -22 -60 50 l0 66 43 19 c23 11 43 20 45 20 1 0 2 -31 2 -70z
m-4395 -45 c121 -24 283 -51 360 -60 77 -9 192 -23 255 -31 776 -96 2018 -95
2840 1 246 29 510 74 678 116 68 17 127 28 130 25 3 -3 1 -6 -4 -6 -6 0 -19
-7 -30 -15 -18 -14 -18 -14 4 -8 20 5 22 2 23 -38 1 -24 4 -34 6 -21 4 19 7
21 19 11 27 -23 13 -35 -73 -61 -276 -85 -750 -155 -1388 -203 -324 -25 -1058
-30 -1455 -11 -184 9 -384 21 -445 26 -660 62 -1125 150 -1272 240 -31 19 -33
23 -33 78 l0 59 82 -29 c45 -16 181 -49 303 -73z m13 -261 c626 -123 1208
-162 2217 -150 297 4 581 9 630 12 257 14 627 56 955 108 52 8 115 18 140 21
25 4 95 20 155 37 61 16 133 36 160 43 28 8 63 18 78 24 16 6 31 11 34 11 3 0
3 -64 0 -142 -36 -791 -86 -2037 -107 -2658 -17 -493 -29 -580 -100 -689 -46
-72 -89 -111 -164 -147 -77 -37 -157 -57 -213 -52 -37 3 -36 4 59 50 135 64
221 149 268 263 18 43 39 115 47 160 15 86 31 549 26 795 -6 311 -12 502 -17
507 -3 3 -16 3 -29 -1 -35 -8 -32 38 -68 -891 -12 -308 -17 -352 -55 -434 -30
-66 -56 -96 -106 -122 -49 -25 -55 -24 -85 11 -40 48 -227 134 -368 169 -430
107 -921 149 -1625 138 -427 -7 -642 -23 -952 -72 -386 -61 -633 -140 -726
-234 l-34 -33 -45 23 c-129 67 -155 158 -168 614 -16 571 -34 815 -59 815 -22
0 -26 -122 -26 -724 0 -630 2 -657 61 -767 45 -83 139 -169 240 -217 45 -22
77 -42 72 -45 -18 -11 -121 11 -184 39 -119 54 -218 212 -219 352 0 20 -4 31
-10 27 -5 -3 -10 -12 -10 -20 0 -8 -5 -26 -11 -42 l-12 -28 -8 30 c-5 17 -20
381 -34 810 -13 429 -26 834 -29 900 -3 66 -8 185 -11 265 -3 80 -17 399 -30
709 -14 310 -25 582 -25 605 l0 42 131 -44 c71 -24 187 -55 257 -68z m2455
-3089 c12 -2 69 -6 127 -10 314 -19 688 -77 910 -142 177 -51 270 -116 270
-189 0 -65 -45 -111 -79 -80 -94 85 -489 182 -916 225 -383 39 -1096 40 -1496
2 -465 -44 -830 -129 -960 -223 l-43 -31 -18 23 c-42 52 -35 123 16 168 71 62
212 109 500 167 209 42 598 82 976 99 84 4 678 -3 713 -9z m53 -275 c423 -28
783 -95 959 -180 88 -42 116 -67 140 -123 12 -29 13 -38 3 -41 -210 -61 -784
-151 -1113 -175 -375 -27 -832 -21 -1158 14 -507 56 -967 144 -967 185 0 29
76 105 137 137 32 17 99 43 148 57 173 49 559 110 790 125 193 12 878 13 1061
1z m-2735 -191 c61 -113 206 -216 374 -264 46 -14 68 -27 94 -57 65 -75 157
-123 341 -175 8 -3 -30 18 -85 46 -90 44 -213 136 -201 148 2 3 25 -9 51 -27
253 -174 833 -270 1635 -270 393 0 592 11 895 50 378 49 597 113 778 227 21
13 42 22 45 19 13 -14 -96 -98 -190 -146 -107 -54 -100 -60 32 -23 72 19 400
199 400 218 0 2 -37 -11 -81 -31 -45 -19 -84 -32 -86 -30 -8 8 8 27 30 36 12
5 60 25 107 45 47 20 91 39 99 42 10 5 12 2 6 -7 -5 -9 -4 -11 4 -6 6 4 9 12
6 17 -4 5 -2 9 4 9 18 0 142 123 177 175 l34 50 0 -35 c0 -133 -135 -291 -329
-386 -247 -121 -740 -241 -1146 -279 -33 -3 -130 -13 -215 -21 -243 -25 -809
-30 -1050 -10 -330 28 -466 46 -700 92 -325 64 -614 154 -760 236 -124 70
-242 184 -279 270 -17 39 -36 148 -26 148 2 0 18 -27 36 -61z m1034 -329 c163
-29 397 -59 650 -82 157 -14 843 -18 995 -5 371 31 683 71 862 112 57 12 105
21 106 20 7 -6 -215 -74 -305 -94 -107 -24 -246 -44 -458 -68 -206 -23 -1079
-26 -1295 -5 -184 18 -388 48 -490 73 -98 23 -290 86 -305 100 -5 6 10 3 35
-6 24 -9 117 -29 205 -45z m-904 -134 c114 -85 319 -170 589 -242 515 -138
1269 -191 2065 -143 174 10 186 11 415 40 405 51 613 102 856 207 144 63 251
130 339 213 l70 67 -3 -427 c-1 -245 -7 -451 -13 -486 -39 -218 -223 -343
-667 -454 -179 -45 -487 -101 -642 -116 -36 -4 -119 -13 -185 -20 -606 -69
-1352 -44 -1955 65 -614 111 -910 249 -991 460 -25 65 -27 102 -32 620 l-4
366 51 -54 c28 -30 76 -73 107 -96z m-544 -942 c-3 -3 -12 -4 -19 -1 -8 3 -5
6 6 6 11 1 17 -2 13 -5z m60 0 c-3 -3 -12 -4 -19 -1 -8 3 -5 6 6 6 11 1 17 -2
13 -5z m5180 -80 c-3 -3 -12 -4 -19 -1 -8 3 -5 6 6 6 11 1 17 -2 13 -5z m-2
-94 c13 -6 -14 -9 -82 -7 -56 1 -99 5 -97 9 7 11 154 9 179 -2z"/>
<path d="M7431 7454 c0 -11 3 -14 6 -6 3 7 2 16 -1 19 -3 4 -6 -2 -5 -13z"/>
<path d="M7373 7355 c0 -22 2 -30 4 -17 2 12 2 30 0 40 -3 9 -5 -1 -4 -23z"/>
<path d="M7421 7334 c0 -11 3 -14 6 -6 3 7 2 16 -1 19 -3 4 -6 -2 -5 -13z"/>
<path d="M7423 7230 c0 -41 2 -58 4 -37 2 20 2 54 0 75 -2 20 -4 3 -4 -38z"/>
<path d="M7363 7100 c0 -36 2 -50 4 -32 2 17 2 47 0 65 -2 17 -4 3 -4 -33z"/>
<path d="M7413 7045 c0 -38 2 -53 4 -32 2 20 2 52 0 70 -2 17 -4 1 -4 -38z"/>
<path d="M7352 6830 c0 -19 2 -27 5 -17 2 9 2 25 0 35 -3 9 -5 1 -5 -18z"/>
<path d="M7403 6740 c0 -36 2 -50 4 -32 2 17 2 47 0 65 -2 17 -4 3 -4 -33z"/>
<path d="M4840 3805 c-118 -17 -254 -46 -351 -76 l-74 -23 50 -7 c212 -31 839
-38 1187 -14 123 9 227 17 233 18 16 5 -224 66 -350 88 -155 28 -547 36 -695
14z"/>
<path d="M3147 3694 c6 -15 84 -74 133 -99 40 -21 175 -65 198 -65 10 0 23 -5
30 -12 8 -8 12 -8 12 -1 0 13 -23 23 -58 24 -23 0 -24 1 -7 8 17 7 17 8 -8 15
-15 3 -27 11 -27 17 0 6 -4 7 -10 4 -5 -3 -10 0 -10 8 0 19 -27 29 -53 21 -11
-3 -17 -2 -14 3 3 5 -39 28 -93 50 -61 25 -97 36 -93 27z"/>
<path d="M3530 3516 c0 -2 7 -7 16 -10 8 -3 12 -2 9 4 -6 10 -25 14 -25 6z"/>
<path d="M6468 3433 c7 -3 16 -2 19 1 4 3 -2 6 -13 5 -11 0 -14 -3 -6 -6z"/>
<path d="M2966 3078 c3 -183 10 -349 15 -368 15 -61 67 -138 122 -181 28 -23
97 -64 152 -90 312 -147 767 -240 1377 -280 169 -11 1135 -8 1183 4 11 2 56 8
100 11 247 21 563 76 740 128 343 101 516 189 593 301 53 77 60 121 67 475 3
177 4 322 0 322 -3 0 -32 -18 -64 -40 -132 -90 -391 -195 -651 -263 -170 -45
-525 -112 -695 -132 -189 -21 -586 -55 -655 -55 l-60 0 0 -41 0 -40 153 2
c174 2 521 27 677 49 36 5 68 10 73 10 4 0 7 -97 7 -215 0 -118 -4 -215 -8
-215 -5 0 -89 -9 -188 -20 -191 -21 -482 -39 -626 -40 l-88 0 0 -40 0 -40 243
4 c133 3 331 15 439 26 109 11 204 20 213 20 10 0 15 -10 15 -35 0 -39 3 -38
-165 -55 -212 -20 -387 -25 -880 -25 -521 0 -542 2 -870 46 -212 28 -298 45
-464 91 -257 69 -478 152 -549 205 -60 45 -62 54 -62 352 l0 270 58 -26 c31
-14 59 -29 62 -34 8 -12 172 -77 228 -90 26 -6 74 -19 107 -29 84 -26 267 -63
291 -58 22 4 32 44 15 61 -6 6 -50 21 -98 33 -165 40 -315 85 -412 120 -129
48 -292 127 -333 162 -75 63 -68 93 -62 -280z m4153 -473 l-41 -40 6 115 c3
63 6 199 6 302 l0 186 33 19 32 19 3 -280 2 -280 -41 -41z m-159 210 l0 -295
-22 -9 c-73 -27 -68 -31 -68 62 0 46 3 179 7 294 l6 211 31 15 c17 9 34 16 39
16 4 1 7 -132 7 -294z m-470 -139 l0 -303 -42 -7 c-24 -4 -53 -9 -65 -13 l-23
-5 0 299 0 300 63 15 c34 9 63 16 65 17 1 0 2 -136 2 -303z"/>
<path d="M1922 2488 c3 -9 30 -14 76 -16 60 -2 72 0 72 13 0 12 -14 15 -76 15
-56 0 -75 -3 -72 -12z"/>
<path d="M8220 2485 c0 -12 15 -15 75 -15 60 0 75 3 75 15 0 12 -15 15 -75 15
-60 0 -75 -3 -75 -15z"/>
<path d="M2338 2463 c7 -3 16 -2 19 1 4 3 -2 6 -13 5 -11 0 -14 -3 -6 -6z"/>
<path d="M2378 2463 c6 -2 18 -2 25 0 6 3 1 5 -13 5 -14 0 -19 -2 -12 -5z"/>
<path d="M7808 2463 c18 -2 45 -2 60 0 15 2 0 4 -33 4 -33 0 -45 -2 -27 -4z"/>
<path d="M1920 2330 c0 -19 7 -20 95 -20 52 0 95 4 95 8 0 23 -30 32 -107 32
-76 0 -83 -2 -83 -20z"/>
<path d="M8187 2336 c-9 -23 2 -26 95 -26 80 0 89 2 86 18 -3 14 -17 17 -89
20 -68 2 -88 0 -92 -12z"/>
<path d="M2020 2250 c0 -5 23 -10 50 -10 28 0 50 5 50 10 0 6 -22 10 -50 10
-27 0 -50 -4 -50 -10z"/>
<path d="M8165 2250 c-4 -6 15 -10 49 -10 31 0 56 5 56 10 0 6 -22 10 -49 10
-28 0 -53 -4 -56 -10z"/>
<path d="M2040 2105 c0 -12 14 -15 65 -15 51 0 65 3 65 15 0 12 -14 15 -65 15
-51 0 -65 -3 -65 -15z"/>
<path d="M8120 2105 c0 -13 11 -15 63 -13 34 2 62 8 62 13 0 6 -28 11 -62 13
-52 2 -63 0 -63 -13z"/>
<path d="M8018 1973 c-33 -8 -20 -33 17 -33 23 0 35 5 35 14 0 11 -26 30 -33
25 -1 -1 -10 -3 -19 -6z"/>
<path d="M2210 1955 c0 -10 11 -15 35 -15 24 0 35 5 35 15 0 10 -11 15 -35 15
-24 0 -35 -5 -35 -15z"/>
<path d="M3525 1840 c-414 -9 -669 -19 -725 -28 -86 -13 155 -19 1235 -31
1360 -16 3518 2 3488 29 -4 4 -150 13 -323 20 -358 15 -3144 22 -3675 10z"/>
<path d="M3875 1720 c-225 -4 -466 -8 -535 -9 -92 -2 -117 -5 -95 -12 52 -15
1872 -27 2815 -18 904 8 1146 17 815 30 -270 11 -2548 18 -3000 9z"/>
<path d="M2880 1595 c0 -11 12 -15 45 -15 33 0 45 4 45 15 0 11 -12 15 -45 15
-33 0 -45 -4 -45 -15z"/>
<path d="M7310 1595 c0 -11 12 -15 45 -15 33 0 45 4 45 15 0 11 -12 15 -45 15
-33 0 -45 -4 -45 -15z"/>
<path d="M3505 1590 c-71 -3 -128 -7 -125 -9 6 -5 762 -18 1530 -27 381 -4
760 -2 1025 5 231 6 543 11 692 12 150 0 275 4 277 8 3 4 -135 11 -307 15
-356 8 -2895 4 -3092 -4z"/>
<path d="M4535 1471 l-400 -6 350 -10 c368 -11 1225 -8 1480 5 l150 7 -180 1
c-99 1 -364 4 -590 5 -225 2 -590 1 -810 -2z"/>
<path d="M6538 1469 c-10 -5 -18 -16 -18 -24 0 -17 28 -24 85 -22 30 2 41 7
43 21 2 10 -2 22 -10 27 -18 12 -79 11 -100 -2z"/>
<path d="M3642 1448 c3 -21 8 -23 57 -21 97 4 97 43 0 43 -57 0 -60 -1 -57
-22z"/>
<path d="M3995 1340 c3 -5 26 -10 51 -10 24 0 44 5 44 10 0 6 -23 10 -51 10
-31 0 -48 -4 -44 -10z"/>
<path d="M4265 1340 c4 -7 307 -10 876 -10 573 0 869 3 869 10 0 7 -299 10
-876 10 -581 0 -873 -3 -869 -10z"/>
<path d="M6200 1340 c0 -5 22 -10 49 -10 28 0 53 5 56 10 4 6 -15 10 -49 10
-31 0 -56 -4 -56 -10z"/>
<path d="M4744 1205 c-10 -25 9 -37 52 -33 31 2 39 7 39 23 0 16 -8 21 -43 23
-32 2 -44 -1 -48 -13z"/>
<path d="M5083 1204 c-9 -25 11 -35 63 -32 42 3 49 6 52 26 3 21 0 22 -53 22
-41 0 -57 -4 -62 -16z"/>
<path d="M5440 1205 c-19 -23 -2 -35 50 -35 27 0 52 5 55 10 12 19 -17 40 -55
40 -21 0 -43 -7 -50 -15z"/>
</g>
</svg>
