<?xml version="1.0" standalone="no"?>
<!DOCTYPE svg PUBLIC "-//W3C//DTD SVG 20010904//EN"
 "http://www.w3.org/TR/2001/REC-SVG-20010904/DTD/svg10.dtd">
<svg version="1.0" xmlns="http://www.w3.org/2000/svg"
 width="1024.000000pt" height="1024.000000pt" viewBox="0 0 1024.000000 1024.000000"
 preserveAspectRatio="xMidYMid meet">

<g transform="translate(0.000000,1024.000000) scale(0.100000,-0.100000)"
fill="#000000" stroke="none">
<path d="M4305 8984 c-44 -2 -223 -8 -397 -15 -175 -6 -332 -14 -350 -18 -30
-6 -34 -11 -54 -81 -12 -41 -51 -177 -87 -301 -36 -125 -82 -289 -102 -365
-20 -77 -64 -242 -97 -369 -179 -683 -218 -905 -203 -1150 37 -599 368 -1175
860 -1497 101 -66 343 -185 465 -228 58 -21 157 -50 220 -65 63 -15 125 -31
137 -36 48 -18 121 -223 157 -439 31 -190 36 -321 36 -1051 0 -822 7 -749 -72
-749 -116 0 -491 -76 -675 -136 -462 -152 -674 -394 -556 -635 39 -78 147
-188 239 -241 215 -125 454 -195 833 -244 167 -21 236 -25 471 -25 353 0 455
9 755 67 328 64 618 196 741 337 99 114 122 248 63 366 -55 110 -150 191 -328
281 -232 117 -573 205 -870 226 l-100 7 -7 66 c-10 96 3 1383 16 1531 22 251
65 431 138 580 l27 54 75 18 c322 77 509 155 760 319 259 169 491 430 640 719
151 296 224 567 224 845 1 274 -27 412 -268 1335 -66 251 -117 438 -198 717
-40 141 -41 143 -72 147 -95 15 -774 28 -1506 31 -459 1 -871 1 -915 -1z
m1655 -150 c289 -9 527 -19 529 -21 9 -7 -9 -14 -130 -47 -375 -102 -919 -151
-1450 -128 -278 12 -434 27 -659 62 -115 19 -361 76 -420 98 l-25 9 30 6 c17
3 185 11 375 17 190 6 365 12 390 14 168 9 920 4 1360 -10z m-2175 -178 c196
-68 414 -109 815 -153 230 -25 870 -25 1110 0 331 35 592 85 817 158 68 22
126 39 130 37 16 -6 60 -161 242 -848 174 -659 211 -848 212 -1080 0 -271 -53
-476 -196 -765 -181 -366 -433 -620 -803 -811 -305 -157 -735 -250 -1062 -229
-413 25 -768 143 -1107 367 -319 211 -547 515 -686 915 -98 281 -117 574 -56
878 54 267 355 1411 414 1574 3 7 13 11 23 8 9 -4 76 -26 147 -51z m1589
-3846 c-38 -86 -75 -201 -88 -270 -47 -258 -49 -315 -53 -1197 l-4 -842 23 -5
c13 -3 79 -10 148 -16 331 -29 623 -99 855 -205 165 -75 281 -173 304 -258 21
-72 2 -119 -79 -199 -56 -56 -88 -77 -191 -126 -141 -68 -202 -89 -379 -132
-497 -119 -1275 -94 -1740 56 -230 74 -395 188 -445 308 -27 64 -16 108 48
190 128 163 636 328 1130 368 l147 12 0 779 c0 615 -3 816 -15 951 -19 214
-46 358 -90 485 -19 55 -35 104 -35 108 0 4 106 8 235 8 205 0 234 -2 229 -15z"/>
<path d="M3772 2058 c-17 -17 -15 -33 7 -77 66 -129 319 -258 641 -325 636
-134 1416 -77 1855 135 150 72 270 178 246 217 -6 10 -26 -5 -72 -51 -138
-138 -437 -244 -849 -303 -146 -21 -601 -30 -771 -15 -532 47 -965 207 -1019
377 -16 49 -23 57 -38 42z"/>
</g>
</svg>
